{
.appVersion = "3316";
.formatVersion = 3;
axes = (
{
name = Weight;
tag = wght;
}
);
customParameters = (
{
name = fsType;
value = (
);
},
{
name = vendorID;
value = "it*";
},
{
name = "Use Typo Metrics";
value = 1;
}
);
date = "2016-06-11 02:01:29 +0000";
familyName = Jost;
featurePrefixes = (
{
automatic = 1;
code = "languagesystem DFLT dflt;

languagesystem grek dflt;

languagesystem latn dflt;
languagesystem latn CAT;
";
name = Languagesystems;
}
);
features = (
{
automatic = 1;
code = "feature locl;
feature frac;
feature ordn;
feature subs;
feature sinf;
feature sups;
feature fwid;
";
tag = aalt;
},
{
automatic = 1;
code = "script latn;
language CAT;
lookup locl_latn_0 {
	sub  l' periodcentered' l by ldot;
	sub  L' periodcentered' L by Ldot;
} locl_latn_0;
";
tag = locl;
},
{
automatic = 1;
code = "sub zero by zeroinferior;
sub one by oneinferior;
sub two by twoinferior;
sub three by threeinferior;
sub four by fourinferior;
sub five by fiveinferior;
sub six by sixinferior;
sub seven by seveninferior;
sub eight by eightinferior;
sub nine by nineinferior;
";
tag = subs;
},
{
automatic = 1;
code = "sub zero by zeroinferior;
sub one by oneinferior;
sub two by twoinferior;
sub three by threeinferior;
sub four by fourinferior;
sub five by fiveinferior;
sub six by sixinferior;
sub seven by seveninferior;
sub eight by eightinferior;
sub nine by nineinferior;
";
tag = sinf;
},
{
automatic = 1;
code = "sub zero by zerosuperior;
sub one by onesuperior;
sub two by twosuperior;
sub three by threesuperior;
sub four by foursuperior;
sub five by fivesuperior;
sub six by sixsuperior;
sub seven by sevensuperior;
sub eight by eightsuperior;
sub nine by ninesuperior;
";
tag = sups;
},
{
automatic = 1;
code = "sub one slash eight by oneeighth;
sub one slash four by onequarter;
sub three slash eight by threeeighths;
sub one slash two by onehalf;
sub five slash eight by fiveeighths;
sub three slash four by threequarters;
sub seven slash eight by seveneighths;

glyphs = (
{
glyphname = A;
kernLeft = A;
kernRight = A;
lastChange = "2024-09-04 09:03:03 +0000";
layers = (
{
layerId = m001;
shapes = (
{
closed = 1;
nodes = (
(177,290,l),
(487,290,l),
(517,210,l),
(147,210,l)
);
},
{
closed = 1;
nodes = (
(212,264,l),
(204,246,l),
(100,0,l),
(5,0,l),
(330,735,l),
(655,0,l),
(560,0,l),
(458,240,l),
(450,260,l),
(330,542,l)
);
}
);
width = 660;
},
{
layerId = "7E94446B-7650-4140-BC3E-80C3FEB621EC";
shapes = (
{
closed = 1;
nodes = (
(207,248,l),
(577,248,l),
(577,90,l),
(207,90,l)
);
},
{
closed = 1;
nodes = (
(304,189,l),
(321,139,l),
(245,0,l),
(-5,0,l),
(390,750,l),
(785,0,l),
(535,0,l),
(461,132,l),
(476,189,l),
(390,382,l)
);
}
);
width = 780;
},
{
layerId = "F0B2A15B-B648-4C9E-81BA-2B413577DC71";
shapes = (
{
closed = 1;
nodes = (
(129,282,l),
(472,282,l),
(472,272,l),
(129,272,l)
);
},
{
closed = 1;
nodes = (
(136,277,l),
(135,273,l),
(27,0,l),
(15,0,l),
(300,715,l),
(585,0,l),
(573,0,l),
(466,273,l),
(465,276,l),
(300,688,l)
);
}
);
width = 600;
}
);
unicode = 65;
},
{
glyphname = Aacute;
kernLeft = A;
kernRight = A;
lastChange = "2024-09-04 09:03:03 +0000";
layers = (
{
layerId = m001;
shapes = (
{
closed = 1;
nodes = (
(177,290,l),
(487,290,l),
(517,210,l),
(147,210,l)
);
},
{
closed = 1;
nodes = (
(212,264,l),
(204,246,l),
(100,0,l),
(5,0,l),
(330,735,l),
(655,0,l),
(560,0,l),
(458,240,l),
(450,260,l),
(330,542,l)
);
},
{
closed = 1;
nodes = (
(280,795,l),
(235,825,l),
(385,985,l),
(460,945,l)
);
}
);
width = 660;
},
{
layerId = "7E94446B-7650-4140-BC3E-80C3FEB621EC";
shapes = (
{
closed = 1;
nodes = (
(207,248,l),
(577,248,l),
(577,90,l),
(207,90,l)
);
},
{
closed = 1;
nodes = (
(304,189,l),
(321,139,l),
(245,0,l),
(-5,0,l),
(390,750,l),
(785,0,l),
(535,0,l),
(461,132,l),
(476,189,l),
(390,382,l)
);
},
{
closed = 1;
nodes = (
(385,810,l),
(275,860,l),
(425,1020,l),
(565,960,l)
);
}
);
width = 780;
},
{
layerId = "F0B2A15B-B648-4C9E-81BA-2B413577DC71";
shapes = (
{
closed = 1;
nodes = (
(127,282,l),
(472,282,l),
(472,272,l),
(127,272,l)
);
},
{
closed = 1;
nodes = (
(136,277,l),
(135,273,l),
(27,0,l),
(15,0,l),
(300,715,l),
(585,0,l),
(573,0,l),
(466,273,l),
(465,276,l),
(300,688,l)
);
},
{
closed = 1;
nodes = (
(262,775,l),
(258,780,l),
(428,940,l),
(436,932,l)
);
}
);
width = 600;
}
);
unicode = 193;
},
{
glyphname = Abreve;
kernLeft = A;
kernRight = A;
lastChange = "2024-09-04 09:03:03 +0000";
layers = (
{
layerId = m001;
shapes = (
{
closed = 1;
nodes = (
(177,290,l),
(487,290,l),
(517,210,l),
(147,210,l)
);
},
{
closed = 1;
nodes = (
(212,264,l),
(204,246,l),
(100,0,l),
(5,0,l),
(330,735,l),
(655,0,l),
(560,0,l),
(458,240,l),
(450,260,l),
(330,542,l)
);
},
{
closed = 1;
nodes = (
(243,935,l),
(243,909,o),
(260,860,o),
(330,860,cs),
(400,860,o),
(417,909,o),
(417,935,c),
(488,935,l),
(488,866,o),
(435,795,o),
(330,795,cs),
(225,795,o),
(172,866,o),
(172,935,c)
);
}
);
width = 660;
},
{
layerId = "7E94446B-7650-4140-BC3E-80C3FEB621EC";
shapes = (
{
closed = 1;
nodes = (
(207,248,l),
(577,248,l),
(577,90,l),
(207,90,l)
);
},
{
closed = 1;
nodes = (
(304,189,l),
(321,139,l),
(245,0,l),
(-5,0,l),
(390,750,l),
(785,0,l),
(535,0,l),
(461,132,l),
(476,189,l),
(390,382,l)
);
},
{
closed = 1;
nodes = (
(338,960,l),
(338,919,o),
(370,910,o),
(390,910,cs),
(410,910,o),
(442,919,o),
(442,960,c),
(558,960,l),
(558,871,o),
(495,810,o),
(390,810,cs),
(285,810,o),
(222,871,o),
(222,960,c)
);
}
);
width = 780;
},
{
layerId = "F0B2A15B-B648-4C9E-81BA-2B413577DC71";
shapes = (
{
closed = 1;
nodes = (
(127,282,l),
(472,282,l),
(472,272,l),
(127,272,l)
);
},
{
closed = 1;
nodes = (
(136,277,l),
(135,273,l),
(27,0,l),
(15,0,l),
(300,715,l),
(585,0,l),
(573,0,l),
(466,273,l),
(465,276,l),
(300,688,l)
);
},
{
closed = 1;
nodes = (
(152,925,l),
(152,859,o),
(208,795,o),
(300,795,cs),
(392,795,o),
(448,859,o),
(448,925,c),
(458,925,l),
(458,856,o),
(405,785,o),
(300,785,cs),
(195,785,o),
(142,856,o),
(142,925,c)
);
}
);
width = 600;
}
);
unicode = 258;
},
{
glyphname = Acircumflex;
kernLeft = A;
kernRight = A;
lastChange = "2024-09-04 09:03:03 +0000";
layers = (
{
layerId = m001;
shapes = (
{
closed = 1;
nodes = (
(177,290,l),
(487,290,l),
(517,210,l),
(147,210,l)
);
},
{
closed = 1;
nodes = (
(212,264,l),
(204,246,l),
(100,0,l),
(5,0,l),
(330,735,l),
(655,0,l),
(560,0,l),
(458,240,l),
(450,260,l),
(330,542,l)
);
},
{
closed = 1;
nodes = (
(220,755,l),
(170,795,l),
(330,935,l),
(490,795,l),
(440,755,l),
(330,850,l)
);
}
);
width = 660;
},
{
layerId = "7E94446B-7650-4140-BC3E-80C3FEB621EC";
shapes = (
{
closed = 1;
nodes = (
(207,248,l),
(577,248,l),
(577,90,l),
(207,90,l)
);
},
{
closed = 1;
nodes = (
(304,189,l),
(321,139,l),
(245,0,l),
(-5,0,l),
(390,750,l),
(785,0,l),
(535,0,l),
(461,132,l),
(476,189,l),
(390,382,l)
);
},
{
closed = 1;
nodes = (
(310,810,l),
(170,900,l),
(390,1040,l),
(610,900,l),
(470,810,l),
(390,890,l)
);
}
);
width = 780;
},
{
layerId = "F0B2A15B-B648-4C9E-81BA-2B413577DC71";
shapes = (
{
closed = 1;
nodes = (
(127,282,l),
(472,282,l),
(472,272,l),
(127,272,l)
);
},
{
closed = 1;
nodes = (
(136,277,l),
(135,273,l),
(27,0,l),
(15,0,l),
(300,715,l),
(585,0,l),
(573,0,l),
(466,273,l),
(465,276,l),
(300,688,l)
);
},
{
closed = 1;
nodes = (
(147,775,l),
(140,782,l),
(300,922,l),
(460,782,l),
(453,775,l),
(300,910,l)
);
}
);
width = 600;
}
);
unicode = 194;
},
{
glyphname = Adieresis;
kernLeft = A;
kernRight = A;
lastChange = "2024-09-04 09:03:03 +0000";
layers = (
{
layerId = m001;
shapes = (
{
closed = 1;
nodes = (
(177,290,l),
(487,290,l),
(517,210,l),
(147,210,l)
);
},
{
closed = 1;
nodes = (
(212,264,l),
(204,246,l),
(100,0,l),
(5,0,l),
(330,735,l),
(655,0,l),
(560,0,l),
(458,240,l),
(450,260,l),
(330,542,l)
);
},
{
closed = 1;
nodes = (
(375,880,o),
(400,905,o),
(430,905,cs),
(460,905,o),
(485,880,o),
(485,850,cs),
(485,820,o),
(460,795,o),
(430,795,cs),
(400,795,o),
(375,820,o),
(375,850,cs)
);
},
{
closed = 1;
nodes = (
(175,880,o),
(200,905,o),
(230,905,cs),
(260,905,o),
(285,880,o),
(285,850,cs),
(285,820,o),
(260,795,o),
(230,795,cs),
(200,795,o),
(175,820,o),
(175,850,cs)
);
}
);
width = 660;
},
{
layerId = "7E94446B-7650-4140-BC3E-80C3FEB621EC";
shapes = (
{
closed = 1;
nodes = (
(207,248,l),
(577,248,l),
(577,90,l),
(207,90,l)
);
},
{
closed = 1;
nodes = (
(304,189,l),
(321,139,l),
(245,0,l),
(-5,0,l),
(390,750,l),
(785,0,l),
(535,0,l),
(461,132,l),
(476,189,l),
(390,382,l)
);
},
{
closed = 1;
nodes = (
(447,877,o),
(495,916,o),
(555,916,cs),
(615,916,o),
(663,877,o),
(663,818,cs),
(663,759,o),
(615,720,o),
(555,720,cs),
(495,720,o),
(447,759,o),
(447,818,cs)
);
},
{
closed = 1;
nodes = (
(107,887,o),
(155,926,o),
(215,926,cs),
(275,926,o),
(323,887,o),
(323,828,cs),
(323,769,o),
(275,730,o),
(215,730,cs),
(155,730,o),
(107,769,o),
(107,828,cs)
);
}
);
width = 780;
},
{
layerId = "F0B2A15B-B648-4C9E-81BA-2B413577DC71";
shapes = (
{
closed = 1;
nodes = (
(127,282,l),
(472,282,l),
(472,272,l),
(127,272,l)
);
},
{
closed = 1;
nodes = (
(136,277,l),
(135,273,l),
(27,0,l),
(15,0,l),
(300,715,l),
(585,0,l),
(573,0,l),
(466,273,l),
(465,276,l),
(300,688,l)
);
},
{
closed = 1;
nodes = (
(389,813,o),
(394,817,o),
(400,817,cs),
(406,817,o),
(411,813,o),
(411,806,cs),
(411,799,o),
(406,795,o),
(400,795,cs),
(394,795,o),
(389,799,o),
(389,806,cs)
);
},
{
closed = 1;
nodes = (
(189,813,o),
(194,817,o),
(200,817,cs),
(206,817,o),
(211,813,o),
(211,806,cs),
(211,799,o),
(206,795,o),
(200,795,cs),
(194,795,o),
(189,799,o),
(189,806,cs)
);
}
);
width = 600;
}
);
unicode = 196;
},
{
glyphname = Agrave;
kernLeft = A;
kernRight = A;
lastChange = "2024-09-04 09:03:03 +0000";
layers = (
{
layerId = m001;
shapes = (
{
closed = 1;
nodes = (
(177,290,l),
(487,290,l),
(517,210,l),
(147,210,l)
);
},
{
closed = 1;
nodes = (
(212,264,l),
(204,246,l),
(100,0,l),
(5,0,l),
(330,735,l),
(655,0,l),
(560,0,l),
(458,240,l),
(450,260,l),
(330,542,l)
);
},
{
closed = 1;
nodes = (
(275,985,l),
(425,825,l),
(380,795,l),
(200,945,l)
);
}
);
width = 660;
},
{
layerId = "7E94446B-7650-4140-BC3E-80C3FEB621EC";
shapes = (
{
closed = 1;
nodes = (
(207,248,l),
(577,248,l),
(577,90,l),
(207,90,l)
);
},
{
closed = 1;
nodes = (
(304,189,l),
(321,139,l),
(245,0,l),
(-5,0,l),
(390,750,l),
(785,0,l),
(535,0,l),
(461,132,l),
(476,189,l),
(390,382,l)
);
},
{
closed = 1;
nodes = (
(350,1020,l),
(500,860,l),
(390,810,l),
(210,960,l)
);
}
);
width = 780;
},
{
layerId = "F0B2A15B-B648-4C9E-81BA-2B413577DC71";
shapes = (
{
closed = 1;
nodes = (
(127,282,l),
(472,282,l),
(472,272,l),
(127,272,l)
);
},
{
closed = 1;
nodes = (
(136,277,l),
(135,273,l),
(27,0,l),
(15,0,l),
(300,715,l),
(585,0,l),
(573,0,l),
(466,273,l),
(465,276,l),
(300,688,l)
);
},
{
closed = 1;
nodes = (
(172,940,l),
(342,780,l),
(338,775,l),
(164,932,l)
);
}
);
width = 600;
}
);
unicode = 192;
},
{
glyphname = Amacron;
kernLeft = A;
kernRight = A;
lastChange = "2024-09-04 09:03:03 +0000";
layers = (
{
layerId = m001;
shapes = (
{
closed = 1;
nodes = (
(177,290,l),
(487,290,l),
(517,210,l),
(147,210,l)
);
},
{
closed = 1;
nodes = (
(212,264,l),
(204,246,l),
(100,0,l),
(5,0,l),
(330,735,l),
(655,0,l),
(560,0,l),
(458,240,l),
(450,260,l),
(330,542,l)
);
},
{
closed = 1;
nodes = (
(155,870,l),
(505,870,l),
(505,795,l),
(155,795,l)
);
}
);
width = 660;
},
{
layerId = "7E94446B-7650-4140-BC3E-80C3FEB621EC";
shapes = (
{
closed = 1;
nodes = (
(207,248,l),
(577,248,l),
(577,90,l),
(207,90,l)
);
},
{
closed = 1;
nodes = (
(304,189,l),
(321,139,l),
(245,0,l),
(-5,0,l),
(390,750,l),
(785,0,l),
(535,0,l),
(461,132,l),
(476,189,l),
(390,382,l)
);
},
{
closed = 1;
nodes = (
(198,975,l),
(582,975,l),
(582,810,l),
(198,810,l)
);
}
);
width = 780;
},
{
layerId = "F0B2A15B-B648-4C9E-81BA-2B413577DC71";
shapes = (
{
closed = 1;
nodes = (
(127,282,l),
(472,282,l),
(472,272,l),
(127,272,l)
);
},
{
closed = 1;
nodes = (
(136,277,l),
(135,273,l),
(27,0,l),
(15,0,l),
(300,715,l),
(585,0,l),
(573,0,l),
(466,273,l),
(465,276,l),
(300,688,l)
);
},
{
closed = 1;
nodes = (
(125,805,l),
(475,805,l),
(475,795,l),
(125,795,l)
);
}
);
width = 600;
}
);
unicode = 256;
},
{
glyphname = Aogonek;
kernLeft = A;
kernRight = A;
lastChange = "2024-09-04 09:03:03 +0000";
layers = (
{
layerId = m001;
shapes = (
{
closed = 1;
nodes = (
(177,290,l),
(487,290,l),
(517,210,l),
(147,210,l)
);
},
{
closed = 1;
nodes = (
(212,264,l),
(204,246,l),
(100,0,l),
(5,0,l),
(330,735,l),
(655,0,l),
(560,0,l),
(458,240,l),
(450,260,l),
(330,542,l)
);
},
{
closed = 1;
nodes = (
(693,-180,l),
(678,-200,o),
(648,-220,o),
(605,-220,cs),
(521,-220,o),
(482,-179,o),
(482,-120,cs),
(482,-61,o),
(544,-11,o),
(614,25,c),
(655,0,l),
(603,-22,o),
(562,-63,o),
(562,-100,cs),
(562,-136,o),
(580,-150,o),
(610,-150,cs),
(636,-150,o),
(646,-143,o),
(660,-130,c)
);
}
);
width = 660;
},
{
layerId = "7E94446B-7650-4140-BC3E-80C3FEB621EC";
shapes = (
{
closed = 1;
nodes = (
(207,248,l),
(577,248,l),
(577,90,l),
(207,90,l)
);
},
{
closed = 1;
nodes = (
(304,189,l),
(321,139,l),
(245,0,l),
(-5,0,l),
(390,750,l),
(785,0,l),
(535,0,l),
(461,132,l),
(476,189,l),
(390,382,l)
);
},
{
closed = 1;
nodes = (
(743,-180,l),
(728,-200,o),
(698,-220,o),
(635,-220,cs),
(581,-220,o),
(522,-189,o),
(522,-120,cs),
(522,-51,o),
(594,-11,o),
(664,25,c),
(705,0,l),
(653,-32,o),
(632,-63,o),
(632,-90,cs),
(632,-108,o),
(640,-120,o),
(660,-120,cs),
(676,-120,o),
(696,-113,o),
(710,-100,c)
);
}
);
width = 780;
},
{
layerId = "F0B2A15B-B648-4C9E-81BA-2B413577DC71";
shapes = (
{
closed = 1;
nodes = (
(129,282,l),
(472,282,l),
(472,272,l),
(129,272,l)
);
},
{
closed = 1;
nodes = (
(136,277,l),
(135,273,l),
(27,0,l),
(15,0,l),
(300,715,l),
(585,0,l),
(573,0,l),
(466,273,l),
(465,276,l),
(300,688,l)
);
},
{
closed = 1;
nodes = (
(626,-180,l),
(611,-200,o),
(571,-220,o),
(528,-220,cs),
(464,-220,o),
(425,-189,o),
(425,-140,cs),
(425,-71,o),
(508,-26,o),
(578,10,c),
(585,0,l),
(517,-32,o),
(435,-83,o),
(435,-140,cs),
(435,-186,o),
(478,-210,o),
(528,-210,cs),
(568,-210,o),
(604,-191,o),
(619,-173,c)
);
}
);
width = 600;
}
);
unicode = 260;
},
{
glyphname = Aring;
kernLeft = A;
kernRight = A;
lastChange = "2024-09-04 09:03:03 +0000";
layers = (
{
layerId = m001;
shapes = (
{
closed = 1;
nodes = (
(177,290,l),
(487,290,l),
(517,210,l),
(147,210,l)
);
},
{
closed = 1;
nodes = (
(212,264,l),
(204,246,l),
(100,0,l),
(5,0,l),
(330,735,l),
(655,0,l),
(560,0,l),
(458,240,l),
(450,260,l),
(330,542,l)
);
},
{
closed = 1;
nodes = (
(228,858,o),
(278,898,o),
(330,898,cs),
(382,898,o),
(432,858,o),
(432,798,cs),
(432,738,o),
(382,698,o),
(330,698,cs),
(278,698,o),
(228,738,o),
(228,798,cs)
);
},
{
closed = 1;
nodes = (
(279,765,o),
(305,745,o),
(330,745,cs),
(355,745,o),
(381,765,o),
(381,798,cs),
(381,831,o),
(355,851,o),
(330,851,cs),
(305,851,o),
(279,831,o),
(279,798,cs)
);
}
);
width = 660;
},
{
layerId = "7E94446B-7650-4140-BC3E-80C3FEB621EC";
shapes = (
{
closed = 1;
nodes = (
(207,248,l),
(577,248,l),
(577,90,l),
(207,90,l)
);
},
{
closed = 1;
nodes = (
(304,189,l),
(321,139,l),
(245,0,l),
(-5,0,l),
(390,750,l),
(785,0,l),
(535,0,l),
(461,132,l),
(476,189,l),
(390,382,l)
);
},
{
closed = 1;
nodes = (
(251,876,o),
(309,927,o),
(389,927,cs),
(469,927,o),
(529,876,o),
(529,802,cs),
(529,728,o),
(469,677,o),
(389,677,cs),
(309,677,o),
(251,728,o),
(251,802,cs)
);
},
{
closed = 1;
nodes = (
(346,774,o),
(364,758,o),
(389,758,cs),
(414,758,o),
(433,774,o),
(433,802,cs),
(433,830,o),
(414,847,o),
(389,847,cs),
(364,847,o),
(346,830,o),
(346,802,cs)
);
}
);
width = 780;
},
{
layerId = "F0B2A15B-B648-4C9E-81BA-2B413577DC71";
shapes = (
{
closed = 1;
nodes = (
(127,282,l),
(472,282,l),
(472,272,l),
(127,272,l)
);
},
{
closed = 1;
nodes = (
(136,277,l),
(135,273,l),
(27,0,l),
(15,0,l),
(300,715,l),
(585,0,l),
(573,0,l),
(466,273,l),
(465,276,l),
(300,688,l)
);
},
{
closed = 1;
nodes = (
(198,868,o),
(248,908,o),
(300,908,cs),
(352,908,o),
(402,868,o),
(402,808,cs),
(402,748,o),
(352,708,o),
(300,708,cs),
(248,708,o),
(198,748,o),
(198,808,cs)
);
},
{
closed = 1;
nodes = (
(208,755,o),
(252,718,o),
(300,718,cs),
(348,718,o),
(392,755,o),
(392,808,cs),
(392,861,o),
(348,898,o),
(300,898,cs),
(252,898,o),
(208,861,o),
(208,808,cs)
);
}
);
width = 600;
}
);
unicode = 197;
},
{
glyphname = Atilde;
kernLeft = A;
kernRight = A;
lastChange = "2024-09-04 09:03:03 +0000";
layers = (
{
layerId = m001;
shapes = (
{
closed = 1;
nodes = (
(177,290,l),
(487,290,l),
(517,210,l),
(147,210,l)
);
},
{
closed = 1;
nodes = (
(212,264,l),
(204,246,l),
(100,0,l),
(5,0,l),
(330,735,l),
(655,0,l),
(560,0,l),
(458,240,l),
(450,260,l),
(330,542,l)
);
},
{
closed = 1;
nodes = (
(175,861,o),
(224,894,o),
(269,894,cs),
(334,894,o),
(339,847,o),
(393,847,cs),
(412,847,o),
(429,863,o),
(449,895,c),
(495,852,l),
(479,815,o),
(439,779,o),
(389,779,cs),
(334,779,o),
(313,826,o),
(268,826,cs),
(227,826,o),
(218,790,o),
(218,775,c),
(165,812,l)
);
}
);
width = 660;
},
{
layerId = "7E94446B-7650-4140-BC3E-80C3FEB621EC";
shapes = (
{
closed = 1;
nodes = (
(207,248,l),
(577,248,l),
(577,90,l),
(207,90,l)
);
},
{
closed = 1;
nodes = (
(304,189,l),
(321,139,l),
(245,0,l),
(-5,0,l),
(390,750,l),
(785,0,l),
(535,0,l),
(461,132,l),
(476,189,l),
(390,382,l)
);
},
{
closed = 1;
nodes = (
(185,942,o),
(229,995,o),
(304,995,cs),
(371,995,o),
(390,940,o),
(448,940,cs),
(477,940,o),
(499,964,o),
(519,996,c),
(605,903,l),
(589,866,o),
(524,810,o),
(454,810,cs),
(399,810,o),
(355,867,o),
(303,867,cs),
(267,867,o),
(258,831,o),
(258,816,c),
(175,893,l)
);
}
);
width = 780;
},
{
layerId = "F0B2A15B-B648-4C9E-81BA-2B413577DC71";
shapes = (
{
closed = 1;
nodes = (
(127,282,l),
(472,282,l),
(472,272,l),
(127,272,l)
);
},
{
closed = 1;
nodes = (
(136,277,l),
(135,273,l),
(27,0,l),
(15,0,l),
(300,715,l),
(585,0,l),
(573,0,l),
(466,273,l),
(465,276,l),
(300,688,l)
);
},
{
closed = 1;
nodes = (
(174,825,o),
(191,854,o),
(236,854,cs),
(291,854,o),
(306,807,o),
(360,807,cs),
(389,807,o),
(401,823,o),
(416,855,c),
(426,852,l),
(410,815,o),
(390,799,o),
(360,799,cs),
(305,799,o),
(283,846,o),
(238,846,cs),
(197,846,o),
(184,820,o),
(184,795,c),
(174,796,l)
);
}
);
width = 600;
}
);
unicode = 195;
},
{
glyphname = AE;
kernLeft = A;
lastChange = "2024-09-04 09:03:03 +0000";
layers = (
{
layerId = m001;
shapes = (
{
closed = 1;
nodes = (
(217,290,l),
(517,290,l),
(517,210,l),
(217,210,l)
);
},
{
closed = 1;
nodes = (
(504,660,l),
(100,0,l),
(5,0,l),
(435,700,l)
);
},
{
closed = 1;
nodes = (
(537,80,l),
(890,80,l),
(890,0,l),
(537,0,l)
);
},
{
closed = 1;
nodes = (
(435,700,l),
(890,700,l),
(890,620,l),
(545,620,l)
);
},
{
closed = 1;
nodes = (
(537,420,l),
(870,420,l),
(870,340,l),
(537,340,l)
);
},
{
closed = 1;
nodes = (
(575,700,l),
(575,0,l),
(490,0,l),
(490,700,l)
);
}
);
width = 960;
},
{
layerId = "7E94446B-7650-4140-BC3E-80C3FEB621EC";
shapes = (
{
closed = 1;
nodes = (
(312,315,l),
(612,315,l),
(612,115,l),
(302,115,l)
);
},
{
closed = 1;
nodes = (
(659,660,l),
(305,0,l),
(20,0,l),
(440,700,l)
);
},
{
closed = 1;
nodes = (
(687,175,l),
(1090,175,l),
(1090,0,l),
(687,0,l)
);
},
{
closed = 1;
nodes = (
(440,700,l),
(1090,700,l),
(1090,525,l),
(695,525,l)
);
},
{
closed = 1;
nodes = (
(687,445,l),
(1070,445,l),
(1070,275,l),
(687,275,l)
);
},
{
closed = 1;
nodes = (
(825,700,l),
(825,0,l),
(585,0,l),
(585,700,l)
);
}
);
width = 1160;
},
{
layerId = "F0B2A15B-B648-4C9E-81BA-2B413577DC71";
shapes = (
{
closed = 1;
nodes = (
(207,290,l),
(497,290,l),
(497,280,l),
(207,280,l)
);
},
{
closed = 1;
nodes = (
(498,700,l),
(18,0,l),
(5,0,l),
(485,700,l)
);
},
{
closed = 1;
nodes = (
(497,10,l),
(816,10,l),
(816,0,l),
(497,0,l)
);
},
{
closed = 1;
nodes = (
(485,700,l),
(816,700,l),
(816,690,l),
(500,690,l)
);
},
{
closed = 1;
nodes = (
(497,394,l),
(796,394,l),
(796,384,l),
(497,384,l)
);
},
{
closed = 1;
nodes = (
(501,700,l),
(501,0,l),
(490,0,l),
(490,700,l)
);
}
);
width = 896;
}
);
unicode = 198;
},
{
glyphname = B;
kernRight = B;
lastChange = "2024-09-04 09:03:03 +0000";
layers = (
{
layerId = m001;
shapes = (
{
closed = 1;
nodes = (
(147,417,l),
(260,417,ls),
(330,417,o),
(383,454,o),
(383,520,cs),
(383,586,o),
(330,625,o),
(260,625,cs),
(165,625,l),
(165,75,l),
(270,75,ls),
(360,75,o),
(423,124,o),
(423,210,cs),
(423,296,o),
(360,343,o),
(270,343,cs),
(147,343,l),
(147,390,l),
(270,390,ls),
(405,390,o),
(508,334,o),
(508,205,cs),
(508,66,o),
(405,0,o),
(270,0,cs),
(80,0,l),
(80,700,l),
(260,700,ls),
(385,700,o),
(468,644,o),
(468,525,cs),
(468,426,o),
(385,370,o),
(260,370,cs),
(147,370,l)
);
}
);
width = 558;
},
{
layerId = "7E94446B-7650-4140-BC3E-80C3FEB621EC";
shapes = (
{
closed = 1;
nodes = (
(232,425,l),
(345,425,ls),
(395,425,o),
(418,447,o),
(418,483,cs),
(418,519,o),
(395,535,o),
(345,535,cs),
(290,535,l),
(290,165,l),
(365,165,ls),
(415,165,o),
(458,171,o),
(458,227,cs),
(458,273,o),
(415,280,o),
(365,280,cs),
(232,280,l),
(232,400,l),
(395,400,ls),
(530,400,o),
(688,341,o),
(688,192,cs),
(688,53,o),
(580,0,o),
(395,0,cs),
(70,0,l),
(70,700,l),
(375,700,ls),
(530,700,o),
(648,639,o),
(648,520,cs),
(648,401,o),
(530,335,o),
(375,335,cs),
(232,335,l)
);
}
);
width = 728;
},
{
layerId = "F0B2A15B-B648-4C9E-81BA-2B413577DC71";
shapes = (
{
closed = 1;
nodes = (
(97,394,l),
(200,394,ls),
(300,394,o),
(387,434,o),
(387,540,cs),
(387,634,o),
(320,689,o),
(200,689,cs),
(100,689,l),
(100,11,l),
(210,11,ls),
(340,11,o),
(424,69,o),
(424,200,cs),
(424,316,o),
(310,384,o),
(210,384,cs),
(97,384,l),
(97,392,l),
(220,392,ls),
(305,392,o),
(435,329,o),
(435,200,cs),
(435,61,o),
(345,0,o),
(210,0,cs),
(90,0,l),
(90,700,l),
(200,700,ls),
(325,700,o),
(398,639,o),
(398,540,cs),
(398,431,o),
(315,386,o),
(210,386,cs),
(97,386,l)
);
}
);
width = 495;
}
);
unicode = 66;
},
{
glyphname = C;
kernLeft = C;
kernRight = B;
lastChange = "2024-09-04 09:03:03 +0000";
layers = (
{
layerId = m001;
shapes = (
{
closed = 1;
nodes = (
(130,187,o),
(252,75,o),
(390,75,cs),
(489,75,o),
(566,117,o),
(615,179,c),
(615,67,l),
(556,15,o),
(492,-10,o),
(390,-10,cs),
(196,-10,o),
(40,141,o),
(40,350,cs),
(40,559,o),
(196,710,o),
(390,710,cs),
(492,710,o),
(556,685,o),
(615,633,c),
(615,521,l),
(566,583,o),
(489,625,o),
(390,625,cs),
(252,625,o),
(130,513,o),
(130,350,cs)
);
}
);
width = 685;
},
{
layerId = "7E94446B-7650-4140-BC3E-80C3FEB621EC";
shapes = (
{
closed = 1;
nodes = (
(272,242,o),
(353,187,o),
(451,187,cs),
(550,187,o),
(606,231,o),
(650,273,c),
(650,47,l),
(595,9,o),
(537,-20,o),
(435,-20,cs),
(191,-20,o),
(30,126,o),
(30,350,cs),
(30,574,o),
(191,720,o),
(435,720,cs),
(537,720,o),
(595,691,o),
(650,653,c),
(650,427,l),
(606,469,o),
(550,513,o),
(451,513,cs),
(353,513,o),
(272,458,o),
(272,350,cs)
);
}
);
width = 710;
},
{
layerId = "F0B2A15B-B648-4C9E-81BA-2B413577DC71";
shapes = (
{
closed = 1;
nodes = (
(62,150,o),
(193,4,o),
(380,4,cs),
(479,4,o),
(547,31,o),
(605,88,c),
(605,72,l),
(546,20,o),
(482,-8,o),
(380,-8,cs),
(186,-8,o),
(50,141,o),
(50,350,cs),
(50,559,o),
(186,708,o),
(380,708,cs),
(482,708,o),
(546,680,o),
(605,628,c),
(605,613,l),
(549,669,o),
(474,696,o),
(380,696,cs),
(194,696,o),
(62,553,o),
(62,350,cs)
);
}
);
width = 685;
}
);
unicode = 67;
},
{
glyphname = Cacute;
kernLeft = C;
lastChange = "2024-09-04 09:03:03 +0000";
layers = (
{
layerId = m001;
shapes = (
{
closed = 1;
nodes = (
(130,187,o),
(252,75,o),
(390,75,cs),
(489,75,o),
(566,117,o),
(615,179,c),
(615,67,l),
(556,15,o),
(492,-10,o),
(390,-10,cs),
(196,-10,o),
(40,141,o),
(40,350,cs),
(40,559,o),
(196,710,o),
(390,710,cs),
(492,710,o),
(556,685,o),
(615,633,c),
(615,521,l),
(566,583,o),
(489,625,o),
(390,625,cs),
(252,625,o),
(130,513,o),
(130,350,cs)
);
},
{
closed = 1;
nodes = (
(340,770,l),
(295,800,l),
(445,960,l),
(520,920,l)
);
}
);
width = 685;
},
{
layerId = "7E94446B-7650-4140-BC3E-80C3FEB621EC";
shapes = (
{
closed = 1;
nodes = (
(272,242,o),
(353,187,o),
(451,187,cs),
(550,187,o),
(606,231,o),
(650,273,c),
(650,47,l),
(595,9,o),
(537,-20,o),
(435,-20,cs),
(191,-20,o),
(30,126,o),
(30,350,cs),
(30,574,o),
(191,720,o),
(435,720,cs),
(537,720,o),
(595,691,o),
(650,653,c),
(650,427,l),
(606,469,o),
(550,513,o),
(451,513,cs),
(353,513,o),
(272,458,o),
(272,350,cs)
);
},
{
closed = 1;
nodes = (
(385,780,l),
(275,830,l),
(425,990,l),
(565,930,l)
);
}
);
width = 710;
},
{
layerId = "F0B2A15B-B648-4C9E-81BA-2B413577DC71";
shapes = (
{
closed = 1;
nodes = (
(62,150,o),
(193,4,o),
(380,4,cs),
(479,4,o),
(547,31,o),
(605,88,c),
(605,72,l),
(546,20,o),
(482,-8,o),
(380,-8,cs),
(186,-8,o),
(50,141,o),
(50,350,cs),
(50,559,o),
(186,708,o),
(380,708,cs),
(482,708,o),
(546,680,o),
(605,628,c),
(605,613,l),
(549,669,o),
(474,696,o),
(380,696,cs),
(194,696,o),
(62,553,o),
(62,350,cs)
);
},
{
closed = 1;
nodes = (
(342,768,l),
(338,773,l),
(508,933,l),
(516,925,l)
);
}
);
width = 685;
}
);
unicode = 262;
},
{
glyphname = Ccaron;
kernLeft = C;
lastChange = "2024-09-04 09:03:03 +0000";
layers = (
{
layerId = m001;
shapes = (
{
closed = 1;
nodes = (
(130,187,o),
(252,75,o),
(390,75,cs),
(489,75,o),
(566,117,o),
(615,179,c),
(615,67,l),
(556,15,o),
(492,-10,o),
(390,-10,cs),
(196,-10,o),
(40,141,o),
(40,350,cs),
(40,559,o),
(196,710,o),
(390,710,cs),
(492,710,o),
(556,685,o),
(615,633,c),
(615,521,l),
(566,583,o),
(489,625,o),
(390,625,cs),
(252,625,o),
(130,513,o),
(130,350,cs)
);
},
{
closed = 1;
nodes = (
(500,950,l),
(550,910,l),
(390,770,l),
(230,910,l),
(280,950,l),
(390,855,l)
);
}
);
width = 685;
},
{
layerId = "7E94446B-7650-4140-BC3E-80C3FEB621EC";
shapes = (
{
closed = 1;
nodes = (
(272,242,o),
(353,187,o),
(451,187,cs),
(550,187,o),
(606,231,o),
(650,273,c),
(650,47,l),
(595,9,o),
(537,-20,o),
(435,-20,cs),
(191,-20,o),
(30,126,o),
(30,350,cs),
(30,574,o),
(191,720,o),
(435,720,cs),
(537,720,o),
(595,691,o),
(650,653,c),
(650,427,l),
(606,469,o),
(550,513,o),
(451,513,cs),
(353,513,o),
(272,458,o),
(272,350,cs)
);
},
{
closed = 1;
nodes = (
(515,1010,l),
(655,920,l),
(435,780,l),
(215,920,l),
(355,1010,l),
(435,930,l)
);
}
);
width = 710;
},
{
layerId = "F0B2A15B-B648-4C9E-81BA-2B413577DC71";
shapes = (
{
closed = 1;
nodes = (
(62,150,o),
(193,4,o),
(380,4,cs),
(479,4,o),
(547,31,o),
(605,88,c),
(605,72,l),
(546,20,o),
(482,-8,o),
(380,-8,cs),
(186,-8,o),
(50,141,o),
(50,350,cs),
(50,559,o),
(186,708,o),
(380,708,cs),
(482,708,o),
(546,680,o),
(605,628,c),
(605,613,l),
(549,669,o),
(474,696,o),
(380,696,cs),
(194,696,o),
(62,553,o),
(62,350,cs)
);
},
{
closed = 1;
nodes = (
(532,926,l),
(540,918,l),
(380,778,l),
(220,918,l),
(228,926,l),
(380,790,l)
);
}
);
width = 685;
}
);
unicode = 268;
},
{
glyphname = Ccedilla;
kernLeft = C;
lastChange = "2024-09-04 09:03:03 +0000";
layers = (
{
layerId = m001;
shapes = (
{
closed = 1;
nodes = (
(130,187,o),
(252,75,o),
(390,75,cs),
(489,75,o),
(566,117,o),
(615,179,c),
(615,67,l),
(556,15,o),
(492,-10,o),
(390,-10,cs),
(196,-10,o),
(40,141,o),
(40,350,cs),
(40,559,o),
(196,710,o),
(390,710,cs),
(492,710,o),
(556,685,o),
(615,633,c),
(615,521,l),
(566,583,o),
(489,625,o),
(390,625,cs),
(252,625,o),
(130,513,o),
(130,350,cs)
);
},
{
closed = 1;
nodes = (
(440,59,l),
(377,-53,l),
(380,-53,o),
(383,-53,o),
(386,-53,cs),
(419,-53,o),
(458,-78,o),
(458,-127,cs),
(458,-188,o),
(407,-221,o),
(352,-221,cs),
(315,-221,o),
(290,-211,o),
(262,-183,c),
(296,-143,l),
(315,-159,o),
(326,-167,o),
(352,-167,cs),
(386,-167,o),
(402,-151,o),
(402,-127,cs),
(402,-103,o),
(386,-91,o),
(352,-91,cs),
(342,-91,o),
(315,-95,o),
(294,-109,c),
(380,59,l)
);
}
);
width = 685;
},
{
layerId = "7E94446B-7650-4140-BC3E-80C3FEB621EC";
shapes = (
{
closed = 1;
nodes = (
(272,242,o),
(353,187,o),
(451,187,cs),
(550,187,o),
(606,231,o),
(650,273,c),
(650,47,l),
(595,9,o),
(537,-20,o),
(435,-20,cs),
(191,-20,o),
(30,126,o),
(30,350,cs),
(30,574,o),
(191,720,o),
(435,720,cs),
(537,720,o),
(595,691,o),
(650,653,c),
(650,427,l),
(606,469,o),
(550,513,o),
(451,513,cs),
(353,513,o),
(272,458,o),
(272,350,cs)
);
},
{
closed = 1;
nodes = (
(485,36,l),
(385,-92,l),
(401,-87,o),
(418,-86,o),
(438,-86,cs),
(482,-86,o),
(541,-122,o),
(541,-198,cs),
(541,-277,o),
(463,-316,o),
(395,-316,cs),
(328,-316,o),
(276,-307,o),
(218,-276,c),
(271,-190,l),
(300,-210,o),
(347,-216,o),
(363,-216,cs),
(397,-216,o),
(420,-208,o),
(420,-184,cs),
(420,-156,o),
(382,-154,o),
(353,-154,cs),
(343,-154,o),
(299,-155,o),
(256,-169,c),
(345,42,l)
);
}
);
width = 710;
},
{
layerId = "F0B2A15B-B648-4C9E-81BA-2B413577DC71";
shapes = (
{
closed = 1;
nodes = (
(62,150,o),
(193,4,o),
(380,4,cs),
(479,4,o),
(547,31,o),
(605,88,c),
(605,72,l),
(546,20,o),
(482,-8,o),
(380,-8,cs),
(186,-8,o),
(50,141,o),
(50,350,cs),
(50,559,o),
(186,708,o),
(380,708,cs),
(482,708,o),
(546,680,o),
(605,628,c),
(605,613,l),
(549,669,o),
(474,696,o),
(380,696,cs),
(194,696,o),
(62,553,o),
(62,350,cs)
);
},
{
closed = 1;
nodes = (
(386,-1,l),
(330,-77,l),
(356,-61,o),
(367,-53,o),
(400,-53,cs),
(433,-53,o),
(473,-78,o),
(473,-127,cs),
(473,-188,o),
(421,-221,o),
(366,-221,cs),
(329,-221,o),
(305,-211,o),
(277,-183,c),
(284,-177,l),
(312,-201,o),
(333,-211,o),
(366,-211,cs),
(413,-211,o),
(463,-183,o),
(463,-127,cs),
(463,-83,o),
(429,-63,o),
(400,-63,cs),
(370,-63,o),
(342,-73,o),
(319,-89,c),
(374,-1,l)
);
}
);
width = 685;
}
);
unicode = 199;
},
{
glyphname = Ccircumflex;
kernLeft = C;
lastChange = "2024-09-04 09:03:03 +0000";
layers = (
{
layerId = m001;
shapes = (
{
closed = 1;
nodes = (
(130,187,o),
(252,75,o),
(390,75,cs),
(489,75,o),
(566,117,o),
(615,179,c),
(615,67,l),
(556,15,o),
(492,-10,o),
(390,-10,cs),
(196,-10,o),
(40,141,o),
(40,350,cs),
(40,559,o),
(196,710,o),
(390,710,cs),
(492,710,o),
(556,685,o),
(615,633,c),
(615,521,l),
(566,583,o),
(489,625,o),
(390,625,cs),
(252,625,o),
(130,513,o),
(130,350,cs)
);
},
{
closed = 1;
nodes = (
(280,770,l),
(230,810,l),
(390,950,l),
(550,810,l),
(500,770,l),
(390,865,l)
);
}
);
width = 685;
},
{
layerId = "7E94446B-7650-4140-BC3E-80C3FEB621EC";
shapes = (
{
closed = 1;
nodes = (
(272,242,o),
(353,187,o),
(451,187,cs),
(550,187,o),
(606,231,o),
(650,273,c),
(650,47,l),
(595,9,o),
(537,-20,o),
(435,-20,cs),
(191,-20,o),
(30,126,o),
(30,350,cs),
(30,574,o),
(191,720,o),
(435,720,cs),
(537,720,o),
(595,691,o),
(650,653,c),
(650,427,l),
(606,469,o),
(550,513,o),
(451,513,cs),
(353,513,o),
(272,458,o),
(272,350,cs)
);
},
{
closed = 1;
nodes = (
(355,780,l),
(215,870,l),
(435,1010,l),
(655,870,l),
(515,780,l),
(435,860,l)
);
}
);
width = 710;
},
{
layerId = "F0B2A15B-B648-4C9E-81BA-2B413577DC71";
shapes = (
{
closed = 1;
nodes = (
(62,150,o),
(193,4,o),
(380,4,cs),
(479,4,o),
(547,31,o),
(605,88,c),
(605,72,l),
(546,20,o),
(482,-8,o),
(380,-8,cs),
(186,-8,o),
(50,141,o),
(50,350,cs),
(50,559,o),
(186,708,o),
(380,708,cs),
(482,708,o),
(546,680,o),
(605,628,c),
(605,613,l),
(549,669,o),
(474,696,o),
(380,696,cs),
(194,696,o),
(62,553,o),
(62,350,cs)
);
},
{
closed = 1;
nodes = (
(227,768,l),
(220,775,l),
(380,915,l),
(540,775,l),
(533,768,l),
(380,903,l)
);
}
);
width = 685;
}
);
unicode = 264;
},
{
glyphname = Cdotaccent;
kernLeft = C;
lastChange = "2024-09-04 09:03:03 +0000";
layers = (
{
layerId = m001;
shapes = (
{
closed = 1;
nodes = (
(130,187,o),
(252,75,o),
(390,75,cs),
(489,75,o),
(566,117,o),
(615,179,c),
(615,67,l),
(556,15,o),
(492,-10,o),
(390,-10,cs),
(196,-10,o),
(40,141,o),
(40,350,cs),
(40,559,o),
(196,710,o),
(390,710,cs),
(492,710,o),
(556,685,o),
(615,633,c),
(615,521,l),
(566,583,o),
(489,625,o),
(390,625,cs),
(252,625,o),
(130,513,o),
(130,350,cs)
);
},
{
closed = 1;
nodes = (
(335,855,o),
(360,880,o),
(390,880,cs),
(420,880,o),
(445,855,o),
(445,825,cs),
(445,795,o),
(420,770,o),
(390,770,cs),
(360,770,o),
(335,795,o),
(335,825,cs)
);
}
);
width = 685;
},
{
layerId = "7E94446B-7650-4140-BC3E-80C3FEB621EC";
shapes = (
{
closed = 1;
nodes = (
(272,242,o),
(353,187,o),
(451,187,cs),
(550,187,o),
(606,231,o),
(650,273,c),
(650,47,l),
(595,9,o),
(537,-20,o),
(435,-20,cs),
(191,-20,o),
(30,126,o),
(30,350,cs),
(30,574,o),
(191,720,o),
(435,720,cs),
(537,720,o),
(595,691,o),
(650,653,c),
(650,427,l),
(606,469,o),
(550,513,o),
(451,513,cs),
(353,513,o),
(272,458,o),
(272,350,cs)
);
},
{
closed = 1;
nodes = (
(287,937,o),
(335,976,o),
(395,976,cs),
(455,976,o),
(503,937,o),
(503,878,cs),
(503,819,o),
(455,780,o),
(395,780,cs),
(335,780,o),
(287,819,o),
(287,878,cs)
);
}
);
width = 710;
},
{
layerId = "F0B2A15B-B648-4C9E-81BA-2B413577DC71";
shapes = (
{
closed = 1;
nodes = (
(62,150,o),
(193,4,o),
(380,4,cs),
(479,4,o),
(547,31,o),
(605,88,c),
(605,72,l),
(546,20,o),
(482,-8,o),
(380,-8,cs),
(186,-8,o),
(50,141,o),
(50,350,cs),
(50,559,o),
(186,708,o),
(380,708,cs),
(482,708,o),
(546,680,o),
(605,628,c),
(605,613,l),
(549,669,o),
(474,696,o),
(380,696,cs),
(194,696,o),
(62,553,o),
(62,350,cs)
);
},
{
closed = 1;
nodes = (
(369,796,o),
(374,800,o),
(380,800,cs),
(386,800,o),
(391,796,o),
(391,789,cs),
(391,782,o),
(386,778,o),
(380,778,cs),
(374,778,o),
(369,782,o),
(369,789,cs)
);
}
);
width = 685;
}
);
unicode = 266;
},
{
glyphname = D;
kernRight = D;
lastChange = "2024-09-04 09:03:03 +0000";
layers = (
{
layerId = m001;
shapes = (
{
closed = 1;
nodes = (
(165,700,l),
(165,0,l),
(80,0,l),
(80,700,l)
);
},
{
closed = 1;
nodes = (
(127,0,l),
(127,85,l),
(290,85,ls),
(448,85,o),
(555,187,o),
(555,350,cs),
(555,513,o),
(448,615,o),
(290,615,cs),
(127,615,l),
(127,700,l),
(290,700,ls),
(494,700,o),
(640,559,o),
(640,350,cs),
(640,141,o),
(494,0,o),
(290,0,cs)
);
}
);
width = 680;
},
{
layerId = "7E94446B-7650-4140-BC3E-80C3FEB621EC";
shapes = (
{
closed = 1;
nodes = (
(299,700,l),
(299,0,l),
(70,0,l),
(70,700,l)
);
},
{
closed = 1;
nodes = (
(222,0,l),
(222,190,l),
(335,190,ls),
(413,190,o),
(505,207,o),
(505,350,cs),
(505,493,o),
(413,510,o),
(335,510,cs),
(222,510,l),
(222,700,l),
(345,700,ls),
(589,700,o),
(735,569,o),
(735,350,cs),
(735,131,o),
(589,0,o),
(345,0,cs)
);
}
);
width = 765;
},
{
layerId = "F0B2A15B-B648-4C9E-81BA-2B413577DC71";
shapes = (
{
closed = 1;
nodes = (
(101,700,l),
(101,0,l),
(90,0,l),
(90,700,l)
);
},
{
closed = 1;
nodes = (
(95,0,l),
(95,11,l),
(250,11,ls),
(450,11,o),
(574,146,o),
(574,350,cs),
(574,553,o),
(450,689,o),
(250,689,cs),
(95,689,l),
(95,700,l),
(250,700,ls),
(454,700,o),
(585,559,o),
(585,350,cs),
(585,141,o),
(454,0,o),
(250,0,cs)
);
}
);
width = 635;
}
);
unicode = 68;
},
{
glyphname = Dcaron;
kernRight = D;
lastChange = "2024-09-04 09:03:03 +0000";
layers = (
{
layerId = m001;
shapes = (
{
closed = 1;
nodes = (
(165,700,l),
(165,0,l),
(80,0,l),
(80,700,l)
);
},
{
closed = 1;
nodes = (
(127,0,l),
(127,85,l),
(290,85,ls),
(448,85,o),
(555,187,o),
(555,350,cs),
(555,513,o),
(448,615,o),
(290,615,cs),
(127,615,l),
(127,700,l),
(290,700,ls),
(494,700,o),
(640,559,o),
(640,350,cs),
(640,141,o),
(494,0,o),
(290,0,cs)
);
},
{
closed = 1;
nodes = (
(440,950,l),
(490,910,l),
(330,770,l),
(170,910,l),
(220,950,l),
(330,855,l)
);
}
);
width = 680;
},
{
layerId = "7E94446B-7650-4140-BC3E-80C3FEB621EC";
shapes = (
{
closed = 1;
nodes = (
(299,700,l),
(299,0,l),
(70,0,l),
(70,700,l)
);
},
{
closed = 1;
nodes = (
(222,0,l),
(222,190,l),
(335,190,ls),
(413,190,o),
(505,207,o),
(505,350,cs),
(505,493,o),
(413,510,o),
(335,510,cs),
(222,510,l),
(222,700,l),
(345,700,ls),
(589,700,o),
(735,569,o),
(735,350,cs),
(735,131,o),
(589,0,o),
(345,0,cs)
);
},
{
closed = 1;
nodes = (
(483,1010,l),
(623,920,l),
(403,780,l),
(183,920,l),
(323,1010,l),
(403,930,l)
);
}
);
width = 765;
},
{
layerId = "F0B2A15B-B648-4C9E-81BA-2B413577DC71";
shapes = (
{
closed = 1;
nodes = (
(101,700,l),
(101,0,l),
(90,0,l),
(90,700,l)
);
},
{
closed = 1;
nodes = (
(95,0,l),
(95,11,l),
(250,11,ls),
(450,11,o),
(574,146,o),
(574,350,cs),
(574,553,o),
(450,689,o),
(250,689,cs),
(95,689,l),
(95,700,l),
(250,700,ls),
(454,700,o),
(585,559,o),
(585,350,cs),
(585,141,o),
(454,0,o),
(250,0,cs)
);
},
{
closed = 1;
nodes = (
(470,946,l),
(478,938,l),
(318,798,l),
(158,938,l),
(166,946,l),
(318,810,l)
);
}
);
width = 635;
}
);
unicode = 270;
},
{
glyphname = Dcroat;
kernRight = D;
lastChange = "2024-09-04 09:03:03 +0000";
layers = (
{
layerId = m001;
shapes = (
{
closed = 1;
nodes = (
(5,385,l),
(305,385,l),
(305,310,l),
(5,310,l)
);
},
{
closed = 1;
nodes = (
(165,700,l),
(165,0,l),
(80,0,l),
(80,700,l)
);
},
{
closed = 1;
nodes = (
(127,0,l),
(127,85,l),
(290,85,ls),
(448,85,o),
(555,187,o),
(555,350,cs),
(555,513,o),
(448,615,o),
(290,615,cs),
(127,615,l),
(127,700,l),
(290,700,ls),
(494,700,o),
(640,559,o),
(640,350,cs),
(640,141,o),
(494,0,o),
(290,0,cs)
);
}
);
width = 680;
},
{
layerId = "7E94446B-7650-4140-BC3E-80C3FEB621EC";
shapes = (
{
closed = 1;
nodes = (
(5,405,l),
(375,405,l),
(375,290,l),
(5,290,l)
);
},
{
closed = 1;
nodes = (
(299,700,l),
(299,0,l),
(70,0,l),
(70,700,l)
);
},
{
closed = 1;
nodes = (
(222,0,l),
(222,190,l),
(335,190,ls),
(413,190,o),
(505,207,o),
(505,350,cs),
(505,493,o),
(413,510,o),
(335,510,cs),
(222,510,l),
(222,700,l),
(345,700,ls),
(589,700,o),
(735,569,o),
(735,350,cs),
(735,131,o),
(589,0,o),
(345,0,cs)
);
}
);
width = 765;
},
{
layerId = "F0B2A15B-B648-4C9E-81BA-2B413577DC71";
shapes = (
{
closed = 1;
nodes = (
(5,355,l),
(305,355,l),
(305,345,l),
(5,345,l)
);
},
{
closed = 1;
nodes = (
(101,700,l),
(101,0,l),
(90,0,l),
(90,700,l)
);
},
{
closed = 1;
nodes = (
(95,0,l),
(95,11,l),
(250,11,ls),
(448,11,o),
(574,147,o),
(574,350,cs),
(574,553,o),
(448,689,o),
(250,689,cs),
(95,689,l),
(95,700,l),
(250,700,ls),
(454,700,o),
(585,559,o),
(585,350,cs),
(585,141,o),
(454,0,o),
(250,0,cs)
);
}
);
width = 680;
}
);
unicode = 272;
},
{
glyphname = Eth;
kernRight = D;
lastChange = "2024-09-04 09:03:03 +0000";
layers = (
{
layerId = m001;
shapes = (
{
closed = 1;
nodes = (
(5,385,l),
(305,385,l),
(305,310,l),
(5,310,l)
);
},
{
closed = 1;
nodes = (
(165,700,l),
(165,0,l),
(80,0,l),
(80,700,l)
);
},
{
closed = 1;
nodes = (
(127,0,l),
(127,85,l),
(290,85,ls),
(448,85,o),
(555,187,o),
(555,350,cs),
(555,513,o),
(448,615,o),
(290,615,cs),
(127,615,l),
(127,700,l),
(290,700,ls),
(494,700,o),
(640,559,o),
(640,350,cs),
(640,141,o),
(494,0,o),
(290,0,cs)
);
}
);
width = 680;
},
{
layerId = "7E94446B-7650-4140-BC3E-80C3FEB621EC";
shapes = (
{
closed = 1;
nodes = (
(6,413,l),
(386,413,l),
(386,298,l),
(6,298,l)
);
},
{
closed = 1;
nodes = (
(299,700,l),
(299,0,l),
(70,0,l),
(70,700,l)
);
},
{
closed = 1;
nodes = (
(222,0,l),
(222,190,l),
(335,190,ls),
(413,190,o),
(505,207,o),
(505,350,cs),
(505,493,o),
(413,510,o),
(335,510,cs),
(222,510,l),
(222,700,l),
(345,700,ls),
(589,700,o),
(735,569,o),
(735,350,cs),
(735,131,o),
(589,0,o),
(345,0,cs)
);
}
);
width = 765;
},
{
layerId = "F0B2A15B-B648-4C9E-81BA-2B413577DC71";
shapes = (
{
closed = 1;
nodes = (
(5,355,l),
(305,355,l),
(305,345,l),
(5,345,l)
);
},
{
closed = 1;
nodes = (
(101,700,l),
(101,0,l),
(90,0,l),
(90,700,l)
);
},
{
closed = 1;
nodes = (
(95,0,l),
(95,11,l),
(250,11,ls),
(448,11,o),
(574,147,o),
(574,350,cs),
(574,553,o),
(448,689,o),
(250,689,cs),
(95,689,l),
(95,700,l),
(250,700,ls),
(454,700,o),
(585,559,o),
(585,350,cs),
(585,141,o),
(454,0,o),
(250,0,cs)
);
}
);
width = 680;
}
);
unicode = 208;
},
{
glyphname = E;
lastChange = "2024-09-04 09:03:03 +0000";
layers = (
{
layerId = m001;
shapes = (
{
closed = 1;
nodes = (
(127,80,l),
(480,80,l),
(480,0,l),
(127,0,l)
);
},
{
closed = 1;
nodes = (
(127,700,l),
(480,700,l),
(480,620,l),
(127,620,l)
);
},
{
closed = 1;
nodes = (
(127,420,l),
(460,420,l),
(460,340,l),
(127,340,l)
);
},
{
closed = 1;
nodes = (
(165,700,l),
(165,0,l),
(80,0,l),
(80,700,l)
);
}
);
width = 550;
},
{
layerId = "7E94446B-7650-4140-BC3E-80C3FEB621EC";
shapes = (
{
closed = 1;
nodes = (
(222,175,l),
(575,175,l),
(575,0,l),
(222,0,l)
);
},
{
closed = 1;
nodes = (
(222,700,l),
(575,700,l),
(575,525,l),
(222,525,l)
);
},
{
closed = 1;
nodes = (
(222,445,l),
(555,445,l),
(555,275,l),
(222,275,l)
);
},
{
closed = 1;
nodes = (
(280,700,l),
(280,0,l),
(70,0,l),
(70,700,l)
);
}
);
width = 635;
},
{
layerId = "F0B2A15B-B648-4C9E-81BA-2B413577DC71";
shapes = (
{
closed = 1;
nodes = (
(92,10,l),
(430,10,l),
(430,0,l),
(92,0,l)
);
},
{
closed = 1;
nodes = (
(92,700,l),
(430,700,l),
(430,690,l),
(92,690,l)
);
},
{
closed = 1;
nodes = (
(92,394,l),
(410,394,l),
(410,384,l),
(92,384,l)
);
},
{
closed = 1;
nodes = (
(101,700,l),
(101,0,l),
(90,0,l),
(90,700,l)
);
}
);
width = 510;
}
);
unicode = 69;
},
{
glyphname = Eacute;
lastChange = "2024-09-04 09:03:03 +0000";
layers = (
{
layerId = m001;
shapes = (
{
closed = 1;
nodes = (
(127,80,l),
(480,80,l),
(480,0,l),
(127,0,l)
);
},
{
closed = 1;
nodes = (
(127,700,l),
(480,700,l),
(480,620,l),
(127,620,l)
);
},
{
closed = 1;
nodes = (
(127,420,l),
(460,420,l),
(460,340,l),
(127,340,l)
);
},
{
closed = 1;
nodes = (
(165,700,l),
(165,0,l),
(80,0,l),
(80,700,l)
);
},
{
closed = 1;
nodes = (
(230,770,l),
(185,800,l),
(335,960,l),
(410,920,l)
);
}
);
width = 550;
},
{
layerId = "7E94446B-7650-4140-BC3E-80C3FEB621EC";
shapes = (
{
closed = 1;
nodes = (
(222,175,l),
(575,175,l),
(575,0,l),
(222,0,l)
);
},
{
closed = 1;
nodes = (
(222,700,l),
(575,700,l),
(575,525,l),
(222,525,l)
);
},
{
closed = 1;
nodes = (
(222,445,l),
(555,445,l),
(555,275,l),
(222,275,l)
);
},
{
closed = 1;
nodes = (
(280,700,l),
(280,0,l),
(70,0,l),
(70,700,l)
);
},
{
closed = 1;
nodes = (
(318,790,l),
(208,840,l),
(358,1000,l),
(498,940,l)
);
}
);
width = 635;
},
{
layerId = "F0B2A15B-B648-4C9E-81BA-2B413577DC71";
shapes = (
{
closed = 1;
nodes = (
(92,10,l),
(430,10,l),
(430,0,l),
(92,0,l)
);
},
{
closed = 1;
nodes = (
(92,700,l),
(430,700,l),
(430,690,l),
(92,690,l)
);
},
{
closed = 1;
nodes = (
(92,394,l),
(410,394,l),
(410,384,l),
(92,384,l)
);
},
{
closed = 1;
nodes = (
(101,700,l),
(101,0,l),
(90,0,l),
(90,700,l)
);
},
{
closed = 1;
nodes = (
(242,768,l),
(238,773,l),
(408,933,l),
(416,925,l)
);
}
);
width = 510;
}
);
unicode = 201;
},
{
glyphname = Ebreve;
lastChange = "2024-09-04 09:03:03 +0000";
layers = (
{
layerId = m001;
shapes = (
{
closed = 1;
nodes = (
(127,80,l),
(480,80,l),
(480,0,l),
(127,0,l)
);
},
{
closed = 1;
nodes = (
(127,700,l),
(480,700,l),
(480,620,l),
(127,620,l)
);
},
{
closed = 1;
nodes = (
(127,420,l),
(460,420,l),
(460,340,l),
(127,340,l)
);
},
{
closed = 1;
nodes = (
(165,700,l),
(165,0,l),
(80,0,l),
(80,700,l)
);
},
{
closed = 1;
nodes = (
(193,910,l),
(193,884,o),
(210,835,o),
(280,835,cs),
(350,835,o),
(367,884,o),
(367,910,c),
(438,910,l),
(438,841,o),
(385,770,o),
(280,770,cs),
(175,770,o),
(122,841,o),
(122,910,c)
);
}
);
width = 550;
},
{
layerId = "7E94446B-7650-4140-BC3E-80C3FEB621EC";
shapes = (
{
closed = 1;
nodes = (
(222,175,l),
(575,175,l),
(575,0,l),
(222,0,l)
);
},
{
closed = 1;
nodes = (
(222,700,l),
(575,700,l),
(575,525,l),
(222,525,l)
);
},
{
closed = 1;
nodes = (
(222,445,l),
(555,445,l),
(555,275,l),
(222,275,l)
);
},
{
closed = 1;
nodes = (
(280,700,l),
(280,0,l),
(70,0,l),
(70,700,l)
);
},
{
closed = 1;
nodes = (
(270,930,l),
(270,889,o),
(302,880,o),
(322,880,cs),
(342,880,o),
(374,889,o),
(374,930,c),
(490,930,l),
(490,841,o),
(427,780,o),
(322,780,cs),
(217,780,o),
(154,841,o),
(154,930,c)
);
}
);
width = 635;
},
{
layerId = "F0B2A15B-B648-4C9E-81BA-2B413577DC71";
shapes = (
{
closed = 1;
nodes = (
(92,10,l),
(430,10,l),
(430,0,l),
(92,0,l)
);
},
{
closed = 1;
nodes = (
(92,700,l),
(430,700,l),
(430,690,l),
(92,690,l)
);
},
{
closed = 1;
nodes = (
(92,394,l),
(410,394,l),
(410,384,l),
(92,384,l)
);
},
{
closed = 1;
nodes = (
(101,700,l),
(101,0,l),
(90,0,l),
(90,700,l)
);
},
{
closed = 1;
nodes = (
(122,908,l),
(122,842,o),
(178,778,o),
(270,778,cs),
(362,778,o),
(418,842,o),
(418,908,c),
(428,908,l),
(428,839,o),
(375,768,o),
(270,768,cs),
(165,768,o),
(112,839,o),
(112,908,c)
);
}
);
width = 510;
}
);
unicode = 276;
},
{
glyphname = Ecaron;
lastChange = "2024-09-04 09:03:03 +0000";
layers = (
{
layerId = m001;
shapes = (
{
closed = 1;
nodes = (
(127,80,l),
(480,80,l),
(480,0,l),
(127,0,l)
);
},
{
closed = 1;
nodes = (
(127,700,l),
(480,700,l),
(480,620,l),
(127,620,l)
);
},
{
closed = 1;
nodes = (
(127,420,l),
(460,420,l),
(460,340,l),
(127,340,l)
);
},
{
closed = 1;
nodes = (
(165,700,l),
(165,0,l),
(80,0,l),
(80,700,l)
);
},
{
closed = 1;
nodes = (
(390,950,l),
(440,910,l),
(280,770,l),
(120,910,l),
(170,950,l),
(280,855,l)
);
}
);
width = 550;
},
{
layerId = "7E94446B-7650-4140-BC3E-80C3FEB621EC";
shapes = (
{
closed = 1;
nodes = (
(222,175,l),
(575,175,l),
(575,0,l),
(222,0,l)
);
},
{
closed = 1;
nodes = (
(222,700,l),
(575,700,l),
(575,525,l),
(222,525,l)
);
},
{
closed = 1;
nodes = (
(222,445,l),
(555,445,l),
(555,275,l),
(222,275,l)
);
},
{
closed = 1;
nodes = (
(280,700,l),
(280,0,l),
(70,0,l),
(70,700,l)
);
},
{
closed = 1;
nodes = (
(402,1010,l),
(542,920,l),
(322,780,l),
(102,920,l),
(242,1010,l),
(322,930,l)
);
}
);
width = 635;
},
{
layerId = "F0B2A15B-B648-4C9E-81BA-2B413577DC71";
shapes = (
{
closed = 1;
nodes = (
(92,10,l),
(430,10,l),
(430,0,l),
(92,0,l)
);
},
{
closed = 1;
nodes = (
(92,700,l),
(430,700,l),
(430,690,l),
(92,690,l)
);
},
{
closed = 1;
nodes = (
(92,394,l),
(410,394,l),
(410,384,l),
(92,384,l)
);
},
{
closed = 1;
nodes = (
(101,700,l),
(101,0,l),
(90,0,l),
(90,700,l)
);
},
{
closed = 1;
nodes = (
(412,916,l),
(420,908,l),
(260,768,l),
(100,908,l),
(108,916,l),
(260,780,l)
);
}
);
width = 510;
}
);
unicode = 282;
},
{
glyphname = Ecircumflex;
lastChange = "2024-09-04 09:03:03 +0000";
layers = (
{
layerId = m001;
shapes = (
{
closed = 1;
nodes = (
(127,80,l),
(480,80,l),
(480,0,l),
(127,0,l)
);
},
{
closed = 1;
nodes = (
(127,700,l),
(480,700,l),
(480,620,l),
(127,620,l)
);
},
{
closed = 1;
nodes = (
(127,420,l),
(460,420,l),
(460,340,l),
(127,340,l)
);
},
{
closed = 1;
nodes = (
(165,700,l),
(165,0,l),
(80,0,l),
(80,700,l)
);
},
{
closed = 1;
nodes = (
(180,770,l),
(130,810,l),
(290,950,l),
(450,810,l),
(400,770,l),
(290,865,l)
);
}
);
width = 550;
},
{
layerId = "7E94446B-7650-4140-BC3E-80C3FEB621EC";
shapes = (
{
closed = 1;
nodes = (
(222,175,l),
(575,175,l),
(575,0,l),
(222,0,l)
);
},
{
closed = 1;
nodes = (
(222,700,l),
(575,700,l),
(575,525,l),
(222,525,l)
);
},
{
closed = 1;
nodes = (
(222,445,l),
(555,445,l),
(555,275,l),
(222,275,l)
);
},
{
closed = 1;
nodes = (
(280,700,l),
(280,0,l),
(70,0,l),
(70,700,l)
);
},
{
closed = 1;
nodes = (
(242,780,l),
(102,870,l),
(322,1010,l),
(542,870,l),
(402,780,l),
(322,860,l)
);
}
);
width = 635;
},
{
layerId = "F0B2A15B-B648-4C9E-81BA-2B413577DC71";
shapes = (
{
closed = 1;
nodes = (
(92,10,l),
(430,10,l),
(430,0,l),
(92,0,l)
);
},
{
closed = 1;
nodes = (
(92,700,l),
(430,700,l),
(430,690,l),
(92,690,l)
);
},
{
closed = 1;
nodes = (
(92,394,l),
(410,394,l),
(410,384,l),
(92,384,l)
);
},
{
closed = 1;
nodes = (
(101,700,l),
(101,0,l),
(90,0,l),
(90,700,l)
);
},
{
closed = 1;
nodes = (
(107,768,l),
(100,775,l),
(260,915,l),
(420,775,l),
(413,768,l),
(260,903,l)
);
}
);
width = 510;
}
);
unicode = 202;
},
{
glyphname = Edieresis;
lastChange = "2024-09-04 09:03:03 +0000";
layers = (
{
layerId = m001;
shapes = (
{
closed = 1;
nodes = (
(127,80,l),
(480,80,l),
(480,0,l),
(127,0,l)
);
},
{
closed = 1;
nodes = (
(127,700,l),
(480,700,l),
(480,620,l),
(127,620,l)
);
},
{
closed = 1;
nodes = (
(127,420,l),
(460,420,l),
(460,340,l),
(127,340,l)
);
},
{
closed = 1;
nodes = (
(165,700,l),
(165,0,l),
(80,0,l),
(80,700,l)
);
},
{
closed = 1;
nodes = (
(335,875,o),
(360,900,o),
(390,900,cs),
(420,900,o),
(445,875,o),
(445,845,cs),
(445,815,o),
(420,790,o),
(390,790,cs),
(360,790,o),
(335,815,o),
(335,845,cs)
);
},
{
closed = 1;
nodes = (
(135,875,o),
(160,900,o),
(190,900,cs),
(220,900,o),
(245,875,o),
(245,845,cs),
(245,815,o),
(220,790,o),
(190,790,cs),
(160,790,o),
(135,815,o),
(135,845,cs)
);
}
);
width = 550;
},
{
layerId = "7E94446B-7650-4140-BC3E-80C3FEB621EC";
shapes = (
{
closed = 1;
nodes = (
(222,175,l),
(575,175,l),
(575,0,l),
(222,0,l)
);
},
{
closed = 1;
nodes = (
(222,700,l),
(575,700,l),
(575,525,l),
(222,525,l)
);
},
{
closed = 1;
nodes = (
(222,445,l),
(555,445,l),
(555,275,l),
(222,275,l)
);
},
{
closed = 1;
nodes = (
(280,700,l),
(280,0,l),
(70,0,l),
(70,700,l)
);
},
{
closed = 1;
nodes = (
(350,937,o),
(398,976,o),
(458,976,cs),
(518,976,o),
(566,937,o),
(566,878,cs),
(566,819,o),
(518,780,o),
(458,780,cs),
(398,780,o),
(350,819,o),
(350,878,cs)
);
},
{
closed = 1;
nodes = (
(80,937,o),
(128,976,o),
(188,976,cs),
(248,976,o),
(296,937,o),
(296,878,cs),
(296,819,o),
(248,780,o),
(188,780,cs),
(128,780,o),
(80,819,o),
(80,878,cs)
);
}
);
width = 635;
},
{
layerId = "F0B2A15B-B648-4C9E-81BA-2B413577DC71";
shapes = (
{
closed = 1;
nodes = (
(92,10,l),
(430,10,l),
(430,0,l),
(92,0,l)
);
},
{
closed = 1;
nodes = (
(92,700,l),
(430,700,l),
(430,690,l),
(92,690,l)
);
},
{
closed = 1;
nodes = (
(92,394,l),
(410,394,l),
(410,384,l),
(92,384,l)
);
},
{
closed = 1;
nodes = (
(101,700,l),
(101,0,l),
(90,0,l),
(90,700,l)
);
},
{
closed = 1;
nodes = (
(349,806,o),
(354,810,o),
(360,810,cs),
(366,810,o),
(371,806,o),
(371,799,cs),
(371,792,o),
(366,788,o),
(360,788,cs),
(354,788,o),
(349,792,o),
(349,799,cs)
);
},
{
closed = 1;
nodes = (
(149,806,o),
(154,810,o),
(160,810,cs),
(166,810,o),
(171,806,o),
(171,799,cs),
(171,792,o),
(166,788,o),
(160,788,cs),
(154,788,o),
(149,792,o),
(149,799,cs)
);
}
);
width = 510;
}
);
unicode = 203;
},
{
glyphname = Edotaccent;
lastChange = "2024-09-04 09:03:03 +0000";
layers = (
{
layerId = m001;
shapes = (
{
closed = 1;
nodes = (
(127,80,l),
(480,80,l),
(480,0,l),
(127,0,l)
);
},
{
closed = 1;
nodes = (
(127,700,l),
(480,700,l),
(480,620,l),
(127,620,l)
);
},
{
closed = 1;
nodes = (
(127,420,l),
(460,420,l),
(460,340,l),
(127,340,l)
);
},
{
closed = 1;
nodes = (
(165,700,l),
(165,0,l),
(80,0,l),
(80,700,l)
);
},
{
closed = 1;
nodes = (
(225,855,o),
(250,880,o),
(280,880,cs),
(310,880,o),
(335,855,o),
(335,825,cs),
(335,795,o),
(310,770,o),
(280,770,cs),
(250,770,o),
(225,795,o),
(225,825,cs)
);
}
);
width = 550;
},
{
layerId = "7E94446B-7650-4140-BC3E-80C3FEB621EC";
shapes = (
{
closed = 1;
nodes = (
(222,175,l),
(575,175,l),
(575,0,l),
(222,0,l)
);
},
{
closed = 1;
nodes = (
(222,700,l),
(575,700,l),
(575,525,l),
(222,525,l)
);
},
{
closed = 1;
nodes = (
(222,445,l),
(555,445,l),
(555,275,l),
(222,275,l)
);
},
{
closed = 1;
nodes = (
(280,700,l),
(280,0,l),
(70,0,l),
(70,700,l)
);
},
{
closed = 1;
nodes = (
(214,937,o),
(262,976,o),
(322,976,cs),
(382,976,o),
(430,937,o),
(430,878,cs),
(430,819,o),
(382,780,o),
(322,780,cs),
(262,780,o),
(214,819,o),
(214,878,cs)
);
}
);
width = 635;
},
{
layerId = "F0B2A15B-B648-4C9E-81BA-2B413577DC71";
shapes = (
{
closed = 1;
nodes = (
(92,10,l),
(430,10,l),
(430,0,l),
(92,0,l)
);
},
{
closed = 1;
nodes = (
(92,700,l),
(430,700,l),
(430,690,l),
(92,690,l)
);
},
{
closed = 1;
nodes = (
(92,394,l),
(410,394,l),
(410,384,l),
(92,384,l)
);
},
{
closed = 1;
nodes = (
(101,700,l),
(101,0,l),
(90,0,l),
(90,700,l)
);
},
{
closed = 1;
nodes = (
(249,786,o),
(254,790,o),
(260,790,cs),
(266,790,o),
(271,786,o),
(271,779,cs),
(271,772,o),
(266,768,o),
(260,768,cs),
(254,768,o),
(249,772,o),
(249,779,cs)
);
}
);
width = 510;
}
);
unicode = 278;
},
{
glyphname = Egrave;
lastChange = "2024-09-04 09:03:03 +0000";
layers = (
{
layerId = m001;
shapes = (
{
closed = 1;
nodes = (
(127,80,l),
(480,80,l),
(480,0,l),
(127,0,l)
);
},
{
closed = 1;
nodes = (
(127,700,l),
(480,700,l),
(480,620,l),
(127,620,l)
);
},
{
closed = 1;
nodes = (
(127,420,l),
(460,420,l),
(460,340,l),
(127,340,l)
);
},
{
closed = 1;
nodes = (
(165,700,l),
(165,0,l),
(80,0,l),
(80,700,l)
);
},
{
closed = 1;
nodes = (
(225,960,l),
(375,800,l),
(330,770,l),
(150,920,l)
);
}
);
width = 550;
},
{
layerId = "7E94446B-7650-4140-BC3E-80C3FEB621EC";
shapes = (
{
closed = 1;
nodes = (
(222,175,l),
(575,175,l),
(575,0,l),
(222,0,l)
);
},
{
closed = 1;
nodes = (
(222,700,l),
(575,700,l),
(575,525,l),
(222,525,l)
);
},
{
closed = 1;
nodes = (
(222,445,l),
(555,445,l),
(555,275,l),
(222,275,l)
);
},
{
closed = 1;
nodes = (
(280,700,l),
(280,0,l),
(70,0,l),
(70,700,l)
);
},
{
closed = 1;
nodes = (
(282,1000,l),
(432,840,l),
(322,790,l),
(142,940,l)
);
}
);
width = 635;
},
{
layerId = "F0B2A15B-B648-4C9E-81BA-2B413577DC71";
shapes = (
{
closed = 1;
nodes = (
(92,10,l),
(430,10,l),
(430,0,l),
(92,0,l)
);
},
{
closed = 1;
nodes = (
(92,700,l),
(430,700,l),
(430,690,l),
(92,690,l)
);
},
{
closed = 1;
nodes = (
(92,394,l),
(410,394,l),
(410,384,l),
(92,384,l)
);
},
{
closed = 1;
nodes = (
(101,700,l),
(101,0,l),
(90,0,l),
(90,700,l)
);
},
{
closed = 1;
nodes = (
(112,933,l),
(282,773,l),
(278,768,l),
(104,925,l)
);
}
);
width = 510;
}
);
unicode = 200;
},
{
glyphname = Emacron;
lastChange = "2024-09-04 09:03:03 +0000";
layers = (
{
layerId = m001;
shapes = (
{
closed = 1;
nodes = (
(127,80,l),
(480,80,l),
(480,0,l),
(127,0,l)
);
},
{
closed = 1;
nodes = (
(127,700,l),
(480,700,l),
(480,620,l),
(127,620,l)
);
},
{
closed = 1;
nodes = (
(127,420,l),
(460,420,l),
(460,340,l),
(127,340,l)
);
},
{
closed = 1;
nodes = (
(165,700,l),
(165,0,l),
(80,0,l),
(80,700,l)
);
},
{
closed = 1;
nodes = (
(105,845,l),
(455,845,l),
(455,770,l),
(105,770,l)
);
}
);
width = 550;
},
{
layerId = "7E94446B-7650-4140-BC3E-80C3FEB621EC";
shapes = (
{
closed = 1;
nodes = (
(222,175,l),
(575,175,l),
(575,0,l),
(222,0,l)
);
},
{
closed = 1;
nodes = (
(222,700,l),
(575,700,l),
(575,525,l),
(222,525,l)
);
},
{
closed = 1;
nodes = (
(222,445,l),
(555,445,l),
(555,275,l),
(222,275,l)
);
},
{
closed = 1;
nodes = (
(280,700,l),
(280,0,l),
(70,0,l),
(70,700,l)
);
},
{
closed = 1;
nodes = (
(130,945,l),
(515,945,l),
(515,780,l),
(130,780,l)
);
}
);
width = 635;
},
{
layerId = "F0B2A15B-B648-4C9E-81BA-2B413577DC71";
shapes = (
{
closed = 1;
nodes = (
(92,10,l),
(430,10,l),
(430,0,l),
(92,0,l)
);
},
{
closed = 1;
nodes = (
(92,700,l),
(430,700,l),
(430,690,l),
(92,690,l)
);
},
{
closed = 1;
nodes = (
(92,394,l),
(410,394,l),
(410,384,l),
(92,384,l)
);
},
{
closed = 1;
nodes = (
(101,700,l),
(101,0,l),
(90,0,l),
(90,700,l)
);
},
{
closed = 1;
nodes = (
(105,845,l),
(455,845,l),
(455,835,l),
(105,835,l)
);
}
);
width = 510;
}
);
unicode = 274;
},
{
glyphname = Eogonek;
lastChange = "2024-09-04 09:03:03 +0000";
layers = (
{
layerId = m001;
shapes = (
{
closed = 1;
nodes = (
(127,80,l),
(480,80,l),
(480,0,l),
(127,0,l)
);
},
{
closed = 1;
nodes = (
(127,700,l),
(480,700,l),
(480,620,l),
(127,620,l)
);
},
{
closed = 1;
nodes = (
(127,420,l),
(460,420,l),
(460,340,l),
(127,340,l)
);
},
{
closed = 1;
nodes = (
(165,700,l),
(165,0,l),
(80,0,l),
(80,700,l)
);
},
{
closed = 1;
nodes = (
(398,-180,l),
(383,-200,o),
(353,-220,o),
(310,-220,cs),
(226,-220,o),
(187,-179,o),
(187,-120,cs),
(187,-61,o),
(249,-11,o),
(319,25,c),
(360,0,l),
(308,-22,o),
(267,-63,o),
(267,-100,cs),
(267,-136,o),
(285,-150,o),
(315,-150,cs),
(341,-150,o),
(351,-143,o),
(365,-130,c)
);
}
);
width = 550;
},
{
layerId = "7E94446B-7650-4140-BC3E-80C3FEB621EC";
shapes = (
{
closed = 1;
nodes = (
(222,175,l),
(575,175,l),
(575,0,l),
(222,0,l)
);
},
{
closed = 1;
nodes = (
(222,700,l),
(575,700,l),
(575,525,l),
(222,525,l)
);
},
{
closed = 1;
nodes = (
(222,445,l),
(555,445,l),
(555,275,l),
(222,275,l)
);
},
{
closed = 1;
nodes = (
(280,700,l),
(280,0,l),
(70,0,l),
(70,700,l)
);
},
{
closed = 1;
nodes = (
(453,-180,l),
(438,-200,o),
(408,-220,o),
(345,-220,cs),
(291,-220,o),
(232,-189,o),
(232,-120,cs),
(232,-51,o),
(304,-11,o),
(374,25,c),
(415,0,l),
(363,-32,o),
(342,-63,o),
(342,-90,cs),
(342,-108,o),
(350,-120,o),
(370,-120,cs),
(386,-120,o),
(406,-113,o),
(420,-100,c)
);
}
);
width = 635;
},
{
layerId = "F0B2A15B-B648-4C9E-81BA-2B413577DC71";
shapes = (
{
closed = 1;
nodes = (
(92,10,l),
(430,10,l),
(430,0,l),
(92,0,l)
);
},
{
closed = 1;
nodes = (
(92,700,l),
(430,700,l),
(430,690,l),
(92,690,l)
);
},
{
closed = 1;
nodes = (
(92,394,l),
(410,394,l),
(410,384,l),
(92,384,l)
);
},
{
closed = 1;
nodes = (
(101,700,l),
(101,0,l),
(90,0,l),
(90,700,l)
);
},
{
closed = 1;
nodes = (
(471,-180,l),
(456,-200,o),
(416,-220,o),
(373,-220,cs),
(309,-220,o),
(270,-189,o),
(270,-140,cs),
(270,-71,o),
(353,-26,o),
(423,10,c),
(430,0,l),
(362,-32,o),
(280,-83,o),
(280,-140,cs),
(280,-186,o),
(323,-210,o),
(373,-210,cs),
(413,-210,o),
(449,-191,o),
(464,-173,c)
);
}
);
width = 510;
}
);
unicode = 280;
},
{
glyphname = F;
kernRight = F;
lastChange = "2024-09-04 09:03:03 +0000";
layers = (
{
layerId = m001;
shapes = (
{
closed = 1;
nodes = (
(127,700,l),
(440,700,l),
(440,620,l),
(127,620,l)
);
},
{
closed = 1;
nodes = (
(127,420,l),
(430,420,l),
(430,340,l),
(127,340,l)
);
},
{
closed = 1;
nodes = (
(165,700,l),
(165,0,l),
(80,0,l),
(80,700,l)
);
}
);
width = 500;
},
{
layerId = "7E94446B-7650-4140-BC3E-80C3FEB621EC";
shapes = (
{
closed = 1;
nodes = (
(222,700,l),
(535,700,l),
(535,515,l),
(222,515,l)
);
},
{
closed = 1;
nodes = (
(222,415,l),
(525,415,l),
(525,245,l),
(222,245,l)
);
},
{
closed = 1;
nodes = (
(280,700,l),
(280,0,l),
(70,0,l),
(70,700,l)
);
}
);
width = 585;
},
{
layerId = "F0B2A15B-B648-4C9E-81BA-2B413577DC71";
shapes = (
{
closed = 1;
nodes = (
(93,700,l),
(390,700,l),
(390,689,l),
(93,689,l)
);
},
{
closed = 1;
nodes = (
(93,383,l),
(380,383,l),
(380,373,l),
(93,373,l)
);
},
{
closed = 1;
nodes = (
(101,700,l),
(101,0,l),
(90,0,l),
(90,700,l)
);
}
);
width = 450;
}
);
unicode = 70;
},
{
glyphname = G;
kernLeft = C;
kernRight = D;
lastChange = "2024-09-04 09:03:03 +0000";
layers = (
{
layerId = m001;
shapes = (
{
closed = 1;
nodes = (
(405,355,l),
(730,355,l),
(730,161,o),
(609,-10,o),
(395,-10,cs),
(191,-10,o),
(40,141,o),
(40,350,cs),
(40,559,o),
(191,710,o),
(395,710,cs),
(524,710,o),
(626,658,o),
(686,561,c),
(626,506,l),
(582,580,o),
(502,625,o),
(395,625,cs),
(247,625,o),
(130,513,o),
(130,350,cs),
(130,187,o),
(247,75,o),
(395,75,cs),
(534,75,o),
(615,166,o),
(638,275,c),
(405,275,l)
);
}
);
width = 775;
},
{
layerId = "7E94446B-7650-4140-BC3E-80C3FEB621EC";
shapes = (
{
closed = 1;
nodes = (
(430,400,l),
(802,400,l),
(822,161,o),
(684,-30,o),
(430,-30,cs),
(196,-30,o),
(30,121,o),
(30,350,cs),
(30,579,o),
(206,720,o),
(440,720,cs),
(599,720,o),
(701,641,o),
(771,544,c),
(566,452,l),
(542,496,o),
(507,535,o),
(440,535,cs),
(342,535,o),
(260,473,o),
(260,350,cs),
(260,227,o),
(332,155,o),
(440,155,cs),
(521,155,o),
(564,188,o),
(588,240,c),
(430,240,l)
);
}
);
width = 838;
},
{
layerId = "F0B2A15B-B648-4C9E-81BA-2B413577DC71";
shapes = (
{
closed = 1;
nodes = (
(420,340,l),
(710,340,l),
(710,156,o),
(584,-8,o),
(390,-8,cs),
(196,-8,o),
(50,141,o),
(50,350,cs),
(50,559,o),
(196,708,o),
(390,708,cs),
(519,708,o),
(608,643,o),
(668,556,c),
(658,550,l),
(608,633,o),
(512,697,o),
(390,697,cs),
(199,697,o),
(61,553,o),
(61,350,cs),
(61,150,o),
(198,3,o),
(390,3,cs),
(574,3,o),
(695,155,o),
(699,330,c),
(420,330,l)
);
}
);
width = 765;
}
);
unicode = 71;
},
{
glyphname = Gbreve;
kernLeft = C;
kernRight = D;
lastChange = "2024-09-04 09:03:03 +0000";
layers = (
{
layerId = m001;
shapes = (
{
closed = 1;
nodes = (
(405,355,l),
(730,355,l),
(730,161,o),
(609,-10,o),
(395,-10,cs),
(191,-10,o),
(40,141,o),
(40,350,cs),
(40,559,o),
(191,710,o),
(395,710,cs),
(524,710,o),
(626,658,o),
(686,561,c),
(626,506,l),
(582,580,o),
(502,625,o),
(395,625,cs),
(247,625,o),
(130,513,o),
(130,350,cs),
(130,187,o),
(247,75,o),
(395,75,cs),
(534,75,o),
(615,166,o),
(638,275,c),
(405,275,l)
);
},
{
closed = 1;
nodes = (
(308,910,l),
(308,884,o),
(325,835,o),
(395,835,cs),
(465,835,o),
(482,884,o),
(482,910,c),
(553,910,l),
(553,841,o),
(500,770,o),
(395,770,cs),
(290,770,o),
(237,841,o),
(237,910,c)
);
}
);
width = 775;
},
{
layerId = "7E94446B-7650-4140-BC3E-80C3FEB621EC";
shapes = (
{
closed = 1;
nodes = (
(430,400,l),
(802,400,l),
(822,161,o),
(684,-30,o),
(430,-30,cs),
(196,-30,o),
(30,121,o),
(30,350,cs),
(30,579,o),
(206,720,o),
(440,720,cs),
(599,720,o),
(701,641,o),
(771,544,c),
(566,452,l),
(542,496,o),
(507,535,o),
(440,535,cs),
(342,535,o),
(260,473,o),
(260,350,cs),
(260,227,o),
(332,155,o),
(440,155,cs),
(521,155,o),
(564,188,o),
(588,240,c),
(430,240,l)
);
},
{
closed = 1;
nodes = (
(388,930,l),
(388,889,o),
(420,880,o),
(440,880,cs),
(460,880,o),
(492,889,o),
(492,930,c),
(608,930,l),
(608,841,o),
(545,780,o),
(440,780,cs),
(335,780,o),
(272,841,o),
(272,930,c)
);
}
);
width = 838;
},
{
layerId = "F0B2A15B-B648-4C9E-81BA-2B413577DC71";
shapes = (
{
closed = 1;
nodes = (
(420,340,l),
(710,340,l),
(710,156,o),
(584,-8,o),
(390,-8,cs),
(196,-8,o),
(50,141,o),
(50,350,cs),
(50,559,o),
(196,708,o),
(390,708,cs),
(519,708,o),
(608,643,o),
(668,556,c),
(658,550,l),
(608,633,o),
(512,697,o),
(390,697,cs),
(199,697,o),
(61,553,o),
(61,350,cs),
(61,150,o),
(198,3,o),
(390,3,cs),
(574,3,o),
(695,155,o),
(699,330,c),
(420,330,l)
);
},
{
closed = 1;
nodes = (
(242,908,l),
(242,842,o),
(298,778,o),
(390,778,cs),
(482,778,o),
(538,842,o),
(538,908,c),
(548,908,l),
(548,839,o),
(495,768,o),
(390,768,cs),
(285,768,o),
(232,839,o),
(232,908,c)
);
}
);
width = 765;
}
);
unicode = 286;
},
{
glyphname = Gcircumflex;
kernLeft = C;
kernRight = D;
lastChange = "2024-09-04 09:03:03 +0000";
layers = (
{
layerId = m001;
shapes = (
{
closed = 1;
nodes = (
(405,355,l),
(730,355,l),
(730,161,o),
(609,-10,o),
(395,-10,cs),
(191,-10,o),
(40,141,o),
(40,350,cs),
(40,559,o),
(191,710,o),
(395,710,cs),
(524,710,o),
(626,658,o),
(686,561,c),
(626,506,l),
(582,580,o),
(502,625,o),
(395,625,cs),
(247,625,o),
(130,513,o),
(130,350,cs),
(130,187,o),
(247,75,o),
(395,75,cs),
(534,75,o),
(615,166,o),
(638,275,c),
(405,275,l)
);
},
{
closed = 1;
nodes = (
(285,770,l),
(235,810,l),
(395,950,l),
(555,810,l),
(505,770,l),
(395,865,l)
);
}
);
width = 775;
},
{
layerId = "7E94446B-7650-4140-BC3E-80C3FEB621EC";
shapes = (
{
closed = 1;
nodes = (
(430,400,l),
(802,400,l),
(822,161,o),
(684,-30,o),
(430,-30,cs),
(196,-30,o),
(30,121,o),
(30,350,cs),
(30,579,o),
(206,720,o),
(440,720,cs),
(599,720,o),
(701,641,o),
(771,544,c),
(566,452,l),
(542,496,o),
(507,535,o),
(440,535,cs),
(342,535,o),
(260,473,o),
(260,350,cs),
(260,227,o),
(332,155,o),
(440,155,cs),
(521,155,o),
(564,188,o),
(588,240,c),
(430,240,l)
);
},
{
closed = 1;
nodes = (
(360,780,l),
(220,870,l),
(440,1010,l),
(660,870,l),
(520,780,l),
(440,860,l)
);
}
);
width = 838;
},
{
layerId = "F0B2A15B-B648-4C9E-81BA-2B413577DC71";
shapes = (
{
closed = 1;
nodes = (
(420,340,l),
(710,340,l),
(710,156,o),
(584,-8,o),
(390,-8,cs),
(196,-8,o),
(50,141,o),
(50,350,cs),
(50,559,o),
(196,708,o),
(390,708,cs),
(519,708,o),
(608,643,o),
(668,556,c),
(658,550,l),
(608,633,o),
(512,697,o),
(390,697,cs),
(199,697,o),
(61,553,o),
(61,350,cs),
(61,150,o),
(198,3,o),
(390,3,cs),
(574,3,o),
(695,155,o),
(699,330,c),
(420,330,l)
);
},
{
closed = 1;
nodes = (
(237,768,l),
(230,775,l),
(390,915,l),
(550,775,l),
(543,768,l),
(390,903,l)
);
}
);
width = 765;
}
);
unicode = 284;
},
{
glyphname = Gcommaaccent;
lastChange = "2024-09-04 09:03:03 +0000";
layers = (
{
layerId = m001;
shapes = (
{
closed = 1;
nodes = (
(405,355,l),
(730,355,l),
(730,161,o),
(609,-10,o),
(395,-10,cs),
(191,-10,o),
(40,141,o),
(40,350,cs),
(40,559,o),
(191,710,o),
(395,710,cs),
(524,710,o),
(626,658,o),
(686,561,c),
(626,506,l),
(582,580,o),
(502,625,o),
(395,625,cs),
(247,625,o),
(130,513,o),
(130,350,cs),
(130,187,o),
(247,75,o),
(395,75,cs),
(534,75,o),
(615,166,o),
(638,275,c),
(405,275,l)
);
},
{
closed = 1;
nodes = (
(479,-100,l),
(369,-350,l),
(311,-329,l),
(399,-70,l)
);
}
);
width = 775;
},
{
layerId = "7E94446B-7650-4140-BC3E-80C3FEB621EC";
shapes = (
{
closed = 1;
nodes = (
(430,400,l),
(802,400,l),
(822,161,o),
(684,-30,o),
(430,-30,cs),
(196,-30,o),
(30,121,o),
(30,350,cs),
(30,579,o),
(206,720,o),
(440,720,cs),
(599,720,o),
(701,641,o),
(771,544,c),
(566,452,l),
(542,496,o),
(507,535,o),
(440,535,cs),
(342,535,o),
(260,473,o),
(260,350,cs),
(260,227,o),
(332,155,o),
(440,155,cs),
(521,155,o),
(564,188,o),
(588,240,c),
(430,240,l)
);
},
{
closed = 1;
nodes = (
(522,-124,l),
(387,-374,l),
(239,-349,l),
(327,-90,l)
);
}
);
width = 838;
},
{
layerId = "F0B2A15B-B648-4C9E-81BA-2B413577DC71";
shapes = (
{
closed = 1;
nodes = (
(420,340,l),
(710,340,l),
(710,156,o),
(584,-8,o),
(390,-8,cs),
(196,-8,o),
(50,141,o),
(50,350,cs),
(50,559,o),
(196,708,o),
(390,708,cs),
(519,708,o),
(608,643,o),
(668,556,c),
(658,550,l),
(608,633,o),
(512,697,o),
(390,697,cs),
(199,697,o),
(61,553,o),
(61,350,cs),
(61,150,o),
(198,3,o),
(390,3,cs),
(574,3,o),
(695,155,o),
(699,330,c),
(420,330,l)
);
},
{
closed = 1;
nodes = (
(448,-73,l),
(338,-323,l),
(332,-321,l),
(437,-68,l)
);
}
);
width = 765;
}
);
unicode = 290;
},
{
glyphname = Gdotaccent;
kernLeft = C;
kernRight = D;
lastChange = "2024-09-04 09:03:03 +0000";
layers = (
{
layerId = m001;
shapes = (
{
closed = 1;
nodes = (
(405,355,l),
(730,355,l),
(730,161,o),
(609,-10,o),
(395,-10,cs),
(191,-10,o),
(40,141,o),
(40,350,cs),
(40,559,o),
(191,710,o),
(395,710,cs),
(524,710,o),
(626,658,o),
(686,561,c),
(626,506,l),
(582,580,o),
(502,625,o),
(395,625,cs),
(247,625,o),
(130,513,o),
(130,350,cs),
(130,187,o),
(247,75,o),
(395,75,cs),
(534,75,o),
(615,166,o),
(638,275,c),
(405,275,l)
);
},
{
closed = 1;
nodes = (
(340,855,o),
(365,880,o),
(395,880,cs),
(425,880,o),
(450,855,o),
(450,825,cs),
(450,795,o),
(425,770,o),
(395,770,cs),
(365,770,o),
(340,795,o),
(340,825,cs)
);
}
);
width = 775;
},
{
layerId = "7E94446B-7650-4140-BC3E-80C3FEB621EC";
shapes = (
{
closed = 1;
nodes = (
(430,400,l),
(802,400,l),
(822,161,o),
(684,-30,o),
(430,-30,cs),
(196,-30,o),
(30,121,o),
(30,350,cs),
(30,579,o),
(206,720,o),
(440,720,cs),
(599,720,o),
(701,641,o),
(771,544,c),
(566,452,l),
(542,496,o),
(507,535,o),
(440,535,cs),
(342,535,o),
(260,473,o),
(260,350,cs),
(260,227,o),
(332,155,o),
(440,155,cs),
(521,155,o),
(564,188,o),
(588,240,c),
(430,240,l)
);
},
{
closed = 1;
nodes = (
(332,937,o),
(380,976,o),
(440,976,cs),
(500,976,o),
(548,937,o),
(548,878,cs),
(548,819,o),
(500,780,o),
(440,780,cs),
(380,780,o),
(332,819,o),
(332,878,cs)
);
}
);
width = 838;
},
{
layerId = "F0B2A15B-B648-4C9E-81BA-2B413577DC71";
shapes = (
{
closed = 1;
nodes = (
(420,340,l),
(710,340,l),
(710,156,o),
(584,-8,o),
(390,-8,cs),
(196,-8,o),
(50,141,o),
(50,350,cs),
(50,559,o),
(196,708,o),
(390,708,cs),
(519,708,o),
(608,643,o),
(668,556,c),
(658,550,l),
(608,633,o),
(512,697,o),
(390,697,cs),
(199,697,o),
(61,553,o),
(61,350,cs),
(61,150,o),
(198,3,o),
(390,3,cs),
(574,3,o),
(695,155,o),
(699,330,c),
(420,330,l)
);
},
{
closed = 1;
nodes = (
(379,786,o),
(384,790,o),
(390,790,cs),
(396,790,o),
(401,786,o),
(401,779,cs),
(401,772,o),
(396,768,o),
(390,768,cs),
(384,768,o),
(379,772,o),
(379,779,cs)
);
}
);
width = 765;
}
);
unicode = 288;
},
{
glyphname = H;
lastChange = "2024-09-04 09:03:03 +0000";
layers = (
{
layerId = m001;
shapes = (
{
closed = 1;
nodes = (
(127,420,l),
(607,420,l),
(607,340,l),
(127,340,l)
);
},
{
closed = 1;
nodes = (
(635,700,l),
(635,0,l),
(550,0,l),
(550,700,l)
);
},
{
closed = 1;
nodes = (
(165,700,l),
(165,0,l),
(80,0,l),
(80,700,l)
);
}
);
width = 715;
},
{
layerId = "7E94446B-7650-4140-BC3E-80C3FEB621EC";
shapes = (
{
closed = 1;
nodes = (
(117,460,l),
(677,460,l),
(677,265,l),
(117,265,l)
);
},
{
closed = 1;
nodes = (
(760,700,l),
(760,0,l),
(540,0,l),
(540,700,l)
);
},
{
closed = 1;
nodes = (
(290,700,l),
(290,0,l),
(70,0,l),
(70,700,l)
);
}
);
width = 830;
},
{
layerId = "F0B2A15B-B648-4C9E-81BA-2B413577DC71";
shapes = (
{
closed = 1;
nodes = (
(93,387,l),
(553,387,l),
(553,377,l),
(93,377,l)
);
},
{
closed = 1;
nodes = (
(557,700,l),
(557,0,l),
(546,0,l),
(546,700,l)
);
},
{
closed = 1;
nodes = (
(101,700,l),
(101,0,l),
(90,0,l),
(90,700,l)
);
}
);
width = 647;
}
);
unicode = 72;
},
{
glyphname = Hbar;
lastChange = "2024-09-04 09:03:03 +0000";
layers = (
{
layerId = m001;
shapes = (
{
closed = 1;
nodes = (
(127,420,l),
(607,420,l),
(607,340,l),
(127,340,l)
);
},
{
closed = 1;
nodes = (
(635,700,l),
(635,0,l),
(550,0,l),
(550,700,l)
);
},
{
closed = 1;
nodes = (
(165,700,l),
(165,0,l),
(80,0,l),
(80,700,l)
);
},
{
closed = 1;
nodes = (
(5,615,l),
(710,615,l),
(710,540,l),
(5,540,l)
);
}
);
width = 715;
},
{
layerId = "7E94446B-7650-4140-BC3E-80C3FEB621EC";
shapes = (
{
closed = 1;
nodes = (
(117,460,l),
(677,460,l),
(677,265,l),
(117,265,l)
);
},
{
closed = 1;
nodes = (
(760,700,l),
(760,0,l),
(540,0,l),
(540,700,l)
);
},
{
closed = 1;
nodes = (
(290,700,l),
(290,0,l),
(70,0,l),
(70,700,l)
);
},
{
closed = 1;
nodes = (
(5,660,l),
(825,660,l),
(825,535,l),
(5,535,l)
);
}
);
width = 830;
},
{
layerId = "F0B2A15B-B648-4C9E-81BA-2B413577DC71";
shapes = (
{
closed = 1;
nodes = (
(93,387,l),
(553,387,l),
(553,377,l),
(93,377,l)
);
},
{
closed = 1;
nodes = (
(557,700,l),
(557,0,l),
(546,0,l),
(546,700,l)
);
},
{
closed = 1;
nodes = (
(101,700,l),
(101,0,l),
(90,0,l),
(90,700,l)
);
},
{
closed = 1;
nodes = (
(5,615,l),
(642,615,l),
(642,605,l),
(5,605,l)
);
}
);
width = 647;
}
);
unicode = 294;
},
{
glyphname = Hcircumflex;
lastChange = "2024-09-04 09:03:03 +0000";
layers = (
{
layerId = m001;
shapes = (
{
closed = 1;
nodes = (
(127,420,l),
(607,420,l),
(607,340,l),
(127,340,l)
);
},
{
closed = 1;
nodes = (
(635,700,l),
(635,0,l),
(550,0,l),
(550,700,l)
);
},
{
closed = 1;
nodes = (
(165,700,l),
(165,0,l),
(80,0,l),
(80,700,l)
);
},
{
closed = 1;
nodes = (
(248,770,l),
(198,810,l),
(358,950,l),
(518,810,l),
(468,770,l),
(358,865,l)
);
}
);
width = 715;
},
{
layerId = "7E94446B-7650-4140-BC3E-80C3FEB621EC";
shapes = (
{
closed = 1;
nodes = (
(117,460,l),
(677,460,l),
(677,265,l),
(117,265,l)
);
},
{
closed = 1;
nodes = (
(760,700,l),
(760,0,l),
(540,0,l),
(540,700,l)
);
},
{
closed = 1;
nodes = (
(290,700,l),
(290,0,l),
(70,0,l),
(70,700,l)
);
},
{
closed = 1;
nodes = (
(335,780,l),
(195,870,l),
(415,1010,l),
(635,870,l),
(495,780,l),
(415,860,l)
);
}
);
width = 830;
},
{
layerId = "F0B2A15B-B648-4C9E-81BA-2B413577DC71";
shapes = (
{
closed = 1;
nodes = (
(93,387,l),
(553,387,l),
(553,377,l),
(93,377,l)
);
},
{
closed = 1;
nodes = (
(557,700,l),
(557,0,l),
(546,0,l),
(546,700,l)
);
},
{
closed = 1;
nodes = (
(101,700,l),
(101,0,l),
(90,0,l),
(90,700,l)
);
},
{
closed = 1;
nodes = (
(170,768,l),
(164,775,l),
(324,915,l),
(484,775,l),
(476,768,l),
(324,903,l)
);
}
);
width = 647;
}
);
unicode = 292;
},
{
glyphname = I;
lastChange = "2024-09-04 09:03:03 +0000";
layers = (
{
layerId = m001;
shapes = (
{
closed = 1;
nodes = (
(165,700,l),
(165,0,l),
(80,0,l),
(80,700,l)
);
}
);
width = 245;
},
{
layerId = "7E94446B-7650-4140-BC3E-80C3FEB621EC";
shapes = (
{
closed = 1;
nodes = (
(295,700,l),
(295,0,l),
(70,0,l),
(70,700,l)
);
}
);
width = 365;
},
{
layerId = "F0B2A15B-B648-4C9E-81BA-2B413577DC71";
shapes = (
{
closed = 1;
nodes = (
(95,700,l),
(95,0,l),
(85,0,l),
(85,700,l)
);
}
);
width = 180;
}
);
unicode = 73;
},
{
glyphname = IJ;
lastChange = "2024-09-04 09:03:03 +0000";
layers = (
{
layerId = m001;
shapes = (
{
closed = 1;
nodes = (
(197,-127,o),
(226,-140,o),
(262,-140,cs),
(292,-140,o),
(330,-116,o),
(330,-50,cs),
(330,700,l),
(410,700,l),
(410,-60,ls),
(410,-169,o),
(351,-220,o),
(257,-220,cs),
(204,-220,o),
(154,-190,o),
(139,-170,c),
(183,-104,l)
);
},
{
closed = 1;
nodes = (
(165,700,l),
(165,0,l),
(80,0,l),
(80,700,l)
);
}
);
width = 490;
},
{
layerId = "7E94446B-7650-4140-BC3E-80C3FEB621EC";
shapes = (
{
closed = 1;
nodes = (
(269,-54,o),
(301,-70,o),
(327,-70,cs),
(357,-70,o),
(390,-51,o),
(390,5,cs),
(390,700,l),
(635,700,l),
(635,-50,ls),
(635,-199,o),
(501,-250,o),
(357,-250,cs),
(264,-250,o),
(179,-220,o),
(124,-190,c),
(245,-39,l)
);
},
{
closed = 1;
nodes = (
(295,700,l),
(295,0,l),
(70,0,l),
(70,700,l)
);
}
);
width = 705;
},
{
layerId = "F0B2A15B-B648-4C9E-81BA-2B413577DC71";
shapes = (
{
closed = 1;
nodes = (
(147,-182,o),
(187,-209,o),
(233,-209,cs),
(322,-209,o),
(346,-166,o),
(346,-50,cs),
(346,700,l),
(357,700,l),
(357,-60,ls),
(357,-169,o),
(328,-220,o),
(234,-220,cs),
(181,-220,o),
(131,-185,o),
(116,-165,c),
(123,-158,l)
);
},
{
closed = 1;
nodes = (
(95,700,l),
(95,0,l),
(85,0,l),
(85,700,l)
);
}
);
width = 490;
}
);
unicode = 306;
},
{
glyphname = Iacute;
lastChange = "2024-09-04 09:03:03 +0000";
layers = (
{
layerId = m001;
shapes = (
{
closed = 1;
nodes = (
(165,700,l),
(165,0,l),
(80,0,l),
(80,700,l)
);
},
{
closed = 1;
nodes = (
(72,770,l),
(28,800,l),
(178,960,l),
(252,920,l)
);
}
);
width = 245;
},
{
layerId = "7E94446B-7650-4140-BC3E-80C3FEB621EC";
shapes = (
{
closed = 1;
nodes = (
(295,700,l),
(295,0,l),
(70,0,l),
(70,700,l)
);
},
{
closed = 1;
nodes = (
(168,790,l),
(58,840,l),
(208,1000,l),
(348,940,l)
);
}
);
width = 365;
},
{
layerId = "F0B2A15B-B648-4C9E-81BA-2B413577DC71";
shapes = (
{
closed = 1;
nodes = (
(95,700,l),
(95,0,l),
(85,0,l),
(85,700,l)
);
},
{
closed = 1;
nodes = (
(72,768,l),
(68,773,l),
(238,933,l),
(246,925,l)
);
}
);
width = 180;
}
);
unicode = 205;
},
{
glyphname = Ibreve;
lastChange = "2024-09-04 09:03:03 +0000";
layers = (
{
layerId = m001;
shapes = (
{
closed = 1;
nodes = (
(165,700,l),
(165,0,l),
(80,0,l),
(80,700,l)
);
},
{
closed = 1;
nodes = (
(36,910,l),
(36,884,o),
(53,835,o),
(123,835,cs),
(193,835,o),
(210,884,o),
(210,910,c),
(281,910,l),
(281,841,o),
(228,770,o),
(123,770,cs),
(18,770,o),
(-35,841,o),
(-35,910,c)
);
}
);
width = 245;
},
{
layerId = "7E94446B-7650-4140-BC3E-80C3FEB621EC";
shapes = (
{
closed = 1;
nodes = (
(295,700,l),
(295,0,l),
(70,0,l),
(70,700,l)
);
},
{
closed = 1;
nodes = (
(130,930,l),
(130,889,o),
(162,880,o),
(182,880,cs),
(202,880,o),
(234,889,o),
(234,930,c),
(350,930,l),
(350,841,o),
(287,780,o),
(182,780,cs),
(77,780,o),
(14,841,o),
(14,930,c)
);
}
);
width = 365;
},
{
layerId = "F0B2A15B-B648-4C9E-81BA-2B413577DC71";
shapes = (
{
closed = 1;
nodes = (
(95,700,l),
(95,0,l),
(85,0,l),
(85,700,l)
);
},
{
closed = 1;
nodes = (
(-60,910,l),
(-60,844,o),
(-4,780,o),
(88,780,cs),
(180,780,o),
(236,844,o),
(236,910,c),
(246,910,l),
(246,841,o),
(193,770,o),
(88,770,cs),
(-17,770,o),
(-70,841,o),
(-70,910,c)
);
}
);
width = 180;
}
);
unicode = 300;
},
{
glyphname = Icircumflex;
lastChange = "2024-09-04 09:03:03 +0000";
layers = (
{
layerId = m001;
shapes = (
{
closed = 1;
nodes = (
(165,700,l),
(165,0,l),
(80,0,l),
(80,700,l)
);
},
{
closed = 1;
nodes = (
(12,770,l),
(-38,810,l),
(122,950,l),
(282,810,l),
(232,770,l),
(122,865,l)
);
}
);
width = 245;
},
{
layerId = "7E94446B-7650-4140-BC3E-80C3FEB621EC";
shapes = (
{
closed = 1;
nodes = (
(295,700,l),
(295,0,l),
(70,0,l),
(70,700,l)
);
},
{
closed = 1;
nodes = (
(103,780,l),
(-37,870,l),
(183,1010,l),
(403,870,l),
(263,780,l),
(183,860,l)
);
}
);
width = 365;
},
{
layerId = "F0B2A15B-B648-4C9E-81BA-2B413577DC71";
shapes = (
{
closed = 1;
nodes = (
(95,700,l),
(95,0,l),
(85,0,l),
(85,700,l)
);
},
{
closed = 1;
nodes = (
(-63,768,l),
(-70,775,l),
(90,915,l),
(250,775,l),
(243,768,l),
(90,903,l)
);
}
);
width = 180;
}
);
unicode = 206;
},
{
glyphname = Idieresis;
lastChange = "2024-09-04 09:03:03 +0000";
layers = (
{
layerId = m001;
shapes = (
{
closed = 1;
nodes = (
(165,700,l),
(165,0,l),
(80,0,l),
(80,700,l)
);
},
{
closed = 1;
nodes = (
(168,855,o),
(192,880,o),
(222,880,cs),
(252,880,o),
(278,855,o),
(278,825,cs),
(278,795,o),
(252,770,o),
(222,770,cs),
(192,770,o),
(168,795,o),
(168,825,cs)
);
},
{
closed = 1;
nodes = (
(-32,855,o),
(-8,880,o),
(22,880,cs),
(52,880,o),
(78,855,o),
(78,825,cs),
(78,795,o),
(52,770,o),
(22,770,cs),
(-8,770,o),
(-32,795,o),
(-32,825,cs)
);
}
);
width = 245;
},
{
layerId = "7E94446B-7650-4140-BC3E-80C3FEB621EC";
shapes = (
{
closed = 1;
nodes = (
(295,700,l),
(295,0,l),
(70,0,l),
(70,700,l)
);
},
{
closed = 1;
nodes = (
(210,937,o),
(258,976,o),
(318,976,cs),
(378,976,o),
(426,937,o),
(426,878,cs),
(426,819,o),
(378,780,o),
(318,780,cs),
(258,780,o),
(210,819,o),
(210,878,cs)
);
},
{
closed = 1;
nodes = (
(-60,937,o),
(-12,976,o),
(48,976,cs),
(108,976,o),
(156,937,o),
(156,878,cs),
(156,819,o),
(108,780,o),
(48,780,cs),
(-12,780,o),
(-60,819,o),
(-60,878,cs)
);
}
);
width = 365;
},
{
layerId = "F0B2A15B-B648-4C9E-81BA-2B413577DC71";
shapes = (
{
closed = 1;
nodes = (
(95,700,l),
(95,0,l),
(85,0,l),
(85,700,l)
);
},
{
closed = 1;
nodes = (
(149,806,o),
(154,810,o),
(160,810,cs),
(166,810,o),
(171,806,o),
(171,799,cs),
(171,792,o),
(166,788,o),
(160,788,cs),
(154,788,o),
(149,792,o),
(149,799,cs)
);
},
{
closed = 1;
nodes = (
(9,806,o),
(14,810,o),
(20,810,cs),
(26,810,o),
(31,806,o),
(31,799,cs),
(31,792,o),
(26,788,o),
(20,788,cs),
(14,788,o),
(9,792,o),
(9,799,cs)
);
}
);
width = 180;
}
);
unicode = 207;
},
{
glyphname = Idotaccent;
lastChange = "2024-09-04 09:03:03 +0000";
layers = (
{
layerId = m001;
shapes = (
{
closed = 1;
nodes = (
(165,700,l),
(165,0,l),
(80,0,l),
(80,700,l)
);
},
{
closed = 1;
nodes = (
(67,855,o),
(92,880,o),
(122,880,cs),
(152,880,o),
(177,855,o),
(177,825,cs),
(177,795,o),
(152,770,o),
(122,770,cs),
(92,770,o),
(67,795,o),
(67,825,cs)
);
}
);
width = 245;
},
{
layerId = "7E94446B-7650-4140-BC3E-80C3FEB621EC";
shapes = (
{
closed = 1;
nodes = (
(295,700,l),
(295,0,l),
(70,0,l),
(70,700,l)
);
},
{
closed = 1;
nodes = (
(74,937,o),
(122,976,o),
(182,976,cs),
(242,976,o),
(290,937,o),
(290,878,cs),
(290,819,o),
(242,780,o),
(182,780,cs),
(122,780,o),
(74,819,o),
(74,878,cs)
);
}
);
width = 365;
},
{
layerId = "F0B2A15B-B648-4C9E-81BA-2B413577DC71";
shapes = (
{
closed = 1;
nodes = (
(95,700,l),
(95,0,l),
(85,0,l),
(85,700,l)
);
},
{
closed = 1;
nodes = (
(79,793,o),
(84,797,o),
(90,797,cs),
(96,797,o),
(101,793,o),
(101,786,cs),
(101,779,o),
(96,775,o),
(90,775,cs),
(84,775,o),
(79,779,o),
(79,786,cs)
);
}
);
width = 180;
}
);
unicode = 304;
},
{
glyphname = Igrave;
lastChange = "2024-09-04 09:03:03 +0000";
layers = (
{
layerId = m001;
shapes = (
{
closed = 1;
nodes = (
(165,700,l),
(165,0,l),
(80,0,l),
(80,700,l)
);
},
{
closed = 1;
nodes = (
(68,960,l),
(218,800,l),
(172,770,l),
(-8,920,l)
);
}
);
width = 245;
},
{
layerId = "7E94446B-7650-4140-BC3E-80C3FEB621EC";
shapes = (
{
closed = 1;
nodes = (
(295,700,l),
(295,0,l),
(70,0,l),
(70,700,l)
);
},
{
closed = 1;
nodes = (
(132,1000,l),
(282,840,l),
(172,790,l),
(-8,940,l)
);
}
);
width = 365;
},
{
layerId = "F0B2A15B-B648-4C9E-81BA-2B413577DC71";
shapes = (
{
closed = 1;
nodes = (
(95,700,l),
(95,0,l),
(85,0,l),
(85,700,l)
);
},
{
closed = 1;
nodes = (
(-58,933,l),
(112,773,l),
(108,768,l),
(-66,925,l)
);
}
);
width = 180;
}
);
unicode = 204;
},
{
glyphname = Imacron;
lastChange = "2024-09-04 09:03:03 +0000";
layers = (
{
layerId = m001;
shapes = (
{
closed = 1;
nodes = (
(165,700,l),
(165,0,l),
(80,0,l),
(80,700,l)
);
},
{
closed = 1;
nodes = (
(-52,845,l),
(298,845,l),
(298,770,l),
(-52,770,l)
);
}
);
width = 245;
},
{
layerId = "7E94446B-7650-4140-BC3E-80C3FEB621EC";
shapes = (
{
closed = 1;
nodes = (
(295,700,l),
(295,0,l),
(70,0,l),
(70,700,l)
);
},
{
closed = 1;
nodes = (
(-10,945,l),
(375,945,l),
(375,780,l),
(-10,780,l)
);
}
);
width = 365;
},
{
layerId = "F0B2A15B-B648-4C9E-81BA-2B413577DC71";
shapes = (
{
closed = 1;
nodes = (
(95,700,l),
(95,0,l),
(85,0,l),
(85,700,l)
);
},
{
closed = 1;
nodes = (
(-52,845,l),
(298,845,l),
(298,835,l),
(-52,835,l)
);
}
);
width = 180;
}
);
unicode = 298;
},
{
glyphname = Iogonek;
lastChange = "2024-09-04 09:03:03 +0000";
layers = (
{
layerId = m001;
shapes = (
{
closed = 1;
nodes = (
(165,700,l),
(165,0,l),
(80,0,l),
(80,700,l)
);
},
{
closed = 1;
nodes = (
(203,-180,l),
(188,-200,o),
(158,-220,o),
(115,-220,cs),
(31,-220,o),
(-8,-179,o),
(-8,-120,cs),
(-8,-61,o),
(54,-11,o),
(124,25,c),
(165,0,l),
(113,-22,o),
(72,-63,o),
(72,-100,cs),
(72,-136,o),
(90,-150,o),
(120,-150,cs),
(146,-150,o),
(156,-143,o),
(170,-130,c)
);
}
);
width = 245;
},
{
layerId = "7E94446B-7650-4140-BC3E-80C3FEB621EC";
shapes = (
{
closed = 1;
nodes = (
(295,700,l),
(295,0,l),
(70,0,l),
(70,700,l)
);
},
{
closed = 1;
nodes = (
(292,-177,l),
(277,-197,o),
(247,-217,o),
(184,-217,cs),
(130,-217,o),
(70,-186,o),
(70,-117,cs),
(70,-48,o),
(142,-8,o),
(212,28,c),
(254,3,l),
(202,-29,o),
(180,-60,o),
(180,-87,cs),
(180,-105,o),
(188,-117,o),
(208,-117,cs),
(224,-117,o),
(244,-110,o),
(258,-97,c)
);
}
);
width = 365;
},
{
layerId = "F0B2A15B-B648-4C9E-81BA-2B413577DC71";
shapes = (
{
closed = 1;
nodes = (
(95,700,l),
(95,0,l),
(85,0,l),
(85,700,l)
);
},
{
closed = 1;
nodes = (
(136,-180,l),
(121,-200,o),
(81,-220,o),
(38,-220,cs),
(-26,-220,o),
(-65,-189,o),
(-65,-140,cs),
(-65,-71,o),
(18,-26,o),
(88,10,c),
(95,0,l),
(27,-32,o),
(-55,-83,o),
(-55,-140,cs),
(-55,-186,o),
(-12,-210,o),
(38,-210,cs),
(78,-210,o),
(114,-191,o),
(129,-173,c)
);
}
);
width = 180;
}
);
unicode = 302;
},
{
glyphname = Itilde;
lastChange = "2024-09-04 09:03:03 +0000";
layers = (
{
layerId = m001;
shapes = (
{
closed = 1;
nodes = (
(165,700,l),
(165,0,l),
(80,0,l),
(80,700,l)
);
},
{
closed = 1;
nodes = (
(-32,856,o),
(17,889,o),
(62,889,cs),
(127,889,o),
(132,842,o),
(186,842,cs),
(205,842,o),
(222,858,o),
(242,890,c),
(288,847,l),
(272,810,o),
(232,774,o),
(182,774,cs),
(127,774,o),
(106,821,o),
(61,821,cs),
(20,821,o),
(11,785,o),
(11,770,c),
(-42,807,l)
);
}
);
width = 245;
},
{
layerId = "7E94446B-7650-4140-BC3E-80C3FEB621EC";
shapes = (
{
closed = 1;
nodes = (
(295,700,l),
(295,0,l),
(70,0,l),
(70,700,l)
);
},
{
closed = 1;
nodes = (
(-22,912,o),
(21,965,o),
(96,965,cs),
(163,965,o),
(182,910,o),
(240,910,cs),
(269,910,o),
(292,934,o),
(312,966,c),
(398,873,l),
(382,836,o),
(316,780,o),
(246,780,cs),
(191,780,o),
(148,837,o),
(96,837,cs),
(60,837,o),
(50,801,o),
(50,786,c),
(-32,863,l)
);
}
);
width = 365;
},
{
layerId = "F0B2A15B-B648-4C9E-81BA-2B413577DC71";
shapes = (
{
closed = 1;
nodes = (
(95,700,l),
(95,0,l),
(85,0,l),
(85,700,l)
);
},
{
closed = 1;
nodes = (
(-25,860,o),
(-8,889,o),
(37,889,cs),
(92,889,o),
(107,842,o),
(161,842,cs),
(190,842,o),
(202,858,o),
(217,890,c),
(226,887,l),
(210,850,o),
(190,834,o),
(160,834,cs),
(105,834,o),
(84,881,o),
(39,881,cs),
(-2,881,o),
(-16,855,o),
(-16,830,c),
(-25,831,l)
);
}
);
width = 180;
}
);
unicode = 296;
},
{
glyphname = J;
kernLeft = J;
kernRight = J;
lastChange = "2024-09-04 09:03:03 +0000";
layers = (
{
layerId = m001;
shapes = (
{
closed = 1;
nodes = (
(-53,-127,o),
(-24,-140,o),
(12,-140,cs),
(42,-140,o),
(80,-116,o),
(80,-50,cs),
(80,700,l),
(160,700,l),
(160,-60,ls),
(160,-169,o),
(101,-220,o),
(7,-220,cs),
(-46,-220,o),
(-96,-190,o),
(-111,-170,c),
(-67,-104,l)
);
}
);
width = 240;
},
{
layerId = "7E94446B-7650-4140-BC3E-80C3FEB621EC";
shapes = (
{
closed = 1;
nodes = (
(-51,-54,o),
(-19,-70,o),
(7,-70,cs),
(37,-70,o),
(70,-51,o),
(70,5,cs),
(70,700,l),
(315,700,l),
(315,-50,ls),
(315,-199,o),
(181,-250,o),
(37,-250,cs),
(-56,-250,o),
(-141,-220,o),
(-196,-190,c),
(-75,-39,l)
);
}
);
width = 385;
},
{
layerId = "F0B2A15B-B648-4C9E-81BA-2B413577DC71";
shapes = (
{
closed = 1;
nodes = (
(-103,-182,o),
(-63,-209,o),
(-17,-209,cs),
(72,-209,o),
(96,-166,o),
(96,-50,cs),
(96,700,l),
(107,700,l),
(107,-60,ls),
(107,-169,o),
(78,-220,o),
(-16,-220,cs),
(-69,-220,o),
(-119,-185,o),
(-134,-165,c),
(-127,-158,l)
);
}
);
width = 197;
}
);
unicode = 74;
},
{
glyphname = Jcircumflex;
kernLeft = J;
kernRight = J;
lastChange = "2024-09-04 09:03:03 +0000";
layers = (
{
layerId = m001;
shapes = (
{
closed = 1;
nodes = (
(-53,-127,o),
(-24,-140,o),
(12,-140,cs),
(42,-140,o),
(80,-116,o),
(80,-50,cs),
(80,700,l),
(160,700,l),
(160,-60,ls),
(160,-169,o),
(101,-220,o),
(7,-220,cs),
(-46,-220,o),
(-96,-190,o),
(-111,-170,c),
(-67,-104,l)
);
},
{
closed = 1;
nodes = (
(10,770,l),
(-40,810,l),
(120,950,l),
(280,810,l),
(230,770,l),
(120,865,l)
);
}
);
width = 240;
},
{
layerId = "7E94446B-7650-4140-BC3E-80C3FEB621EC";
shapes = (
{
closed = 1;
nodes = (
(-51,-54,o),
(-19,-70,o),
(7,-70,cs),
(37,-70,o),
(70,-51,o),
(70,5,cs),
(70,700,l),
(315,700,l),
(315,-50,ls),
(315,-199,o),
(181,-250,o),
(37,-250,cs),
(-56,-250,o),
(-141,-220,o),
(-196,-190,c),
(-75,-39,l)
);
},
{
closed = 1;
nodes = (
(112,780,l),
(-28,870,l),
(192,1010,l),
(412,870,l),
(272,780,l),
(192,860,l)
);
}
);
width = 385;
},
{
layerId = "F0B2A15B-B648-4C9E-81BA-2B413577DC71";
shapes = (
{
closed = 1;
nodes = (
(-103,-182,o),
(-63,-209,o),
(-17,-209,cs),
(72,-209,o),
(96,-166,o),
(96,-50,cs),
(96,700,l),
(107,700,l),
(107,-60,ls),
(107,-169,o),
(78,-220,o),
(-16,-220,cs),
(-69,-220,o),
(-119,-185,o),
(-134,-165,c),
(-127,-158,l)
);
},
{
closed = 1;
nodes = (
(-52,768,l),
(-58,775,l),
(102,915,l),
(262,775,l),
(254,768,l),
(102,903,l)
);
}
);
width = 197;
}
);
unicode = 308;
},
{
glyphname = K;
kernRight = K;
lastChange = "2024-09-04 09:03:03 +0000";
layers = (
{
layerId = m001;
shapes = (
{
closed = 1;
nodes = (
(165,700,l),
(165,0,l),
(80,0,l),
(80,700,l)
);
},
{
closed = 1;
nodes = (
(545,700,l),
(242,372,l),
(560,0,l),
(455,0,l),
(139,370,l),
(440,700,l)
);
}
);
width = 565;
},
{
layerId = "7E94446B-7650-4140-BC3E-80C3FEB621EC";
shapes = (
{
closed = 1;
nodes = (
(300,700,l),
(300,0,l),
(70,0,l),
(70,700,l)
);
},
{
closed = 1;
nodes = (
(771,700,l),
(498,372,l),
(786,0,l),
(520,0,l),
(237,365,l),
(515,700,l)
);
}
);
width = 781;
},
{
layerId = "F0B2A15B-B648-4C9E-81BA-2B413577DC71";
shapes = (
{
closed = 1;
nodes = (
(96,700,l),
(96,0,l),
(85,0,l),
(85,700,l)
);
},
{
closed = 1;
nodes = (
(424,700,l),
(109,372,l),
(439,0,l),
(422,0,l),
(94,372,l),
(408,700,l)
);
}
);
width = 454;
}
);
unicode = 75;
},
{
glyphname = Kcommaaccent;
kernRight = K;
lastChange = "2024-09-04 09:03:03 +0000";
layers = (
{
layerId = m001;
shapes = (
{
closed = 1;
nodes = (
(165,700,l),
(165,0,l),
(80,0,l),
(80,700,l)
);
},
{
closed = 1;
nodes = (
(545,700,l),
(242,372,l),
(560,0,l),
(455,0,l),
(139,370,l),
(440,700,l)
);
},
{
closed = 1;
nodes = (
(404,-90,l),
(294,-340,l),
(236,-319,l),
(324,-60,l)
);
}
);
width = 565;
},
{
layerId = "7E94446B-7650-4140-BC3E-80C3FEB621EC";
shapes = (
{
closed = 1;
nodes = (
(300,700,l),
(300,0,l),
(70,0,l),
(70,700,l)
);
},
{
closed = 1;
nodes = (
(771,700,l),
(498,372,l),
(786,0,l),
(520,0,l),
(237,365,l),
(515,700,l)
);
},
{
closed = 1;
nodes = (
(530,-94,l),
(394,-344,l),
(246,-319,l),
(334,-60,l)
);
}
);
width = 781;
},
{
layerId = "F0B2A15B-B648-4C9E-81BA-2B413577DC71";
shapes = (
{
closed = 1;
nodes = (
(96,700,l),
(96,0,l),
(85,0,l),
(85,700,l)
);
},
{
closed = 1;
nodes = (
(424,700,l),
(109,372,l),
(439,0,l),
(422,0,l),
(94,372,l),
(408,700,l)
);
},
{
closed = 1;
nodes = (
(320,-65,l),
(210,-315,l),
(204,-313,l),
(309,-60,l)
);
}
);
width = 454;
}
);
unicode = 310;
},
{
glyphname = L;
kernRight = A;
lastChange = "2024-09-04 09:03:03 +0000";
layers = (
{
layerId = m001;
shapes = (
{
closed = 1;
nodes = (
(165,700,l),
(165,80,l),
(440,80,l),
(440,0,l),
(80,0,l),
(80,700,l)
);
}
);
width = 450;
},
{
layerId = "7E94446B-7650-4140-BC3E-80C3FEB621EC";
shapes = (
{
closed = 1;
nodes = (
(290,700,l),
(290,185,l),
(575,185,l),
(575,0,l),
(70,0,l),
(70,700,l)
);
}
);
width = 575;
},
{
layerId = "F0B2A15B-B648-4C9E-81BA-2B413577DC71";
shapes = (
{
closed = 1;
nodes = (
(100,700,l),
(100,10,l),
(410,10,l),
(410,0,l),
(90,0,l),
(90,700,l)
);
}
);
width = 430;
}
);
unicode = 76;
},
{
glyphname = Lacute;
kernRight = A;
lastChange = "2024-09-04 09:03:03 +0000";
layers = (
{
layerId = m001;
shapes = (
{
closed = 1;
nodes = (
(165,700,l),
(165,80,l),
(440,80,l),
(440,0,l),
(80,0,l),
(80,700,l)
);
},
{
closed = 1;
nodes = (
(210,770,l),
(165,800,l),
(315,960,l),
(390,920,l)
);
}
);
width = 450;
},
{
layerId = "7E94446B-7650-4140-BC3E-80C3FEB621EC";
shapes = (
{
closed = 1;
nodes = (
(290,700,l),
(290,185,l),
(575,185,l),
(575,0,l),
(70,0,l),
(70,700,l)
);
},
{
closed = 1;
nodes = (
(323,780,l),
(213,830,l),
(363,990,l),
(503,930,l)
);
}
);
width = 575;
},
{
layerId = "F0B2A15B-B648-4C9E-81BA-2B413577DC71";
shapes = (
{
closed = 1;
nodes = (
(100,700,l),
(100,10,l),
(410,10,l),
(410,0,l),
(90,0,l),
(90,700,l)
);
},
{
closed = 1;
nodes = (
(252,768,l),
(248,773,l),
(418,933,l),
(426,925,l)
);
}
);
width = 430;
}
);
unicode = 313;
},
{
glyphname = Lcaron;
kernRight = A;
lastChange = "2024-09-04 09:03:03 +0000";
layers = (
{
layerId = m001;
shapes = (
{
closed = 1;
nodes = (
(165,700,l),
(165,80,l),
(440,80,l),
(440,0,l),
(80,0,l),
(80,700,l)
);
},
{
closed = 1;
nodes = (
(408,680,l),
(298,430,l),
(240,451,l),
(328,710,l)
);
}
);
width = 450;
},
{
layerId = "7E94446B-7650-4140-BC3E-80C3FEB621EC";
shapes = (
{
closed = 1;
nodes = (
(290,700,l),
(290,185,l),
(575,185,l),
(575,0,l),
(70,0,l),
(70,700,l)
);
},
{
closed = 1;
nodes = (
(658,686,l),
(523,436,l),
(375,461,l),
(463,720,l)
);
}
);
width = 575;
},
{
layerId = "F0B2A15B-B648-4C9E-81BA-2B413577DC71";
shapes = (
{
closed = 1;
nodes = (
(100,700,l),
(100,10,l),
(410,10,l),
(410,0,l),
(90,0,l),
(90,700,l)
);
},
{
closed = 1;
nodes = (
(356,703,l),
(246,453,l),
(240,455,l),
(345,708,l)
);
}
);
width = 430;
}
);
unicode = 317;
},
{
glyphname = Lcommaaccent;
kernRight = A;
lastChange = "2024-09-04 09:03:03 +0000";
layers = (
{
layerId = m001;
shapes = (
{
closed = 1;
nodes = (
(165,700,l),
(165,80,l),
(440,80,l),
(440,0,l),
(80,0,l),
(80,700,l)
);
},
{
closed = 1;
nodes = (
(344,-90,l),
(234,-340,l),
(176,-319,l),
(264,-60,l)
);
}
);
width = 450;
},
{
layerId = "7E94446B-7650-4140-BC3E-80C3FEB621EC";
shapes = (
{
closed = 1;
nodes = (
(290,700,l),
(290,185,l),
(575,185,l),
(575,0,l),
(70,0,l),
(70,700,l)
);
},
{
closed = 1;
nodes = (
(464,-94,l),
(329,-344,l),
(181,-319,l),
(269,-60,l)
);
}
);
width = 575;
},
{
layerId = "F0B2A15B-B648-4C9E-81BA-2B413577DC71";
shapes = (
{
closed = 1;
nodes = (
(100,700,l),
(100,10,l),
(410,10,l),
(410,0,l),
(90,0,l),
(90,700,l)
);
},
{
closed = 1;
nodes = (
(268,-65,l),
(158,-315,l),
(152,-313,l),
(257,-60,l)
);
}
);
width = 430;
}
);
unicode = 315;
},
{
glyphname = Ldot;
lastChange = "2024-09-04 09:03:03 +0000";
layers = (
{
layerId = m001;
shapes = (
{
closed = 1;
nodes = (
(165,700,l),
(165,80,l),
(440,80,l),
(440,0,l),
(80,0,l),
(80,700,l)
);
},
{
closed = 1;
nodes = (
(255,445,o),
(280,470,o),
(310,470,cs),
(340,470,o),
(365,445,o),
(365,415,cs),
(365,385,o),
(340,360,o),
(310,360,cs),
(280,360,o),
(255,385,o),
(255,415,cs)
);
}
);
width = 450;
},
{
layerId = "7E94446B-7650-4140-BC3E-80C3FEB621EC";
shapes = (
{
closed = 1;
nodes = (
(290,700,l),
(290,185,l),
(575,185,l),
(575,0,l),
(70,0,l),
(70,700,l)
);
},
{
closed = 1;
nodes = (
(365,503,o),
(413,555,o),
(483,555,cs),
(553,555,o),
(601,503,o),
(601,440,cs),
(601,377,o),
(553,325,o),
(483,325,cs),
(413,325,o),
(365,377,o),
(365,440,cs)
);
}
);
width = 575;
},
{
layerId = "F0B2A15B-B648-4C9E-81BA-2B413577DC71";
shapes = (
{
closed = 1;
nodes = (
(100,700,l),
(100,10,l),
(410,10,l),
(410,0,l),
(90,0,l),
(90,700,l)
);
},
{
closed = 1;
nodes = (
(269,421,o),
(274,425,o),
(280,425,cs),
(286,425,o),
(291,421,o),
(291,414,cs),
(291,407,o),
(286,403,o),
(280,403,cs),
(274,403,o),
(269,407,o),
(269,414,cs)
);
}
);
width = 430;
}
);
unicode = 319;
},
{
glyphname = Lslash;
kernRight = A;
lastChange = "2024-09-04 09:03:03 +0000";
layers = (
{
layerId = m001;
shapes = (
{
closed = 1;
nodes = (
(-15,395,l),
(255,565,l),
(275,510,l),
(5,340,l)
);
},
{
closed = 1;
nodes = (
(165,700,l),
(165,80,l),
(440,80,l),
(440,0,l),
(80,0,l),
(80,700,l)
);
}
);
width = 450;
},
{
layerId = "7E94446B-7650-4140-BC3E-80C3FEB621EC";
shapes = (
{
closed = 1;
nodes = (
(-45,375,l),
(375,665,l),
(425,580,l),
(5,290,l)
);
},
{
closed = 1;
nodes = (
(290,700,l),
(290,185,l),
(575,185,l),
(575,0,l),
(70,0,l),
(70,700,l)
);
}
);
width = 585;
},
{
layerId = "F0B2A15B-B648-4C9E-81BA-2B413577DC71";
shapes = (
{
closed = 1;
nodes = (
(-15,395,l),
(255,565,l),
(261,557,l),
(-9,387,l)
);
},
{
closed = 1;
nodes = (
(91,700,l),
(91,10,l),
(365,10,l),
(365,0,l),
(80,0,l),
(80,700,l)
);
}
);
width = 375;
}
);
unicode = 321;
},
{
glyphname = M;
lastChange = "2024-09-04 09:03:03 +0000";
layers = (
{
layerId = m001;
shapes = (
{
closed = 1;
nodes = (
(125,0,l),
(40,0,l),
(125,735,l),
(405,228,l),
(685,735,l),
(770,0,l),
(685,0,l),
(633,473,l),
(405,65,l),
(177,473,l)
);
}
);
width = 810;
},
{
layerId = "7E94446B-7650-4140-BC3E-80C3FEB621EC";
shapes = (
{
closed = 1;
nodes = (
(265,0,l),
(30,0,l),
(160,735,l),
(470,357,l),
(780,735,l),
(910,0,l),
(675,0,l),
(639,286,l),
(470,65,l),
(301,286,l)
);
}
);
width = 940;
},
{
layerId = "F0B2A15B-B648-4C9E-81BA-2B413577DC71";
shapes = (
{
closed = 1;
nodes = (
(71,0,l),
(60,0,l),
(135,715,l),
(415,131,l),
(695,715,l),
(770,0,l),
(759,0,l),
(688,675,l),
(415,105,l),
(142,675,l)
);
}
);
width = 830;
}
);
unicode = 77;
},
{
glyphname = N;
lastChange = "2024-09-04 09:03:03 +0000";
layers = (
{
layerId = m001;
shapes = (
{
closed = 1;
nodes = (
(695,700,l),
(695,-35,l),
(165,521,l),
(165,0,l),
(80,0,l),
(80,735,l),
(610,179,l),
(610,700,l)
);
}
);
width = 775;
},
{
layerId = "7E94446B-7650-4140-BC3E-80C3FEB621EC";
shapes = (
{
closed = 1;
nodes = (
(735,700,l),
(735,-35,l),
(280,317,l),
(280,0,l),
(70,0,l),
(70,735,l),
(525,383,l),
(525,700,l)
);
}
);
width = 805;
},
{
layerId = "F0B2A15B-B648-4C9E-81BA-2B413577DC71";
shapes = (
{
closed = 1;
nodes = (
(635,700,l),
(635,-15,l),
(101,678,l),
(101,0,l),
(90,0,l),
(90,715,l),
(624,17,l),
(624,700,l)
);
}
);
width = 725;
}
);
unicode = 78;
},
{
glyphname = Nacute;
lastChange = "2024-09-04 09:03:03 +0000";
layers = (
{
layerId = m001;
shapes = (
{
closed = 1;
nodes = (
(695,700,l),
(695,-35,l),
(165,521,l),
(165,0,l),
(80,0,l),
(80,735,l),
(610,179,l),
(610,700,l)
);
},
{
closed = 1;
nodes = (
(380,755,l),
(335,785,l),
(485,945,l),
(560,905,l)
);
}
);
width = 775;
},
{
layerId = "7E94446B-7650-4140-BC3E-80C3FEB621EC";
shapes = (
{
closed = 1;
nodes = (
(735,700,l),
(735,-35,l),
(280,317,l),
(280,0,l),
(70,0,l),
(70,735,l),
(525,383,l),
(525,700,l)
);
},
{
closed = 1;
nodes = (
(360,765,l),
(250,815,l),
(400,975,l),
(540,915,l)
);
}
);
width = 805;
},
{
layerId = "F0B2A15B-B648-4C9E-81BA-2B413577DC71";
shapes = (
{
closed = 1;
nodes = (
(595,700,l),
(595,-15,l),
(61,678,l),
(61,0,l),
(50,0,l),
(50,715,l),
(584,17,l),
(584,700,l)
);
},
{
closed = 1;
nodes = (
(302,755,l),
(298,760,l),
(468,920,l),
(476,912,l)
);
}
);
width = 665;
}
);
unicode = 323;
},
{
glyphname = Ncaron;
lastChange = "2024-09-04 09:03:03 +0000";
layers = (
{
layerId = m001;
shapes = (
{
closed = 1;
nodes = (
(510,975,l),
(560,935,l),
(400,795,l),
(240,935,l),
(290,975,l),
(400,880,l)
);
},
{
closed = 1;
nodes = (
(695,700,l),
(695,-35,l),
(165,521,l),
(165,0,l),
(80,0,l),
(80,735,l),
(610,179,l),
(610,700,l)
);
}
);
width = 775;
},
{
layerId = "7E94446B-7650-4140-BC3E-80C3FEB621EC";
shapes = (
{
closed = 1;
nodes = (
(440,995,l),
(580,905,l),
(360,765,l),
(140,905,l),
(280,995,l),
(360,915,l)
);
},
{
closed = 1;
nodes = (
(735,700,l),
(735,-35,l),
(280,317,l),
(280,0,l),
(70,0,l),
(70,735,l),
(525,383,l),
(525,700,l)
);
}
);
width = 805;
},
{
layerId = "F0B2A15B-B648-4C9E-81BA-2B413577DC71";
shapes = (
{
closed = 1;
nodes = (
(492,913,l),
(500,905,l),
(340,765,l),
(180,905,l),
(188,913,l),
(340,777,l)
);
},
{
closed = 1;
nodes = (
(595,700,l),
(595,-15,l),
(61,678,l),
(61,0,l),
(50,0,l),
(50,715,l),
(584,17,l),
(584,700,l)
);
}
);
width = 665;
}
);
unicode = 327;
},
{
glyphname = Ncommaaccent;
lastChange = "2024-09-04 09:03:03 +0000";
layers = (
{
layerId = m001;
shapes = (
{
closed = 1;
nodes = (
(479,-65,l),
(369,-315,l),
(311,-294,l),
(399,-35,l)
);
},
{
closed = 1;
nodes = (
(695,700,l),
(695,-35,l),
(165,521,l),
(165,0,l),
(80,0,l),
(80,735,l),
(610,179,l),
(610,700,l)
);
}
);
width = 775;
},
{
layerId = "7E94446B-7650-4140-BC3E-80C3FEB621EC";
shapes = (
{
closed = 1;
nodes = (
(536,-99,l),
(402,-349,l),
(254,-324,l),
(342,-65,l)
);
},
{
closed = 1;
nodes = (
(735,700,l),
(735,-35,l),
(280,317,l),
(280,0,l),
(70,0,l),
(70,735,l),
(525,383,l),
(525,700,l)
);
}
);
width = 805;
},
{
layerId = "F0B2A15B-B648-4C9E-81BA-2B413577DC71";
shapes = (
{
closed = 1;
nodes = (
(353,-50,l),
(243,-300,l),
(237,-298,l),
(342,-45,l)
);
},
{
closed = 1;
nodes = (
(595,700,l),
(595,-15,l),
(61,678,l),
(61,0,l),
(50,0,l),
(50,715,l),
(584,17,l),
(584,700,l)
);
}
);
width = 665;
}
);
unicode = 325;
},
{
glyphname = Ntilde;
lastChange = "2024-09-04 09:03:03 +0000";
layers = (
{
layerId = m001;
shapes = (
{
closed = 1;
nodes = (
(695,700,l),
(695,-35,l),
(165,521,l),
(165,0,l),
(80,0,l),
(80,735,l),
(610,179,l),
(610,700,l)
);
},
{
closed = 1;
nodes = (
(225,841,o),
(274,874,o),
(319,874,cs),
(384,874,o),
(389,827,o),
(443,827,cs),
(462,827,o),
(479,843,o),
(499,875,c),
(545,832,l),
(529,795,o),
(489,759,o),
(439,759,cs),
(384,759,o),
(363,806,o),
(318,806,cs),
(277,806,o),
(268,770,o),
(268,755,c),
(215,792,l)
);
}
);
width = 775;
},
{
layerId = "7E94446B-7650-4140-BC3E-80C3FEB621EC";
shapes = (
{
closed = 1;
nodes = (
(735,700,l),
(735,-35,l),
(280,317,l),
(280,0,l),
(70,0,l),
(70,735,l),
(525,383,l),
(525,700,l)
);
},
{
closed = 1;
nodes = (
(155,907,o),
(199,960,o),
(274,960,cs),
(341,960,o),
(360,905,o),
(418,905,cs),
(447,905,o),
(469,929,o),
(489,961,c),
(575,868,l),
(559,831,o),
(494,775,o),
(424,775,cs),
(369,775,o),
(325,832,o),
(273,832,cs),
(237,832,o),
(228,796,o),
(228,781,c),
(145,858,l)
);
}
);
width = 805;
},
{
layerId = "F0B2A15B-B648-4C9E-81BA-2B413577DC71";
shapes = (
{
closed = 1;
nodes = (
(595,700,l),
(595,-15,l),
(61,678,l),
(61,0,l),
(50,0,l),
(50,715,l),
(584,17,l),
(584,700,l)
);
},
{
closed = 1;
nodes = (
(205,785,o),
(222,814,o),
(267,814,cs),
(322,814,o),
(337,767,o),
(391,767,cs),
(420,767,o),
(432,783,o),
(447,815,c),
(456,812,l),
(440,775,o),
(420,759,o),
(390,759,cs),
(335,759,o),
(314,806,o),
(269,806,cs),
(228,806,o),
(214,780,o),
(214,755,c),
(205,756,l)
);
}
);
width = 665;
}
);
unicode = 209;
},
{
glyphname = Eng;
lastChange = "2024-09-04 09:03:03 +0000";
layers = (
{
layerId = m001;
shapes = (
{
closed = 1;
nodes = (
(522,-220,o),
(494,-207,o),
(474,-180,c),
(518,-114,l),
(528,-130,o),
(546,-140,o),
(567,-140,cs),
(601,-140,o),
(615,-114,o),
(615,-50,cs),
(615,49,l),
(165,521,l),
(165,0,l),
(80,0,l),
(80,735,l),
(610,179,l),
(610,700,l),
(695,700,l),
(695,-60,ls),
(695,-161,o),
(646,-220,o),
(562,-220,cs)
);
}
);
width = 775;
},
{
layerId = "7E94446B-7650-4140-BC3E-80C3FEB621EC";
shapes = (
{
closed = 1;
nodes = (
(479,-212,o),
(438,-197,o),
(386,-155,c),
(457,-17,l),
(473,-35,o),
(485,-42,o),
(502,-42,cs),
(532,-42,o),
(550,-21,o),
(550,13,cs),
(550,108,l),
(280,316,l),
(280,0,l),
(70,0,l),
(70,735,l),
(525,384,l),
(525,700,l),
(735,700,l),
(735,-42,ls),
(735,-146,o),
(659,-212,o),
(537,-212,cs)
);
}
);
width = 805;
},
{
layerId = "F0B2A15B-B648-4C9E-81BA-2B413577DC71";
shapes = (
{
closed = 1;
nodes = (
(484,-220,o),
(457,-192,o),
(442,-172,c),
(449,-165,l),
(465,-185,o),
(490,-210,o),
(527,-210,cs),
(607,-210,o),
(625,-138,o),
(625,-82,cs),
(625,-2,l),
(101,678,l),
(101,0,l),
(90,0,l),
(90,715,l),
(624,17,l),
(624,700,l),
(635,700,l),
(635,-82,ls),
(635,-151,o),
(611,-220,o),
(527,-220,cs)
);
}
);
width = 725;
}
);
unicode = 330;
},
{
glyphname = O;
kernLeft = C;
kernRight = D;
lastChange = "2024-09-04 09:03:03 +0000";
layers = (
{
layerId = m001;
shapes = (
{
closed = 1;
nodes = (
(130,192,o),
(242,75,o),
(395,75,cs),
(548,75,o),
(660,192,o),
(660,350,cs),
(660,508,o),
(548,625,o),
(395,625,cs),
(242,625,o),
(130,508,o),
(130,350,cs)
);
},
{
closed = 1;
nodes = (
(40,554,o),
(191,710,o),
(395,710,cs),
(599,710,o),
(750,554,o),
(750,350,cs),
(750,146,o),
(599,-10,o),
(395,-10,cs),
(191,-10,o),
(40,146,o),
(40,350,cs)
);
}
);
width = 790;
},
{
layerId = "7E94446B-7650-4140-BC3E-80C3FEB621EC";
shapes = (
{
closed = 1;
nodes = (
(263,247,o),
(322,178,o),
(420,178,cs),
(518,178,o),
(577,247,o),
(577,350,cs),
(577,453,o),
(523,522,o),
(420,522,cs),
(322,522,o),
(263,453,o),
(263,350,cs)
);
},
{
closed = 1;
nodes = (
(30,574,o),
(201,720,o),
(420,720,cs),
(644,720,o),
(810,574,o),
(810,350,cs),
(810,126,o),
(649,-30,o),
(420,-30,cs),
(191,-30,o),
(30,126,o),
(30,350,cs)
);
}
);
width = 840;
},
{
layerId = "F0B2A15B-B648-4C9E-81BA-2B413577DC71";
shapes = (
{
closed = 1;
nodes = (
(61,149,o),
(196,3,o),
(387,3,cs),
(578,3,o),
(713,149,o),
(713,350,cs),
(713,551,o),
(578,697,o),
(387,697,cs),
(196,697,o),
(61,551,o),
(61,350,cs)
);
},
{
closed = 1;
nodes = (
(50,559,o),
(193,708,o),
(387,708,cs),
(581,708,o),
(724,559,o),
(724,350,cs),
(724,141,o),
(581,-8,o),
(387,-8,cs),
(193,-8,o),
(50,141,o),
(50,350,cs)
);
}
);
width = 774;
}
);
unicode = 79;
},
{
glyphname = Oacute;
kernLeft = C;
kernRight = D;
lastChange = "2024-09-04 09:03:03 +0000";
layers = (
{
layerId = m001;
shapes = (
{
closed = 1;
nodes = (
(130,192,o),
(242,75,o),
(395,75,cs),
(548,75,o),
(660,192,o),
(660,350,cs),
(660,508,o),
(548,625,o),
(395,625,cs),
(242,625,o),
(130,508,o),
(130,350,cs)
);
},
{
closed = 1;
nodes = (
(40,554,o),
(191,710,o),
(395,710,cs),
(599,710,o),
(750,554,o),
(750,350,cs),
(750,146,o),
(599,-10,o),
(395,-10,cs),
(191,-10,o),
(40,146,o),
(40,350,cs)
);
},
{
closed = 1;
nodes = (
(335,770,l),
(290,800,l),
(440,960,l),
(515,920,l)
);
}
);
width = 790;
},
{
layerId = "7E94446B-7650-4140-BC3E-80C3FEB621EC";
shapes = (
{
closed = 1;
nodes = (
(263,247,o),
(322,178,o),
(420,178,cs),
(518,178,o),
(577,247,o),
(577,350,cs),
(577,453,o),
(523,522,o),
(420,522,cs),
(322,522,o),
(263,453,o),
(263,350,cs)
);
},
{
closed = 1;
nodes = (
(30,574,o),
(201,720,o),
(420,720,cs),
(644,720,o),
(810,574,o),
(810,350,cs),
(810,126,o),
(649,-30,o),
(420,-30,cs),
(191,-30,o),
(30,126,o),
(30,350,cs)
);
},
{
closed = 1;
nodes = (
(430,790,l),
(320,840,l),
(470,1000,l),
(610,940,l)
);
}
);
width = 840;
},
{
layerId = "F0B2A15B-B648-4C9E-81BA-2B413577DC71";
shapes = (
{
closed = 1;
nodes = (
(61,149,o),
(196,3,o),
(387,3,cs),
(578,3,o),
(713,149,o),
(713,350,cs),
(713,551,o),
(578,697,o),
(387,697,cs),
(196,697,o),
(61,551,o),
(61,350,cs)
);
},
{
closed = 1;
nodes = (
(50,559,o),
(193,708,o),
(387,708,cs),
(581,708,o),
(724,559,o),
(724,350,cs),
(724,141,o),
(581,-8,o),
(387,-8,cs),
(193,-8,o),
(50,141,o),
(50,350,cs)
);
},
{
closed = 1;
nodes = (
(350,768,l),
(344,773,l),
(514,933,l),
(522,925,l)
);
}
);
width = 774;
}
);
unicode = 211;
},
{
glyphname = Obreve;
kernLeft = C;
kernRight = D;
lastChange = "2024-09-04 09:03:03 +0000";
layers = (
{
layerId = m001;
shapes = (
{
closed = 1;
nodes = (
(130,192,o),
(242,75,o),
(395,75,cs),
(548,75,o),
(660,192,o),
(660,350,cs),
(660,508,o),
(548,625,o),
(395,625,cs),
(242,625,o),
(130,508,o),
(130,350,cs)
);
},
{
closed = 1;
nodes = (
(40,554,o),
(191,710,o),
(395,710,cs),
(599,710,o),
(750,554,o),
(750,350,cs),
(750,146,o),
(599,-10,o),
(395,-10,cs),
(191,-10,o),
(40,146,o),
(40,350,cs)
);
},
{
closed = 1;
nodes = (
(308,910,l),
(308,884,o),
(325,835,o),
(395,835,cs),
(465,835,o),
(482,884,o),
(482,910,c),
(553,910,l),
(553,841,o),
(500,770,o),
(395,770,cs),
(290,770,o),
(237,841,o),
(237,910,c)
);
}
);
width = 790;
},
{
layerId = "7E94446B-7650-4140-BC3E-80C3FEB621EC";
shapes = (
{
closed = 1;
nodes = (
(263,247,o),
(322,178,o),
(420,178,cs),
(518,178,o),
(577,247,o),
(577,350,cs),
(577,453,o),
(523,522,o),
(420,522,cs),
(322,522,o),
(263,453,o),
(263,350,cs)
);
},
{
closed = 1;
nodes = (
(30,574,o),
(201,720,o),
(420,720,cs),
(644,720,o),
(810,574,o),
(810,350,cs),
(810,126,o),
(649,-30,o),
(420,-30,cs),
(191,-30,o),
(30,126,o),
(30,350,cs)
);
},
{
closed = 1;
nodes = (
(368,930,l),
(368,889,o),
(400,880,o),
(420,880,cs),
(440,880,o),
(472,889,o),
(472,930,c),
(588,930,l),
(588,841,o),
(525,780,o),
(420,780,cs),
(315,780,o),
(252,841,o),
(252,930,c)
);
}
);
width = 840;
},
{
layerId = "F0B2A15B-B648-4C9E-81BA-2B413577DC71";
shapes = (
{
closed = 1;
nodes = (
(61,149,o),
(196,3,o),
(387,3,cs),
(578,3,o),
(713,149,o),
(713,350,cs),
(713,551,o),
(578,697,o),
(387,697,cs),
(196,697,o),
(61,551,o),
(61,350,cs)
);
},
{
closed = 1;
nodes = (
(50,559,o),
(193,708,o),
(387,708,cs),
(581,708,o),
(724,559,o),
(724,350,cs),
(724,141,o),
(581,-8,o),
(387,-8,cs),
(193,-8,o),
(50,141,o),
(50,350,cs)
);
},
{
closed = 1;
nodes = (
(239,908,l),
(239,842,o),
(295,778,o),
(387,778,cs),
(479,778,o),
(535,842,o),
(535,908,c),
(545,908,l),
(545,839,o),
(492,768,o),
(387,768,cs),
(282,768,o),
(229,839,o),
(229,908,c)
);
}
);
width = 774;
}
);
unicode = 334;
},
{
glyphname = Ocircumflex;
kernLeft = C;
kernRight = D;
lastChange = "2024-09-04 09:03:03 +0000";
layers = (
{
layerId = m001;
shapes = (
{
closed = 1;
nodes = (
(130,192,o),
(242,75,o),
(395,75,cs),
(548,75,o),
(660,192,o),
(660,350,cs),
(660,508,o),
(548,625,o),
(395,625,cs),
(242,625,o),
(130,508,o),
(130,350,cs)
);
},
{
closed = 1;
nodes = (
(40,554,o),
(191,710,o),
(395,710,cs),
(599,710,o),
(750,554,o),
(750,350,cs),
(750,146,o),
(599,-10,o),
(395,-10,cs),
(191,-10,o),
(40,146,o),
(40,350,cs)
);
},
{
closed = 1;
nodes = (
(285,770,l),
(235,810,l),
(395,950,l),
(555,810,l),
(505,770,l),
(395,865,l)
);
}
);
width = 790;
},
{
layerId = "7E94446B-7650-4140-BC3E-80C3FEB621EC";
shapes = (
{
closed = 1;
nodes = (
(263,247,o),
(322,178,o),
(420,178,cs),
(518,178,o),
(577,247,o),
(577,350,cs),
(577,453,o),
(523,522,o),
(420,522,cs),
(322,522,o),
(263,453,o),
(263,350,cs)
);
},
{
closed = 1;
nodes = (
(30,574,o),
(201,720,o),
(420,720,cs),
(644,720,o),
(810,574,o),
(810,350,cs),
(810,126,o),
(649,-30,o),
(420,-30,cs),
(191,-30,o),
(30,126,o),
(30,350,cs)
);
},
{
closed = 1;
nodes = (
(355,780,l),
(215,870,l),
(435,1010,l),
(655,870,l),
(515,780,l),
(435,860,l)
);
}
);
width = 840;
},
{
layerId = "F0B2A15B-B648-4C9E-81BA-2B413577DC71";
shapes = (
{
closed = 1;
nodes = (
(61,149,o),
(196,3,o),
(387,3,cs),
(578,3,o),
(713,149,o),
(713,350,cs),
(713,551,o),
(578,697,o),
(387,697,cs),
(196,697,o),
(61,551,o),
(61,350,cs)
);
},
{
closed = 1;
nodes = (
(50,559,o),
(193,708,o),
(387,708,cs),
(581,708,o),
(724,559,o),
(724,350,cs),
(724,141,o),
(581,-8,o),
(387,-8,cs),
(193,-8,o),
(50,141,o),
(50,350,cs)
);
},
{
closed = 1;
nodes = (
(234,768,l),
(227,775,l),
(387,915,l),
(547,775,l),
(540,768,l),
(387,903,l)
);
}
);
width = 774;
}
);
unicode = 212;
},
{
glyphname = Odieresis;
kernLeft = C;
kernRight = D;
lastChange = "2024-09-04 09:03:03 +0000";
layers = (
{
layerId = m001;
shapes = (
{
closed = 1;
nodes = (
(130,192,o),
(242,75,o),
(395,75,cs),
(548,75,o),
(660,192,o),
(660,350,cs),
(660,508,o),
(548,625,o),
(395,625,cs),
(242,625,o),
(130,508,o),
(130,350,cs)
);
},
{
closed = 1;
nodes = (
(40,554,o),
(191,710,o),
(395,710,cs),
(599,710,o),
(750,554,o),
(750,350,cs),
(750,146,o),
(599,-10,o),
(395,-10,cs),
(191,-10,o),
(40,146,o),
(40,350,cs)
);
},
{
closed = 1;
nodes = (
(440,855,o),
(465,880,o),
(495,880,cs),
(525,880,o),
(550,855,o),
(550,825,cs),
(550,795,o),
(525,770,o),
(495,770,cs),
(465,770,o),
(440,795,o),
(440,825,cs)
);
},
{
closed = 1;
nodes = (
(240,855,o),
(265,880,o),
(295,880,cs),
(325,880,o),
(350,855,o),
(350,825,cs),
(350,795,o),
(325,770,o),
(295,770,cs),
(265,770,o),
(240,795,o),
(240,825,cs)
);
}
);
width = 790;
},
{
layerId = "7E94446B-7650-4140-BC3E-80C3FEB621EC";
shapes = (
{
closed = 1;
nodes = (
(263,247,o),
(322,178,o),
(420,178,cs),
(518,178,o),
(577,247,o),
(577,350,cs),
(577,453,o),
(523,522,o),
(420,522,cs),
(322,522,o),
(263,453,o),
(263,350,cs)
);
},
{
closed = 1;
nodes = (
(30,574,o),
(201,720,o),
(420,720,cs),
(644,720,o),
(810,574,o),
(810,350,cs),
(810,126,o),
(649,-30,o),
(420,-30,cs),
(191,-30,o),
(30,126,o),
(30,350,cs)
);
},
{
closed = 1;
nodes = (
(447,937,o),
(495,976,o),
(555,976,cs),
(615,976,o),
(663,937,o),
(663,878,cs),
(663,819,o),
(615,780,o),
(555,780,cs),
(495,780,o),
(447,819,o),
(447,878,cs)
);
},
{
closed = 1;
nodes = (
(177,937,o),
(225,976,o),
(285,976,cs),
(345,976,o),
(393,937,o),
(393,878,cs),
(393,819,o),
(345,780,o),
(285,780,cs),
(225,780,o),
(177,819,o),
(177,878,cs)
);
}
);
width = 840;
},
{
layerId = "F0B2A15B-B648-4C9E-81BA-2B413577DC71";
shapes = (
{
closed = 1;
nodes = (
(61,149,o),
(196,3,o),
(387,3,cs),
(578,3,o),
(713,149,o),
(713,350,cs),
(713,551,o),
(578,697,o),
(387,697,cs),
(196,697,o),
(61,551,o),
(61,350,cs)
);
},
{
closed = 1;
nodes = (
(50,559,o),
(193,708,o),
(387,708,cs),
(581,708,o),
(724,559,o),
(724,350,cs),
(724,141,o),
(581,-8,o),
(387,-8,cs),
(193,-8,o),
(50,141,o),
(50,350,cs)
);
},
{
closed = 1;
nodes = (
(486,816,o),
(491,820,o),
(497,820,cs),
(503,820,o),
(508,816,o),
(508,809,cs),
(508,802,o),
(503,798,o),
(497,798,cs),
(491,798,o),
(486,802,o),
(486,809,cs)
);
},
{
closed = 1;
nodes = (
(266,816,o),
(271,820,o),
(277,820,cs),
(283,820,o),
(288,816,o),
(288,809,cs),
(288,802,o),
(283,798,o),
(277,798,cs),
(271,798,o),
(266,802,o),
(266,809,cs)
);
}
);
width = 774;
}
);
unicode = 214;
},
{
glyphname = Ograve;
kernLeft = C;
kernRight = D;
lastChange = "2024-09-04 09:03:03 +0000";
layers = (
{
layerId = m001;
shapes = (
{
closed = 1;
nodes = (
(130,192,o),
(242,75,o),
(395,75,cs),
(548,75,o),
(660,192,o),
(660,350,cs),
(660,508,o),
(548,625,o),
(395,625,cs),
(242,625,o),
(130,508,o),
(130,350,cs)
);
},
{
closed = 1;
nodes = (
(40,554,o),
(191,710,o),
(395,710,cs),
(599,710,o),
(750,554,o),
(750,350,cs),
(750,146,o),
(599,-10,o),
(395,-10,cs),
(191,-10,o),
(40,146,o),
(40,350,cs)
);
},
{
closed = 1;
nodes = (
(350,960,l),
(500,800,l),
(455,770,l),
(275,920,l)
);
}
);
width = 790;
},
{
layerId = "7E94446B-7650-4140-BC3E-80C3FEB621EC";
shapes = (
{
closed = 1;
nodes = (
(263,247,o),
(322,178,o),
(420,178,cs),
(518,178,o),
(577,247,o),
(577,350,cs),
(577,453,o),
(523,522,o),
(420,522,cs),
(322,522,o),
(263,453,o),
(263,350,cs)
);
},
{
closed = 1;
nodes = (
(30,574,o),
(201,720,o),
(420,720,cs),
(644,720,o),
(810,574,o),
(810,350,cs),
(810,126,o),
(649,-30,o),
(420,-30,cs),
(191,-30,o),
(30,126,o),
(30,350,cs)
);
},
{
closed = 1;
nodes = (
(395,1000,l),
(545,840,l),
(435,790,l),
(255,940,l)
);
}
);
width = 840;
},
{
layerId = "F0B2A15B-B648-4C9E-81BA-2B413577DC71";
shapes = (
{
closed = 1;
nodes = (
(61,149,o),
(196,3,o),
(387,3,cs),
(578,3,o),
(713,149,o),
(713,350,cs),
(713,551,o),
(578,697,o),
(387,697,cs),
(196,697,o),
(61,551,o),
(61,350,cs)
);
},
{
closed = 1;
nodes = (
(50,559,o),
(193,708,o),
(387,708,cs),
(581,708,o),
(724,559,o),
(724,350,cs),
(724,141,o),
(581,-8,o),
(387,-8,cs),
(193,-8,o),
(50,141,o),
(50,350,cs)
);
},
{
closed = 1;
nodes = (
(260,933,l),
(430,773,l),
(424,768,l),
(252,925,l)
);
}
);
width = 774;
}
);
unicode = 210;
},
{
glyphname = Ohungarumlaut;
kernLeft = C;
kernRight = D;
lastChange = "2024-09-04 09:03:03 +0000";
layers = (
{
layerId = m001;
shapes = (
{
closed = 1;
nodes = (
(261,787,l),
(365,981,l),
(447,961,l),
(313,770,l)
);
},
{
closed = 1;
nodes = (
(426,787,l),
(529,981,l),
(613,961,l),
(477,770,l)
);
},
{
closed = 1;
nodes = (
(130,192,o),
(242,75,o),
(395,75,cs),
(548,75,o),
(660,192,o),
(660,350,cs),
(660,508,o),
(548,625,o),
(395,625,cs),
(242,625,o),
(130,508,o),
(130,350,cs)
);
},
{
closed = 1;
nodes = (
(40,554,o),
(191,710,o),
(395,710,cs),
(599,710,o),
(750,554,o),
(750,350,cs),
(750,146,o),
(599,-10,o),
(395,-10,cs),
(191,-10,o),
(40,146,o),
(40,350,cs)
);
}
);
width = 790;
},
{
layerId = "7E94446B-7650-4140-BC3E-80C3FEB621EC";
shapes = (
{
closed = 1;
nodes = (
(203,810,l),
(323,994,l),
(471,958,l),
(320,780,l)
);
},
{
closed = 1;
nodes = (
(403,810,l),
(523,994,l),
(671,958,l),
(520,780,l)
);
},
{
closed = 1;
nodes = (
(263,247,o),
(322,178,o),
(420,178,cs),
(518,178,o),
(577,247,o),
(577,350,cs),
(577,453,o),
(523,522,o),
(420,522,cs),
(322,522,o),
(263,453,o),
(263,350,cs)
);
},
{
closed = 1;
nodes = (
(30,574,o),
(201,720,o),
(420,720,cs),
(644,720,o),
(810,574,o),
(810,350,cs),
(810,126,o),
(649,-30,o),
(420,-30,cs),
(191,-30,o),
(30,126,o),
(30,350,cs)
);
}
);
width = 840;
},
{
layerId = "F0B2A15B-B648-4C9E-81BA-2B413577DC71";
shapes = (
{
closed = 1;
nodes = (
(334,771,l),
(439,979,l),
(449,974,l),
(340,768,l)
);
},
{
closed = 1;
nodes = (
(434,771,l),
(539,979,l),
(549,974,l),
(440,768,l)
);
},
{
closed = 1;
nodes = (
(61,149,o),
(196,3,o),
(387,3,cs),
(578,3,o),
(713,149,o),
(713,350,cs),
(713,551,o),
(578,697,o),
(387,697,cs),
(196,697,o),
(61,551,o),
(61,350,cs)
);
},
{
closed = 1;
nodes = (
(50,559,o),
(193,708,o),
(387,708,cs),
(581,708,o),
(724,559,o),
(724,350,cs),
(724,141,o),
(581,-8,o),
(387,-8,cs),
(193,-8,o),
(50,141,o),
(50,350,cs)
);
}
);
width = 774;
}
);
unicode = 336;
},
{
glyphname = Omacron;
kernLeft = C;
kernRight = D;
lastChange = "2024-09-04 09:03:03 +0000";
layers = (
{
layerId = m001;
shapes = (
{
closed = 1;
nodes = (
(130,192,o),
(242,75,o),
(395,75,cs),
(548,75,o),
(660,192,o),
(660,350,cs),
(660,508,o),
(548,625,o),
(395,625,cs),
(242,625,o),
(130,508,o),
(130,350,cs)
);
},
{
closed = 1;
nodes = (
(40,554,o),
(191,710,o),
(395,710,cs),
(599,710,o),
(750,554,o),
(750,350,cs),
(750,146,o),
(599,-10,o),
(395,-10,cs),
(191,-10,o),
(40,146,o),
(40,350,cs)
);
},
{
closed = 1;
nodes = (
(220,845,l),
(570,845,l),
(570,770,l),
(220,770,l)
);
}
);
width = 790;
},
{
layerId = "7E94446B-7650-4140-BC3E-80C3FEB621EC";
shapes = (
{
closed = 1;
nodes = (
(263,247,o),
(322,178,o),
(420,178,cs),
(518,178,o),
(577,247,o),
(577,350,cs),
(577,453,o),
(523,522,o),
(420,522,cs),
(322,522,o),
(263,453,o),
(263,350,cs)
);
},
{
closed = 1;
nodes = (
(30,574,o),
(201,720,o),
(420,720,cs),
(644,720,o),
(810,574,o),
(810,350,cs),
(810,126,o),
(649,-30,o),
(420,-30,cs),
(191,-30,o),
(30,126,o),
(30,350,cs)
);
},
{
closed = 1;
nodes = (
(228,945,l),
(612,945,l),
(612,780,l),
(228,780,l)
);
}
);
width = 840;
},
{
layerId = "F0B2A15B-B648-4C9E-81BA-2B413577DC71";
shapes = (
{
closed = 1;
nodes = (
(61,149,o),
(196,3,o),
(387,3,cs),
(578,3,o),
(713,149,o),
(713,350,cs),
(713,551,o),
(578,697,o),
(387,697,cs),
(196,697,o),
(61,551,o),
(61,350,cs)
);
},
{
closed = 1;
nodes = (
(50,559,o),
(193,708,o),
(387,708,cs),
(581,708,o),
(724,559,o),
(724,350,cs),
(724,141,o),
(581,-8,o),
(387,-8,cs),
(193,-8,o),
(50,141,o),
(50,350,cs)
);
},
{
closed = 1;
nodes = (
(212,798,l),
(562,798,l),
(562,788,l),
(212,788,l)
);
}
);
width = 774;
}
);
unicode = 332;
},
{
glyphname = Oslash;
kernLeft = C;
kernRight = D;
lastChange = "2024-09-04 09:03:03 +0000";
layers = (
{
layerId = m001;
shapes = (
{
closed = 1;
nodes = (
(130,192,o),
(242,75,o),
(395,75,cs),
(548,75,o),
(660,192,o),
(660,350,cs),
(660,508,o),
(548,625,o),
(395,625,cs),
(242,625,o),
(130,508,o),
(130,350,cs)
);
},
{
closed = 1;
nodes = (
(40,554,o),
(191,710,o),
(395,710,cs),
(599,710,o),
(750,554,o),
(750,350,cs),
(750,146,o),
(599,-10,o),
(395,-10,cs),
(191,-10,o),
(40,146,o),
(40,350,cs)
);
},
{
closed = 1;
nodes = (
(747,710,l),
(98,-50,l),
(40,-10,l),
(688,750,l)
);
}
);
width = 790;
},
{
layerId = "7E94446B-7650-4140-BC3E-80C3FEB621EC";
shapes = (
{
closed = 1;
nodes = (
(263,242,o),
(322,178,o),
(420,178,cs),
(518,178,o),
(577,242,o),
(577,350,cs),
(577,458,o),
(518,522,o),
(420,522,cs),
(322,522,o),
(263,458,o),
(263,350,cs)
);
},
{
closed = 1;
nodes = (
(30,574,o),
(196,720,o),
(420,720,cs),
(644,720,o),
(810,574,o),
(810,350,cs),
(810,126,o),
(644,-30,o),
(420,-30,cs),
(196,-30,o),
(30,126,o),
(30,350,cs)
);
},
{
closed = 1;
nodes = (
(782,700,l),
(133,-60,l),
(55,0,l),
(703,760,l)
);
}
);
width = 790;
},
{
layerId = "F0B2A15B-B648-4C9E-81BA-2B413577DC71";
shapes = (
{
closed = 1;
nodes = (
(61,149,o),
(196,3,o),
(387,3,cs),
(578,3,o),
(713,149,o),
(713,350,cs),
(713,551,o),
(578,697,o),
(387,697,cs),
(196,697,o),
(61,551,o),
(61,350,cs)
);
},
{
closed = 1;
nodes = (
(50,559,o),
(193,708,o),
(387,708,cs),
(581,708,o),
(724,559,o),
(724,350,cs),
(724,141,o),
(581,-8,o),
(387,-8,cs),
(193,-8,o),
(50,141,o),
(50,350,cs)
);
},
{
closed = 1;
nodes = (
(723,727,l),
(74,-33,l),
(64,-27,l),
(712,733,l)
);
}
);
width = 790;
}
);
unicode = 216;
},
{
glyphname = Otilde;
kernLeft = C;
kernRight = D;
lastChange = "2024-09-04 09:03:03 +0000";
layers = (
{
layerId = m001;
shapes = (
{
closed = 1;
nodes = (
(130,192,o),
(242,75,o),
(395,75,cs),
(548,75,o),
(660,192,o),
(660,350,cs),
(660,508,o),
(548,625,o),
(395,625,cs),
(242,625,o),
(130,508,o),
(130,350,cs)
);
},
{
closed = 1;
nodes = (
(40,554,o),
(191,710,o),
(395,710,cs),
(599,710,o),
(750,554,o),
(750,350,cs),
(750,146,o),
(599,-10,o),
(395,-10,cs),
(191,-10,o),
(40,146,o),
(40,350,cs)
);
},
{
closed = 1;
nodes = (
(240,856,o),
(289,889,o),
(334,889,cs),
(399,889,o),
(404,842,o),
(458,842,cs),
(477,842,o),
(494,858,o),
(514,890,c),
(560,847,l),
(544,810,o),
(504,774,o),
(454,774,cs),
(399,774,o),
(378,821,o),
(333,821,cs),
(292,821,o),
(283,785,o),
(283,770,c),
(230,807,l)
);
}
);
width = 790;
},
{
layerId = "7E94446B-7650-4140-BC3E-80C3FEB621EC";
shapes = (
{
closed = 1;
nodes = (
(263,247,o),
(322,178,o),
(420,178,cs),
(518,178,o),
(577,247,o),
(577,350,cs),
(577,453,o),
(523,522,o),
(420,522,cs),
(322,522,o),
(263,453,o),
(263,350,cs)
);
},
{
closed = 1;
nodes = (
(30,574,o),
(201,720,o),
(420,720,cs),
(644,720,o),
(810,574,o),
(810,350,cs),
(810,126,o),
(649,-30,o),
(420,-30,cs),
(191,-30,o),
(30,126,o),
(30,350,cs)
);
},
{
closed = 1;
nodes = (
(225,907,o),
(269,960,o),
(344,960,cs),
(411,960,o),
(430,905,o),
(488,905,cs),
(517,905,o),
(539,929,o),
(559,961,c),
(645,868,l),
(629,831,o),
(564,775,o),
(494,775,cs),
(439,775,o),
(395,832,o),
(343,832,cs),
(307,832,o),
(298,796,o),
(298,781,c),
(215,858,l)
);
}
);
width = 840;
},
{
layerId = "F0B2A15B-B648-4C9E-81BA-2B413577DC71";
shapes = (
{
closed = 1;
nodes = (
(61,149,o),
(196,3,o),
(387,3,cs),
(578,3,o),
(713,149,o),
(713,350,cs),
(713,551,o),
(578,697,o),
(387,697,cs),
(196,697,o),
(61,551,o),
(61,350,cs)
);
},
{
closed = 1;
nodes = (
(50,559,o),
(193,708,o),
(387,708,cs),
(581,708,o),
(724,559,o),
(724,350,cs),
(724,141,o),
(581,-8,o),
(387,-8,cs),
(193,-8,o),
(50,141,o),
(50,350,cs)
);
},
{
closed = 1;
nodes = (
(262,818,o),
(279,847,o),
(324,847,cs),
(379,847,o),
(394,800,o),
(448,800,cs),
(477,800,o),
(489,816,o),
(504,848,c),
(512,845,l),
(496,808,o),
(476,792,o),
(446,792,cs),
(391,792,o),
(371,839,o),
(326,839,cs),
(285,839,o),
(270,813,o),
(270,788,c),
(262,789,l)
);
}
);
width = 774;
}
);
unicode = 213;
},
{
glyphname = OE;
kernLeft = C;
lastChange = "2024-09-04 09:03:03 +0000";
layers = (
{
layerId = m001;
shapes = (
{
closed = 1;
nodes = (
(562,420,l),
(895,420,l),
(895,340,l),
(562,340,l)
);
},
{
closed = 1;
nodes = (
(600,670,l),
(600,30,l),
(515,30,l),
(515,670,l)
);
},
{
closed = 1;
nodes = (
(916,0,l),
(390,0,ls),
(187,0,o),
(40,141,o),
(40,350,cs),
(40,559,o),
(186,700,o),
(390,700,cs),
(915,700,l),
(915,620,l),
(568,620,l),
(551,620,l),
(390,620,ls),
(232,620,o),
(125,513,o),
(125,350,cs),
(125,187,o),
(233,80,o),
(390,80,cs),
(548,80,l),
(572,80,l),
(916,80,l)
);
}
);
width = 985;
},
{
layerId = "7E94446B-7650-4140-BC3E-80C3FEB621EC";
shapes = (
{
closed = 1;
nodes = (
(562,445,l),
(950,445,l),
(950,275,l),
(562,275,l)
);
},
{
closed = 1;
nodes = (
(675,670,l),
(675,30,l),
(465,30,l),
(465,670,l)
);
},
{
closed = 1;
nodes = (
(971,0,l),
(390,0,ls),
(187,0,o),
(30,141,o),
(30,350,cs),
(30,559,o),
(186,700,o),
(390,700,cs),
(970,700,l),
(970,525,l),
(568,525,l),
(551,510,l),
(440,510,ls),
(312,510,o),
(260,463,o),
(260,350,cs),
(260,237,o),
(313,190,o),
(440,190,cs),
(548,190,l),
(572,175,l),
(971,175,l)
);
}
);
width = 985;
},
{
layerId = "F0B2A15B-B648-4C9E-81BA-2B413577DC71";
shapes = (
{
closed = 1;
nodes = (
(517,395,l),
(850,395,l),
(850,385,l),
(517,385,l)
);
},
{
closed = 1;
nodes = (
(526,695,l),
(526,5,l),
(515,5,l),
(515,695,l)
);
},
{
closed = 1;
nodes = (
(871,0,l),
(390,0,ls),
(187,0,o),
(40,141,o),
(40,350,cs),
(40,559,o),
(186,700,o),
(390,700,cs),
(870,700,l),
(870,690,l),
(523,690,l),
(506,690,l),
(390,690,ls),
(197,690,o),
(50,548,o),
(50,350,cs),
(50,152,o),
(198,10,o),
(390,10,cs),
(503,10,l),
(527,10,l),
(871,10,l)
);
}
);
width = 951;
}
);
unicode = 338;
},
{
glyphname = P;
kernRight = F;
lastChange = "2024-09-04 09:03:03 +0000";
layers = (
{
layerId = m001;
shapes = (
{
closed = 1;
nodes = (
(165,700,l),
(165,0,l),
(80,0,l),
(80,700,l)
);
},
{
closed = 1;
nodes = (
(127,700,l),
(270,700,ls),
(405,700,o),
(508,619,o),
(508,490,cs),
(508,361,o),
(405,280,o),
(270,280,cs),
(127,280,l),
(127,360,l),
(270,360,ls),
(360,360,o),
(423,404,o),
(423,490,cs),
(423,576,o),
(360,620,o),
(270,620,cs),
(127,620,l)
);
}
);
width = 548;
},
{
layerId = "7E94446B-7650-4140-BC3E-80C3FEB621EC";
shapes = (
{
closed = 1;
nodes = (
(290,700,l),
(290,0,l),
(70,0,l),
(70,700,l)
);
},
{
closed = 1;
nodes = (
(212,700,l),
(345,700,ls),
(550,700,o),
(638,609,o),
(638,460,cs),
(638,311,o),
(550,220,o),
(345,220,cs),
(212,220,l),
(212,395,l),
(345,395,ls),
(400,395,o),
(428,419,o),
(428,460,cs),
(428,501,o),
(400,525,o),
(345,525,cs),
(212,525,l)
);
}
);
width = 668;
},
{
layerId = "F0B2A15B-B648-4C9E-81BA-2B413577DC71";
shapes = (
{
closed = 1;
nodes = (
(101,700,l),
(101,0,l),
(90,0,l),
(90,700,l)
);
},
{
closed = 1;
nodes = (
(97,700,l),
(215,700,ls),
(340,700,o),
(430,626,o),
(430,497,cs),
(430,368,o),
(340,294,o),
(215,294,cs),
(97,294,l),
(97,304,l),
(215,304,ls),
(335,304,o),
(419,374,o),
(419,497,cs),
(419,620,o),
(335,690,o),
(215,690,cs),
(97,690,l)
);
}
);
width = 480;
}
);
unicode = 80;
},
{
glyphname = Thorn;
lastChange = "2024-09-04 09:03:03 +0000";
layers = (
{
layerId = m001;
shapes = (
{
closed = 1;
nodes = (
(165,700,l),
(165,0,l),
(80,0,l),
(80,700,l)
);
},
{
closed = 1;
nodes = (
(127,560,l),
(270,560,ls),
(405,560,o),
(508,479,o),
(508,350,cs),
(508,221,o),
(405,140,o),
(270,140,cs),
(127,140,l),
(127,220,l),
(270,220,ls),
(360,220,o),
(423,264,o),
(423,350,cs),
(423,436,o),
(360,480,o),
(270,480,cs),
(127,480,l)
);
}
);
width = 550;
},
{
layerId = "7E94446B-7650-4140-BC3E-80C3FEB621EC";
shapes = (
{
closed = 1;
nodes = (
(265,700,l),
(265,0,l),
(80,0,l),
(80,700,l)
);
},
{
closed = 1;
nodes = (
(202,590,l),
(335,590,ls),
(540,590,o),
(628,504,o),
(628,355,cs),
(628,206,o),
(540,120,o),
(335,120,cs),
(202,120,l),
(202,285,l),
(335,285,ls),
(404,285,o),
(438,299,o),
(438,355,cs),
(438,411,o),
(404,425,o),
(335,425,cs),
(202,425,l)
);
}
);
width = 650;
},
{
layerId = "F0B2A15B-B648-4C9E-81BA-2B413577DC71";
shapes = (
{
closed = 1;
nodes = (
(90,700,l),
(90,0,l),
(80,0,l),
(80,700,l)
);
},
{
closed = 1;
nodes = (
(84,560,l),
(240,560,ls),
(375,560,o),
(478,479,o),
(478,350,cs),
(478,221,o),
(375,140,o),
(240,140,cs),
(84,140,l),
(84,150,l),
(240,150,ls),
(365,150,o),
(467,234,o),
(467,350,cs),
(467,476,o),
(365,550,o),
(240,550,cs),
(84,550,l)
);
}
);
width = 520;
}
);
unicode = 222;
},
{
glyphname = Q;
kernLeft = C;
lastChange = "2024-09-04 09:03:03 +0000";
layers = (
{
layerId = m001;
shapes = (
{
closed = 1;
nodes = (
(130,192,o),
(242,75,o),
(395,75,cs),
(548,75,o),
(660,192,o),
(660,350,cs),
(660,508,o),
(548,625,o),
(395,625,cs),
(242,625,o),
(130,508,o),
(130,350,cs)
);
},
{
closed = 1;
nodes = (
(40,554,o),
(191,710,o),
(395,710,cs),
(599,710,o),
(750,554,o),
(750,350,cs),
(750,146,o),
(599,-10,o),
(395,-10,cs),
(191,-10,o),
(40,146,o),
(40,350,cs)
);
},
{
closed = 1;
nodes = (
(489,300,l),
(789,0,l),
(679,0,l),
(379,300,l)
);
}
);
width = 790;
},
{
layerId = "7E94446B-7650-4140-BC3E-80C3FEB621EC";
shapes = (
{
closed = 1;
nodes = (
(263,227,o),
(347,158,o),
(445,158,cs),
(543,158,o),
(607,217,o),
(607,320,cs),
(607,423,o),
(548,522,o),
(425,522,cs),
(327,522,o),
(263,453,o),
(263,350,cs)
);
},
{
closed = 1;
nodes = (
(30,574,o),
(206,720,o),
(425,720,cs),
(649,720,o),
(810,574,o),
(810,350,cs),
(810,126,o),
(654,-30,o),
(425,-30,cs),
(196,-30,o),
(30,126,o),
(30,350,cs)
);
},
{
closed = 1;
nodes = (
(558,300,l),
(918,-20,l),
(693,-20,l),
(343,300,l)
);
}
);
width = 908;
},
{
layerId = "F0B2A15B-B648-4C9E-81BA-2B413577DC71";
shapes = (
{
closed = 1;
nodes = (
(61,149,o),
(196,3,o),
(387,3,cs),
(578,3,o),
(713,149,o),
(713,350,cs),
(713,551,o),
(578,697,o),
(387,697,cs),
(196,697,o),
(61,551,o),
(61,350,cs)
);
},
{
closed = 1;
nodes = (
(50,559,o),
(193,708,o),
(387,708,cs),
(581,708,o),
(724,559,o),
(724,350,cs),
(724,141,o),
(581,-8,o),
(387,-8,cs),
(193,-8,o),
(50,141,o),
(50,350,cs)
);
},
{
closed = 1;
nodes = (
(416,300,l),
(736,0,l),
(720,0,l),
(400,300,l)
);
}
);
width = 771;
}
);
unicode = 81;
},
{
glyphname = R;
lastChange = "2024-09-04 09:03:03 +0000";
layers = (
{
layerId = m001;
shapes = (
{
closed = 1;
nodes = (
(300,345,l),
(550,0,l),
(445,0,l),
(205,345,l)
);
},
{
closed = 1;
nodes = (
(165,700,l),
(165,0,l),
(80,0,l),
(80,700,l)
);
},
{
closed = 1;
nodes = (
(127,700,l),
(270,700,ls),
(405,700,o),
(508,619,o),
(508,490,cs),
(508,361,o),
(405,280,o),
(270,280,cs),
(127,280,l),
(127,355,l),
(270,355,ls),
(360,355,o),
(423,404,o),
(423,490,cs),
(423,576,o),
(360,625,o),
(270,625,cs),
(127,625,l)
);
}
);
width = 560;
},
{
layerId = "7E94446B-7650-4140-BC3E-80C3FEB621EC";
shapes = (
{
closed = 1;
nodes = (
(500,300,l),
(700,0,l),
(445,0,l),
(275,300,l)
);
},
{
closed = 1;
nodes = (
(290,700,l),
(290,0,l),
(70,0,l),
(70,700,l)
);
},
{
closed = 1;
nodes = (
(212,700,l),
(365,700,ls),
(570,700,o),
(658,599,o),
(658,460,cs),
(658,321,o),
(570,220,o),
(365,220,cs),
(212,220,l),
(212,385,l),
(345,385,ls),
(400,385,o),
(428,409,o),
(428,450,cs),
(428,491,o),
(400,515,o),
(345,515,cs),
(212,515,l)
);
}
);
width = 700;
},
{
layerId = "F0B2A15B-B648-4C9E-81BA-2B413577DC71";
shapes = (
{
closed = 1;
nodes = (
(211,317,l),
(433,0,l),
(419,0,l),
(199,317,l)
);
},
{
closed = 1;
nodes = (
(101,700,l),
(101,0,l),
(90,0,l),
(90,700,l)
);
},
{
closed = 1;
nodes = (
(92,700,l),
(205,700,ls),
(340,700,o),
(441,636,o),
(441,507,cs),
(441,378,o),
(340,314,o),
(205,314,cs),
(92,314,l),
(92,324,l),
(205,324,ls),
(337,324,o),
(430,384,o),
(430,507,cs),
(430,630,o),
(336,689,o),
(205,689,cs),
(92,689,l)
);
}
);
width = 468;
}
);
unicode = 82;
},
{
glyphname = Racute;
lastChange = "2024-09-04 09:03:03 +0000";
layers = (
{
layerId = m001;
shapes = (
{
closed = 1;
nodes = (
(300,345,l),
(550,0,l),
(445,0,l),
(205,345,l)
);
},
{
closed = 1;
nodes = (
(165,700,l),
(165,0,l),
(80,0,l),
(80,700,l)
);
},
{
closed = 1;
nodes = (
(127,700,l),
(270,700,ls),
(405,700,o),
(508,619,o),
(508,490,cs),
(508,361,o),
(405,280,o),
(270,280,cs),
(127,280,l),
(127,355,l),
(270,355,ls),
(360,355,o),
(423,404,o),
(423,490,cs),
(423,576,o),
(360,625,o),
(270,625,cs),
(127,625,l)
);
},
{
closed = 1;
nodes = (
(225,770,l),
(180,800,l),
(330,960,l),
(405,920,l)
);
}
);
width = 560;
},
{
layerId = "7E94446B-7650-4140-BC3E-80C3FEB621EC";
shapes = (
{
closed = 1;
nodes = (
(500,300,l),
(700,0,l),
(445,0,l),
(275,300,l)
);
},
{
closed = 1;
nodes = (
(290,700,l),
(290,0,l),
(70,0,l),
(70,700,l)
);
},
{
closed = 1;
nodes = (
(212,700,l),
(365,700,ls),
(570,700,o),
(658,599,o),
(658,460,cs),
(658,321,o),
(570,220,o),
(365,220,cs),
(212,220,l),
(212,385,l),
(345,385,ls),
(400,385,o),
(428,409,o),
(428,450,cs),
(428,491,o),
(400,515,o),
(345,515,cs),
(212,515,l)
);
},
{
closed = 1;
nodes = (
(328,780,l),
(218,830,l),
(368,990,l),
(508,930,l)
);
}
);
width = 700;
},
{
layerId = "F0B2A15B-B648-4C9E-81BA-2B413577DC71";
shapes = (
{
closed = 1;
nodes = (
(211,317,l),
(433,0,l),
(419,0,l),
(199,317,l)
);
},
{
closed = 1;
nodes = (
(101,700,l),
(101,0,l),
(90,0,l),
(90,700,l)
);
},
{
closed = 1;
nodes = (
(92,700,l),
(205,700,ls),
(340,700,o),
(441,636,o),
(441,507,cs),
(441,378,o),
(340,314,o),
(205,314,cs),
(92,314,l),
(92,324,l),
(205,324,ls),
(337,324,o),
(430,384,o),
(430,507,cs),
(430,630,o),
(336,689,o),
(205,689,cs),
(92,689,l)
);
},
{
closed = 1;
nodes = (
(190,768,l),
(185,773,l),
(355,933,l),
(363,925,l)
);
}
);
width = 468;
}
);
unicode = 340;
},
{
glyphname = Rcaron;
lastChange = "2024-09-04 09:03:03 +0000";
layers = (
{
layerId = m001;
shapes = (
{
closed = 1;
nodes = (
(300,345,l),
(550,0,l),
(445,0,l),
(205,345,l)
);
},
{
closed = 1;
nodes = (
(165,700,l),
(165,0,l),
(80,0,l),
(80,700,l)
);
},
{
closed = 1;
nodes = (
(127,700,l),
(270,700,ls),
(405,700,o),
(508,619,o),
(508,490,cs),
(508,361,o),
(405,280,o),
(270,280,cs),
(127,280,l),
(127,355,l),
(270,355,ls),
(360,355,o),
(423,404,o),
(423,490,cs),
(423,576,o),
(360,625,o),
(270,625,cs),
(127,625,l)
);
},
{
closed = 1;
nodes = (
(365,950,l),
(415,910,l),
(255,770,l),
(95,910,l),
(145,950,l),
(255,855,l)
);
}
);
width = 560;
},
{
layerId = "7E94446B-7650-4140-BC3E-80C3FEB621EC";
shapes = (
{
closed = 1;
nodes = (
(500,300,l),
(700,0,l),
(445,0,l),
(275,300,l)
);
},
{
closed = 1;
nodes = (
(290,700,l),
(290,0,l),
(70,0,l),
(70,700,l)
);
},
{
closed = 1;
nodes = (
(212,700,l),
(365,700,ls),
(570,700,o),
(658,599,o),
(658,460,cs),
(658,321,o),
(570,220,o),
(365,220,cs),
(212,220,l),
(212,385,l),
(345,385,ls),
(400,385,o),
(428,409,o),
(428,450,cs),
(428,491,o),
(400,515,o),
(345,515,cs),
(212,515,l)
);
},
{
closed = 1;
nodes = (
(428,1010,l),
(568,920,l),
(348,780,l),
(128,920,l),
(268,1010,l),
(348,930,l)
);
}
);
width = 700;
},
{
layerId = "F0B2A15B-B648-4C9E-81BA-2B413577DC71";
shapes = (
{
closed = 1;
nodes = (
(211,317,l),
(433,0,l),
(419,0,l),
(199,317,l)
);
},
{
closed = 1;
nodes = (
(101,700,l),
(101,0,l),
(90,0,l),
(90,700,l)
);
},
{
closed = 1;
nodes = (
(92,700,l),
(205,700,ls),
(340,700,o),
(441,636,o),
(441,507,cs),
(441,378,o),
(340,314,o),
(205,314,cs),
(92,314,l),
(92,324,l),
(205,324,ls),
(337,324,o),
(430,384,o),
(430,507,cs),
(430,630,o),
(336,689,o),
(205,689,cs),
(92,689,l)
);
},
{
closed = 1;
nodes = (
(380,916,l),
(388,908,l),
(228,768,l),
(68,908,l),
(76,916,l),
(228,780,l)
);
}
);
width = 468;
}
);
unicode = 344;
},
{
glyphname = Rcommaaccent;
lastChange = "2024-09-04 09:03:03 +0000";
layers = (
{
layerId = m001;
shapes = (
{
closed = 1;
nodes = (
(300,345,l),
(550,0,l),
(445,0,l),
(205,345,l)
);
},
{
closed = 1;
nodes = (
(165,700,l),
(165,0,l),
(80,0,l),
(80,700,l)
);
},
{
closed = 1;
nodes = (
(127,700,l),
(270,700,ls),
(405,700,o),
(508,619,o),
(508,490,cs),
(508,361,o),
(405,280,o),
(270,280,cs),
(127,280,l),
(127,355,l),
(270,355,ls),
(360,355,o),
(423,404,o),
(423,490,cs),
(423,576,o),
(360,625,o),
(270,625,cs),
(127,625,l)
);
},
{
closed = 1;
nodes = (
(399,-90,l),
(289,-340,l),
(231,-319,l),
(319,-60,l)
);
}
);
width = 560;
},
{
layerId = "7E94446B-7650-4140-BC3E-80C3FEB621EC";
shapes = (
{
closed = 1;
nodes = (
(500,300,l),
(700,0,l),
(445,0,l),
(275,300,l)
);
},
{
closed = 1;
nodes = (
(290,700,l),
(290,0,l),
(70,0,l),
(70,700,l)
);
},
{
closed = 1;
nodes = (
(212,700,l),
(365,700,ls),
(570,700,o),
(658,599,o),
(658,460,cs),
(658,321,o),
(570,220,o),
(365,220,cs),
(212,220,l),
(212,385,l),
(345,385,ls),
(400,385,o),
(428,409,o),
(428,450,cs),
(428,491,o),
(400,515,o),
(345,515,cs),
(212,515,l)
);
},
{
closed = 1;
nodes = (
(526,-94,l),
(392,-344,l),
(244,-319,l),
(332,-60,l)
);
}
);
width = 700;
},
{
layerId = "F0B2A15B-B648-4C9E-81BA-2B413577DC71";
shapes = (
{
closed = 1;
nodes = (
(211,317,l),
(433,0,l),
(419,0,l),
(199,317,l)
);
},
{
closed = 1;
nodes = (
(101,700,l),
(101,0,l),
(90,0,l),
(90,700,l)
);
},
{
closed = 1;
nodes = (
(92,700,l),
(205,700,ls),
(340,700,o),
(441,636,o),
(441,507,cs),
(441,378,o),
(340,314,o),
(205,314,cs),
(92,314,l),
(92,324,l),
(205,324,ls),
(337,324,o),
(430,384,o),
(430,507,cs),
(430,630,o),
(336,689,o),
(205,689,cs),
(92,689,l)
);
},
{
closed = 1;
nodes = (
(270,-65,l),
(160,-315,l),
(154,-313,l),
(258,-60,l)
);
}
);
width = 468;
}
);
unicode = 342;
},
{
glyphname = Rinvertedbreve;
lastChange = "2024-09-04 09:03:03 +0000";
layers = (
{
layerId = m001;
shapes = (
{
closed = 1;
nodes = (
(300,345,l),
(550,0,l),
(445,0,l),
(205,345,l)
);
},
{
closed = 1;
nodes = (
(165,700,l),
(165,0,l),
(80,0,l),
(80,700,l)
);
},
{
closed = 1;
nodes = (
(127,700,l),
(270,700,ls),
(405,700,o),
(508,619,o),
(508,490,cs),
(508,361,o),
(405,280,o),
(270,280,cs),
(127,280,l),
(127,355,l),
(270,355,ls),
(360,355,o),
(423,404,o),
(423,490,cs),
(423,576,o),
(360,625,o),
(270,625,cs),
(127,625,l)
);
},
{
closed = 1;
nodes = (
(188,770,l),
(188,796,o),
(205,845,o),
(275,845,cs),
(345,845,o),
(362,796,o),
(362,770,c),
(433,770,l),
(433,839,o),
(380,910,o),
(275,910,cs),
(170,910,o),
(117,839,o),
(117,770,c)
);
}
);
width = 560;
},
{
layerId = "7E94446B-7650-4140-BC3E-80C3FEB621EC";
shapes = (
{
closed = 1;
nodes = (
(500,300,l),
(700,0,l),
(445,0,l),
(275,300,l)
);
},
{
closed = 1;
nodes = (
(290,700,l),
(290,0,l),
(70,0,l),
(70,700,l)
);
},
{
closed = 1;
nodes = (
(212,700,l),
(365,700,ls),
(570,700,o),
(658,599,o),
(658,460,cs),
(658,321,o),
(570,220,o),
(365,220,cs),
(212,220,l),
(212,385,l),
(345,385,ls),
(400,385,o),
(428,409,o),
(428,450,cs),
(428,491,o),
(400,515,o),
(345,515,cs),
(212,515,l)
);
},
{
closed = 1;
nodes = (
(306,780,l),
(306,821,o),
(338,830,o),
(358,830,cs),
(378,830,o),
(410,821,o),
(410,780,c),
(526,780,l),
(526,869,o),
(463,930,o),
(358,930,cs),
(253,930,o),
(190,869,o),
(190,780,c)
);
}
);
width = 700;
},
{
layerId = "F0B2A15B-B648-4C9E-81BA-2B413577DC71";
shapes = (
{
closed = 1;
nodes = (
(211,317,l),
(433,0,l),
(419,0,l),
(199,317,l)
);
},
{
closed = 1;
nodes = (
(101,700,l),
(101,0,l),
(90,0,l),
(90,700,l)
);
},
{
closed = 1;
nodes = (
(92,700,l),
(205,700,ls),
(340,700,o),
(441,636,o),
(441,507,cs),
(441,378,o),
(340,314,o),
(205,314,cs),
(92,314,l),
(92,324,l),
(205,324,ls),
(337,324,o),
(430,384,o),
(430,507,cs),
(430,630,o),
(336,689,o),
(205,689,cs),
(92,689,l)
);
},
{
closed = 1;
nodes = (
(110,768,l),
(110,834,o),
(166,898,o),
(258,898,cs),
(350,898,o),
(406,834,o),
(406,768,c),
(416,768,l),
(416,837,o),
(363,908,o),
(258,908,cs),
(153,908,o),
(100,837,o),
(100,768,c)
);
}
);
width = 468;
}
);
unicode = 530;
},
{
glyphname = S;
lastChange = "2024-09-04 09:03:03 +0000";
layers = (
{
layerId = m001;
shapes = (
{
closed = 1;
nodes = (
(153,127,o),
(207,70,o),
(291,70,cs),
(366,70,o),
(415,116,o),
(415,180,cs),
(415,274,o),
(340,303,o),
(260,332,cs),
(190,357,o),
(75,402,o),
(75,529,cs),
(75,633,o),
(159,710,o),
(278,710,cs),
(391,710,o),
(462,636,o),
(497,563,c),
(424,521,l),
(397,573,o),
(355,629,o),
(273,629,cs),
(197,629,o),
(164,585,o),
(164,540,cs),
(164,481,o),
(203,440,o),
(326,398,cs),
(401,372,o),
(503,317,o),
(503,190,cs),
(503,68,o),
(399,-10,o),
(288,-10,cs),
(174,-10,o),
(83,73,o),
(38,166,c),
(106,212,l)
);
}
);
width = 548;
},
{
layerId = "7E94446B-7650-4140-BC3E-80C3FEB621EC";
shapes = (
{
closed = 1;
nodes = (
(218,195,o),
(279,154,o),
(342,154,cs),
(377,154,o),
(404,167,o),
(404,198,cs),
(404,225,o),
(386,236,o),
(272,280,cs),
(204,306,o),
(84,368,o),
(84,509,cs),
(84,646,o),
(207,720,o),
(353,720,cs),
(511,720,o),
(599,635,o),
(637,564,c),
(474,474,l),
(441,523,o),
(398,542,o),
(360,542,cs),
(329,542,o),
(308,532,o),
(308,509,cs),
(308,467,o),
(376,452,o),
(458,423,cs),
(570,384,o),
(637,313,o),
(637,205,cs),
(637,49,o),
(496,-30,o),
(352,-30,cs),
(201,-30,o),
(77,51,o),
(30,158,c),
(178,266,l)
);
}
);
width = 672;
},
{
layerId = "F0B2A15B-B648-4C9E-81BA-2B413577DC71";
shapes = (
{
closed = 1;
nodes = (
(75,94,o),
(129,3,o),
(257,3,cs),
(369,3,o),
(432,74,o),
(432,170,cs),
(432,281,o),
(347,328,o),
(267,359,cs),
(170,397,o),
(80,446,o),
(80,554,cs),
(80,650,o),
(150,708,o),
(246,708,cs),
(353,708,o),
(412,636,o),
(430,578,c),
(419,574,l),
(400,629,o),
(350,696,o),
(246,696,cs),
(155,696,o),
(91,644,o),
(91,554,cs),
(91,451,o),
(175,406,o),
(273,368,cs),
(356,336,o),
(443,286,o),
(443,170,cs),
(443,69,o),
(376,-8,o),
(257,-8,cs),
(126,-8,o),
(68,81,o),
(53,185,c),
(64,188,l)
);
}
);
width = 488;
}
);
unicode = 83;
},
{
glyphname = Sacute;
lastChange = "2024-09-04 09:03:03 +0000";
layers = (
{
layerId = m001;
shapes = (
{
closed = 1;
nodes = (
(154,130,o),
(208,70,o),
(295,70,cs),
(375,70,o),
(415,113,o),
(415,183,cs),
(415,273,o),
(331,309,o),
(251,338,cs),
(181,363,o),
(75,416,o),
(75,535,cs),
(75,641,o),
(164,710,o),
(278,710,cs),
(391,710,o),
(466,631,o),
(494,560,c),
(425,514,l),
(395,572,o),
(356,629,o),
(279,629,cs),
(209,629,o),
(164,590,o),
(164,529,cs),
(164,461,o),
(241,428,o),
(326,396,cs),
(399,369,o),
(503,317,o),
(503,190,cs),
(503,71,o),
(429,-10,o),
(290,-10,cs),
(175,-10,o),
(84,68,o),
(40,183,c),
(112,226,l)
);
},
{
closed = 1;
nodes = (
(278,770,l),
(233,800,l),
(383,960,l),
(458,920,l)
);
}
);
width = 548;
},
{
layerId = "7E94446B-7650-4140-BC3E-80C3FEB621EC";
shapes = (
{
closed = 1;
nodes = (
(230,190,o),
(273,158,o),
(340,158,cs),
(380,158,o),
(404,169,o),
(404,199,cs),
(404,239,o),
(352,247,o),
(272,280,cs),
(204,308,o),
(74,363,o),
(74,510,cs),
(74,636,o),
(183,720,o),
(347,720,cs),
(520,720,o),
(599,635,o),
(627,564,c),
(464,474,l),
(434,522,o),
(398,539,o),
(358,539,cs),
(322,539,o),
(298,525,o),
(298,504,cs),
(298,468,o),
(376,452,o),
(458,423,cs),
(570,384,o),
(637,317,o),
(637,200,cs),
(637,43,o),
(515,-30,o),
(336,-30,cs),
(201,-30,o),
(74,43,o),
(30,158,c),
(178,266,l)
);
},
{
closed = 1;
nodes = (
(347,780,l),
(237,830,l),
(387,990,l),
(527,930,l)
);
}
);
width = 672;
},
{
layerId = "F0B2A15B-B648-4C9E-81BA-2B413577DC71";
shapes = (
{
closed = 1;
nodes = (
(77,109,o),
(134,3,o),
(255,3,cs),
(385,3,o),
(432,77,o),
(432,175,cs),
(432,278,o),
(343,331,o),
(267,359,cs),
(187,388,o),
(80,442,o),
(80,550,cs),
(80,646,o),
(159,708,o),
(253,708,cs),
(366,708,o),
(421,621,o),
(439,550,c),
(429,548,l),
(410,615,o),
(359,697,o),
(253,697,cs),
(163,697,o),
(91,636,o),
(91,550,cs),
(91,450,o),
(188,399,o),
(273,368,cs),
(356,338,o),
(443,283,o),
(443,175,cs),
(443,76,o),
(394,-8,o),
(255,-8,cs),
(130,-8,o),
(69,96,o),
(40,193,c),
(50,197,l)
);
},
{
closed = 1;
nodes = (
(236,768,l),
(230,773,l),
(400,933,l),
(408,925,l)
);
}
);
width = 488;
}
);
unicode = 346;
},
{
glyphname = Scaron;
lastChange = "2024-09-04 09:03:03 +0000";
layers = (
{
layerId = m001;
shapes = (
{
closed = 1;
nodes = (
(154,130,o),
(208,70,o),
(295,70,cs),
(375,70,o),
(415,113,o),
(415,183,cs),
(415,273,o),
(331,309,o),
(251,338,cs),
(181,363,o),
(75,416,o),
(75,535,cs),
(75,641,o),
(164,710,o),
(278,710,cs),
(391,710,o),
(466,631,o),
(494,560,c),
(425,514,l),
(395,572,o),
(356,629,o),
(279,629,cs),
(209,629,o),
(164,590,o),
(164,529,cs),
(164,461,o),
(241,428,o),
(326,396,cs),
(399,369,o),
(503,317,o),
(503,190,cs),
(503,71,o),
(429,-10,o),
(290,-10,cs),
(175,-10,o),
(84,68,o),
(40,183,c),
(112,226,l)
);
},
{
closed = 1;
nodes = (
(388,950,l),
(438,910,l),
(278,770,l),
(118,910,l),
(168,950,l),
(278,855,l)
);
}
);
width = 548;
},
{
layerId = "7E94446B-7650-4140-BC3E-80C3FEB621EC";
shapes = (
{
closed = 1;
nodes = (
(230,190,o),
(273,158,o),
(340,158,cs),
(380,158,o),
(404,169,o),
(404,199,cs),
(404,239,o),
(352,247,o),
(272,280,cs),
(204,308,o),
(74,363,o),
(74,510,cs),
(74,636,o),
(183,720,o),
(347,720,cs),
(520,720,o),
(599,635,o),
(627,564,c),
(464,474,l),
(434,522,o),
(398,539,o),
(358,539,cs),
(322,539,o),
(298,525,o),
(298,504,cs),
(298,468,o),
(376,452,o),
(458,423,cs),
(570,384,o),
(637,317,o),
(637,200,cs),
(637,43,o),
(515,-30,o),
(336,-30,cs),
(201,-30,o),
(74,43,o),
(30,158,c),
(178,266,l)
);
},
{
closed = 1;
nodes = (
(427,1010,l),
(567,920,l),
(347,780,l),
(127,920,l),
(267,1010,l),
(347,930,l)
);
}
);
width = 672;
},
{
layerId = "F0B2A15B-B648-4C9E-81BA-2B413577DC71";
shapes = (
{
closed = 1;
nodes = (
(77,109,o),
(134,3,o),
(255,3,cs),
(385,3,o),
(432,77,o),
(432,175,cs),
(432,278,o),
(343,331,o),
(267,359,cs),
(187,388,o),
(80,442,o),
(80,550,cs),
(80,646,o),
(159,708,o),
(253,708,cs),
(366,708,o),
(421,621,o),
(439,550,c),
(429,548,l),
(410,615,o),
(359,697,o),
(253,697,cs),
(163,697,o),
(91,636,o),
(91,550,cs),
(91,450,o),
(188,399,o),
(273,368,cs),
(356,338,o),
(443,283,o),
(443,175,cs),
(443,76,o),
(394,-8,o),
(255,-8,cs),
(130,-8,o),
(69,96,o),
(40,193,c),
(50,197,l)
);
},
{
closed = 1;
nodes = (
(405,926,l),
(413,918,l),
(253,778,l),
(93,918,l),
(101,926,l),
(253,790,l)
);
}
);
width = 488;
}
);
unicode = 352;
},
{
glyphname = Scedilla;
lastChange = "2024-09-04 09:03:03 +0000";
layers = (
{
layerId = m001;
shapes = (
{
closed = 1;
nodes = (
(154,130,o),
(208,70,o),
(295,70,cs),
(375,70,o),
(415,113,o),
(415,183,cs),
(415,273,o),
(331,309,o),
(251,338,cs),
(181,363,o),
(75,401,o),
(75,530,cs),
(75,636,o),
(154,710,o),
(278,710,cs),
(391,710,o),
(457,641,o),
(494,560,c),
(425,514,l),
(395,572,o),
(346,629,o),
(269,629,cs),
(199,629,o),
(164,590,o),
(164,529,cs),
(164,461,o),
(241,428,o),
(326,396,cs),
(399,369,o),
(503,317,o),
(503,190,cs),
(503,71,o),
(419,-10,o),
(290,-10,cs),
(175,-10,o),
(84,68,o),
(40,183,c),
(112,226,l)
);
},
{
closed = 1;
nodes = (
(360,59,l),
(297,-53,l),
(300,-53,o),
(303,-53,o),
(306,-53,cs),
(339,-53,o),
(378,-78,o),
(378,-127,cs),
(378,-188,o),
(327,-221,o),
(272,-221,cs),
(235,-221,o),
(210,-211,o),
(182,-183,c),
(216,-143,l),
(235,-159,o),
(246,-167,o),
(272,-167,cs),
(306,-167,o),
(322,-151,o),
(322,-127,cs),
(322,-103,o),
(306,-91,o),
(272,-91,cs),
(262,-91,o),
(235,-95,o),
(214,-109,c),
(300,59,l)
);
}
);
width = 548;
},
{
layerId = "7E94446B-7650-4140-BC3E-80C3FEB621EC";
shapes = (
{
closed = 1;
nodes = (
(230,190,o),
(273,158,o),
(340,158,cs),
(380,158,o),
(404,169,o),
(404,199,cs),
(404,239,o),
(352,247,o),
(272,280,cs),
(204,308,o),
(74,363,o),
(74,510,cs),
(74,636,o),
(183,720,o),
(347,720,cs),
(520,720,o),
(599,635,o),
(627,564,c),
(464,474,l),
(434,522,o),
(398,539,o),
(358,539,cs),
(322,539,o),
(298,525,o),
(298,504,cs),
(298,468,o),
(376,452,o),
(458,423,cs),
(570,384,o),
(637,317,o),
(637,200,cs),
(637,43,o),
(515,-30,o),
(336,-30,cs),
(201,-30,o),
(74,43,o),
(30,158,c),
(178,266,l)
);
},
{
closed = 1;
nodes = (
(426,56,l),
(326,-72,l),
(342,-67,o),
(359,-66,o),
(379,-66,cs),
(423,-66,o),
(482,-102,o),
(482,-178,cs),
(482,-257,o),
(404,-296,o),
(336,-296,cs),
(269,-296,o),
(217,-287,o),
(159,-256,c),
(212,-170,l),
(241,-190,o),
(288,-196,o),
(304,-196,cs),
(338,-196,o),
(361,-188,o),
(361,-164,cs),
(361,-136,o),
(323,-134,o),
(294,-134,cs),
(284,-134,o),
(240,-135,o),
(197,-149,c),
(286,62,l)
);
}
);
width = 672;
},
{
layerId = "F0B2A15B-B648-4C9E-81BA-2B413577DC71";
shapes = (
{
closed = 1;
nodes = (
(77,109,o),
(134,3,o),
(255,3,cs),
(385,3,o),
(432,77,o),
(432,175,cs),
(432,278,o),
(343,331,o),
(267,359,cs),
(187,388,o),
(80,442,o),
(80,550,cs),
(80,646,o),
(159,708,o),
(253,708,cs),
(366,708,o),
(421,621,o),
(439,550,c),
(429,548,l),
(410,615,o),
(359,697,o),
(253,697,cs),
(163,697,o),
(91,636,o),
(91,550,cs),
(91,450,o),
(188,399,o),
(273,368,cs),
(356,338,o),
(443,283,o),
(443,175,cs),
(443,76,o),
(394,-8,o),
(255,-8,cs),
(130,-8,o),
(69,96,o),
(40,193,c),
(50,197,l)
);
},
{
closed = 1;
nodes = (
(261,-1,l),
(205,-77,l),
(231,-61,o),
(242,-53,o),
(275,-53,cs),
(308,-53,o),
(348,-78,o),
(348,-127,cs),
(348,-188,o),
(296,-221,o),
(241,-221,cs),
(204,-221,o),
(180,-211,o),
(152,-183,c),
(159,-177,l),
(187,-201,o),
(208,-211,o),
(241,-211,cs),
(288,-211,o),
(338,-183,o),
(338,-127,cs),
(338,-83,o),
(304,-63,o),
(275,-63,cs),
(245,-63,o),
(217,-73,o),
(194,-89,c),
(249,-1,l)
);
}
);
width = 488;
}
);
unicode = 350;
},
{
glyphname = Scircumflex;
lastChange = "2024-09-04 09:03:03 +0000";
layers = (
{
layerId = m001;
shapes = (
{
closed = 1;
nodes = (
(154,130,o),
(208,70,o),
(295,70,cs),
(375,70,o),
(415,113,o),
(415,183,cs),
(415,273,o),
(331,309,o),
(251,338,cs),
(181,363,o),
(75,416,o),
(75,535,cs),
(75,641,o),
(164,710,o),
(278,710,cs),
(391,710,o),
(466,631,o),
(494,560,c),
(425,514,l),
(395,572,o),
(356,629,o),
(279,629,cs),
(209,629,o),
(164,590,o),
(164,529,cs),
(164,461,o),
(241,428,o),
(326,396,cs),
(399,369,o),
(503,317,o),
(503,190,cs),
(503,71,o),
(429,-10,o),
(290,-10,cs),
(175,-10,o),
(84,68,o),
(40,183,c),
(112,226,l)
);
},
{
closed = 1;
nodes = (
(168,770,l),
(118,810,l),
(278,950,l),
(438,810,l),
(388,770,l),
(278,865,l)
);
}
);
width = 548;
},
{
layerId = "7E94446B-7650-4140-BC3E-80C3FEB621EC";
shapes = (
{
closed = 1;
nodes = (
(230,190,o),
(273,158,o),
(340,158,cs),
(380,158,o),
(404,169,o),
(404,199,cs),
(404,239,o),
(352,247,o),
(272,280,cs),
(204,308,o),
(74,363,o),
(74,510,cs),
(74,636,o),
(183,720,o),
(347,720,cs),
(520,720,o),
(599,635,o),
(627,564,c),
(464,474,l),
(434,522,o),
(398,539,o),
(358,539,cs),
(322,539,o),
(298,525,o),
(298,504,cs),
(298,468,o),
(376,452,o),
(458,423,cs),
(570,384,o),
(637,317,o),
(637,200,cs),
(637,43,o),
(515,-30,o),
(336,-30,cs),
(201,-30,o),
(74,43,o),
(30,158,c),
(178,266,l)
);
},
{
closed = 1;
nodes = (
(267,780,l),
(127,870,l),
(347,1010,l),
(567,870,l),
(427,780,l),
(347,860,l)
);
}
);
width = 672;
},
{
layerId = "F0B2A15B-B648-4C9E-81BA-2B413577DC71";
shapes = (
{
closed = 1;
nodes = (
(77,109,o),
(134,3,o),
(255,3,cs),
(385,3,o),
(432,77,o),
(432,175,cs),
(432,278,o),
(343,331,o),
(267,359,cs),
(187,388,o),
(80,442,o),
(80,550,cs),
(80,646,o),
(159,708,o),
(253,708,cs),
(366,708,o),
(421,621,o),
(439,550,c),
(429,548,l),
(410,615,o),
(359,697,o),
(253,697,cs),
(163,697,o),
(91,636,o),
(91,550,cs),
(91,450,o),
(188,399,o),
(273,368,cs),
(356,338,o),
(443,283,o),
(443,175,cs),
(443,76,o),
(394,-8,o),
(255,-8,cs),
(130,-8,o),
(69,96,o),
(40,193,c),
(50,197,l)
);
},
{
closed = 1;
nodes = (
(100,768,l),
(93,775,l),
(253,915,l),
(413,775,l),
(406,768,l),
(253,903,l)
);
}
);
width = 488;
}
);
unicode = 348;
},
{
glyphname = Scommaaccent;
lastChange = "2024-09-04 09:03:03 +0000";
layers = (
{
layerId = m001;
shapes = (
{
closed = 1;
nodes = (
(154,130,o),
(208,70,o),
(295,70,cs),
(375,70,o),
(415,113,o),
(415,183,cs),
(415,273,o),
(331,309,o),
(251,338,cs),
(181,363,o),
(75,416,o),
(75,535,cs),
(75,641,o),
(164,710,o),
(278,710,cs),
(391,710,o),
(466,631,o),
(494,560,c),
(425,514,l),
(395,572,o),
(356,629,o),
(279,629,cs),
(209,629,o),
(164,590,o),
(164,529,cs),
(164,461,o),
(241,428,o),
(326,396,cs),
(399,369,o),
(503,317,o),
(503,190,cs),
(503,71,o),
(429,-10,o),
(290,-10,cs),
(175,-10,o),
(84,68,o),
(40,183,c),
(112,226,l)
);
},
{
closed = 1;
nodes = (
(374,-100,l),
(264,-350,l),
(206,-329,l),
(294,-70,l)
);
}
);
width = 548;
},
{
layerId = "7E94446B-7650-4140-BC3E-80C3FEB621EC";
shapes = (
{
closed = 1;
nodes = (
(230,190,o),
(273,158,o),
(340,158,cs),
(380,158,o),
(404,169,o),
(404,199,cs),
(404,239,o),
(352,247,o),
(272,280,cs),
(204,308,o),
(74,363,o),
(74,510,cs),
(74,636,o),
(183,720,o),
(347,720,cs),
(520,720,o),
(599,635,o),
(627,564,c),
(464,474,l),
(434,522,o),
(398,539,o),
(358,539,cs),
(322,539,o),
(298,525,o),
(298,504,cs),
(298,468,o),
(376,452,o),
(458,423,cs),
(570,384,o),
(637,317,o),
(637,200,cs),
(637,43,o),
(515,-30,o),
(336,-30,cs),
(201,-30,o),
(74,43,o),
(30,158,c),
(178,266,l)
);
},
{
closed = 1;
nodes = (
(438,-104,l),
(302,-354,l),
(154,-329,l),
(242,-70,l)
);
}
);
width = 672;
},
{
layerId = "F0B2A15B-B648-4C9E-81BA-2B413577DC71";
shapes = (
{
closed = 1;
nodes = (
(77,109,o),
(134,3,o),
(255,3,cs),
(385,3,o),
(432,77,o),
(432,175,cs),
(432,278,o),
(343,331,o),
(267,359,cs),
(187,388,o),
(80,442,o),
(80,550,cs),
(80,646,o),
(159,708,o),
(253,708,cs),
(366,708,o),
(421,621,o),
(439,550,c),
(429,548,l),
(410,615,o),
(359,697,o),
(253,697,cs),
(163,697,o),
(91,636,o),
(91,550,cs),
(91,450,o),
(188,399,o),
(273,368,cs),
(356,338,o),
(443,283,o),
(443,175,cs),
(443,76,o),
(394,-8,o),
(255,-8,cs),
(130,-8,o),
(69,96,o),
(40,193,c),
(50,197,l)
);
},
{
closed = 1;
nodes = (
(313,-73,l),
(203,-323,l),
(197,-321,l),
(302,-68,l)
);
}
);
width = 488;
}
);
unicode = 536;
},
{
glyphname = Germandbls;
lastChange = "2024-09-04 09:03:03 +0000";
layers = (
{
layerId = m001;
shapes = (
{
closed = 1;
nodes = (
(572,-12,o),
(678,68,o),
(678,182,cs),
(678,333,o),
(496,310,o),
(496,366,cs),
(496,412,o),
(622,426,o),
(622,552,cs),
(622,648,o),
(538,709,o),
(406,709,cs),
(238,709,o),
(80,612,o),
(80,389,cs),
(80,-2,l),
(166,-2,l),
(164,382,ls),
(164,554,o),
(268,624,o),
(393,624,cs),
(497,624,o),
(532,576,o),
(532,534,cs),
(532,451,o),
(398,456,o),
(398,360,cs),
(398,246,o),
(588,292,o),
(588,176,cs),
(588,102,o),
(509,74,o),
(428,74,cs),
(358,74,o),
(316,95,o),
(270,126,c),
(230,54,l),
(279,15,o),
(336,-12,o),
(422,-12,cs)
);
}
);
width = 716;
},
{
layerId = "7E94446B-7650-4140-BC3E-80C3FEB621EC";
shapes = (
{
closed = 1;
nodes = (
(754,-12,o),
(830,53,o),
(830,169,cs),
(830,301,o),
(719,315,o),
(719,356,cs),
(719,386,o),
(774,442,o),
(774,526,cs),
(774,628,o),
(669,720,o),
(445,720,cs),
(151,720,o),
(80,560,o),
(80,352,cs),
(80,-2,l),
(308,-2,l),
(308,330,ls),
(308,444,o),
(341,525,o),
(447,525,cs),
(492,525,o),
(533,504,o),
(533,472,cs),
(533,432,o),
(478,414,o),
(478,356,cs),
(478,275,o),
(598,269,o),
(598,200,cs),
(598,174,o),
(576,162,o),
(540,162,cs),
(509,162,o),
(451,175,o),
(388,198,c),
(350,22,l),
(427,1,o),
(528,-12,o),
(612,-12,cs)
);
}
);
width = 874;
},
{
layerId = "F0B2A15B-B648-4C9E-81BA-2B413577DC71";
shapes = (
{
closed = 1;
nodes = (
(548,-10,o),
(634,62,o),
(634,166,cs),
(634,324,o),
(424,309,o),
(424,365,cs),
(424,411,o),
(568,421,o),
(568,543,cs),
(568,633,o),
(490,708,o),
(348,708,cs),
(205,708,o),
(80,632,o),
(80,454,cs),
(80,0,l),
(92,0,l),
(92,448,ls),
(92,618,o),
(203,698,o),
(348,698,cs),
(490,698,o),
(556,623,o),
(556,543,cs),
(556,427,o),
(412,421,o),
(412,365,cs),
(412,297,o),
(622,320,o),
(622,166,cs),
(622,73,o),
(548,0,o),
(422,0,cs),
(362,0,o),
(294,16,o),
(236,62,c),
(228,55,l),
(278,15,o),
(346,-10,o),
(422,-10,cs)
);
}
);
width = 666;
}
);
unicode = 7838;
},
{
glyphname = T;
kernLeft = T;
kernRight = T;
lastChange = "2024-09-04 09:03:03 +0000";
layers = (
{
layerId = m001;
shapes = (
{
closed = 1;
nodes = (
(10,700,l),
(455,700,l),
(455,620,l),
(275,620,l),
(275,0,l),
(190,0,l),
(190,620,l),
(10,620,l)
);
}
);
width = 465;
},
{
layerId = "7E94446B-7650-4140-BC3E-80C3FEB621EC";
shapes = (
{
closed = 1;
nodes = (
(0,700,l),
(620,700,l),
(620,505,l),
(420,505,l),
(420,0,l),
(200,0,l),
(200,505,l),
(0,505,l)
);
}
);
width = 620;
},
{
layerId = "F0B2A15B-B648-4C9E-81BA-2B413577DC71";
shapes = (
{
closed = 1;
nodes = (
(20,700,l),
(411,700,l),
(411,689,l),
(221,689,l),
(221,0,l),
(210,0,l),
(210,689,l),
(20,689,l)
);
}
);
width = 431;
}
);
unicode = 84;
},
{
glyphname = Tcaron;
kernLeft = T;
kernRight = T;
lastChange = "2024-09-04 09:03:03 +0000";
layers = (
{
layerId = m001;
shapes = (
{
closed = 1;
nodes = (
(10,700,l),
(455,700,l),
(455,620,l),
(275,620,l),
(275,0,l),
(190,0,l),
(190,620,l),
(10,620,l)
);
},
{
closed = 1;
nodes = (
(343,950,l),
(393,910,l),
(233,770,l),
(73,910,l),
(123,950,l),
(233,855,l)
);
}
);
width = 465;
},
{
layerId = "7E94446B-7650-4140-BC3E-80C3FEB621EC";
shapes = (
{
closed = 1;
nodes = (
(0,700,l),
(620,700,l),
(620,505,l),
(420,505,l),
(420,0,l),
(200,0,l),
(200,505,l),
(0,505,l)
);
},
{
closed = 1;
nodes = (
(390,1010,l),
(530,920,l),
(310,780,l),
(90,920,l),
(230,1010,l),
(310,930,l)
);
}
);
width = 620;
},
{
layerId = "F0B2A15B-B648-4C9E-81BA-2B413577DC71";
shapes = (
{
closed = 1;
nodes = (
(20,700,l),
(411,700,l),
(411,689,l),
(221,689,l),
(221,0,l),
(210,0,l),
(210,689,l),
(20,689,l)
);
},
{
closed = 1;
nodes = (
(368,916,l),
(376,908,l),
(216,768,l),
(56,908,l),
(64,916,l),
(216,780,l)
);
}
);
width = 431;
}
);
unicode = 356;
},
{
glyphname = Tcedilla;
kernLeft = T;
kernRight = T;
lastChange = "2024-09-04 09:03:03 +0000";
layers = (
{
layerId = m001;
shapes = (
{
closed = 1;
nodes = (
(263,9,l),
(199,-103,l),
(202,-103,o),
(205,-103,o),
(208,-103,cs),
(241,-103,o),
(281,-128,o),
(281,-177,cs),
(281,-238,o),
(229,-271,o),
(174,-271,cs),
(137,-271,o),
(113,-261,o),
(85,-233,c),
(118,-193,l),
(137,-209,o),
(148,-217,o),
(174,-217,cs),
(208,-217,o),
(224,-201,o),
(224,-177,cs),
(224,-153,o),
(208,-141,o),
(174,-141,cs),
(164,-141,o),
(138,-145,o),
(117,-159,c),
(202,9,l)
);
},
{
closed = 1;
nodes = (
(10,700,l),
(455,700,l),
(455,620,l),
(275,620,l),
(275,0,l),
(190,0,l),
(190,620,l),
(10,620,l)
);
}
);
width = 465;
},
{
layerId = "7E94446B-7650-4140-BC3E-80C3FEB621EC";
shapes = (
{
closed = 1;
nodes = (
(380,6,l),
(280,-122,l),
(296,-117,o),
(313,-116,o),
(333,-116,cs),
(377,-116,o),
(436,-152,o),
(436,-228,cs),
(436,-307,o),
(358,-346,o),
(290,-346,cs),
(223,-346,o),
(171,-337,o),
(113,-306,c),
(166,-220,l),
(195,-240,o),
(242,-246,o),
(258,-246,cs),
(292,-246,o),
(315,-238,o),
(315,-214,cs),
(315,-186,o),
(277,-184,o),
(248,-184,cs),
(238,-184,o),
(194,-185,o),
(151,-199,c),
(240,12,l)
);
},
{
closed = 1;
nodes = (
(0,700,l),
(620,700,l),
(620,505,l),
(420,505,l),
(420,0,l),
(200,0,l),
(200,505,l),
(0,505,l)
);
}
);
width = 620;
},
{
layerId = "F0B2A15B-B648-4C9E-81BA-2B413577DC71";
shapes = (
{
closed = 1;
nodes = (
(222,0,l),
(166,-76,l),
(192,-60,o),
(203,-52,o),
(236,-52,cs),
(269,-52,o),
(309,-77,o),
(309,-126,cs),
(309,-187,o),
(257,-220,o),
(202,-220,cs),
(165,-220,o),
(141,-210,o),
(113,-182,c),
(120,-176,l),
(148,-200,o),
(169,-210,o),
(202,-210,cs),
(249,-210,o),
(299,-182,o),
(299,-126,cs),
(299,-82,o),
(265,-62,o),
(236,-62,cs),
(206,-62,o),
(178,-72,o),
(155,-88,c),
(210,0,l)
);
},
{
closed = 1;
nodes = (
(20,700,l),
(411,700,l),
(411,689,l),
(221,689,l),
(221,0,l),
(210,0,l),
(210,689,l),
(20,689,l)
);
}
);
width = 431;
}
);
unicode = 354;
},
{
glyphname = Tcommaaccent;
kernLeft = T;
kernRight = T;
lastChange = "2024-09-04 09:03:03 +0000";
layers = (
{
layerId = m001;
shapes = (
{
closed = 1;
nodes = (
(10,700,l),
(455,700,l),
(455,620,l),
(275,620,l),
(275,0,l),
(190,0,l),
(190,620,l),
(10,620,l)
);
},
{
closed = 1;
nodes = (
(317,-90,l),
(207,-340,l),
(149,-319,l),
(237,-60,l)
);
}
);
width = 465;
},
{
layerId = "7E94446B-7650-4140-BC3E-80C3FEB621EC";
shapes = (
{
closed = 1;
nodes = (
(0,700,l),
(620,700,l),
(620,505,l),
(420,505,l),
(420,0,l),
(200,0,l),
(200,505,l),
(0,505,l)
);
},
{
closed = 1;
nodes = (
(452,-94,l),
(317,-344,l),
(169,-319,l),
(257,-60,l)
);
}
);
width = 620;
},
{
layerId = "F0B2A15B-B648-4C9E-81BA-2B413577DC71";
shapes = (
{
closed = 1;
nodes = (
(20,700,l),
(411,700,l),
(411,689,l),
(221,689,l),
(221,0,l),
(210,0,l),
(210,689,l),
(20,689,l)
);
},
{
closed = 1;
nodes = (
(274,-65,l),
(164,-315,l),
(158,-313,l),
(263,-60,l)
);
}
);
width = 431;
}
);
unicode = 538;
},
{
glyphname = U;
lastChange = "2024-09-04 09:03:03 +0000";
layers = (
{
layerId = m001;
shapes = (
{
closed = 1;
nodes = (
(160,700,l),
(160,230,ls),
(160,134,o),
(213,70,o),
(313,70,cs),
(413,70,o),
(466,134,o),
(466,230,cs),
(466,700,l),
(551,700,l),
(551,230,ls),
(551,91,o),
(458,-10,o),
(313,-10,cs),
(168,-10,o),
(75,91,o),
(75,230,cs),
(75,700,l)
);
}
);
width = 626;
},
{
layerId = "7E94446B-7650-4140-BC3E-80C3FEB621EC";
shapes = (
{
closed = 1;
nodes = (
(285,700,l),
(285,250,ls),
(285,194,o),
(313,155,o),
(373,155,cs),
(433,155,o),
(461,194,o),
(461,250,cs),
(461,700,l),
(681,700,l),
(681,230,ls),
(681,31,o),
(538,-40,o),
(373,-40,cs),
(208,-40,o),
(65,31,o),
(65,230,cs),
(65,700,l)
);
}
);
width = 746;
},
{
layerId = "F0B2A15B-B648-4C9E-81BA-2B413577DC71";
shapes = (
{
closed = 1;
nodes = (
(96,700,l),
(96,220,ls),
(96,84,o),
(168,1,o),
(288,1,cs),
(408,1,o),
(480,84,o),
(480,220,cs),
(480,700,l),
(491,700,l),
(491,220,ls),
(491,81,o),
(423,-10,o),
(288,-10,cs),
(153,-10,o),
(85,81,o),
(85,220,cs),
(85,700,l)
);
}
);
width = 576;
}
);
unicode = 85;
},
{
glyphname = Uacute;
lastChange = "2024-09-04 09:03:03 +0000";
layers = (
{
layerId = m001;
shapes = (
{
closed = 1;
nodes = (
(160,700,l),
(160,230,ls),
(160,134,o),
(213,70,o),
(313,70,cs),
(413,70,o),
(466,134,o),
(466,230,cs),
(466,700,l),
(551,700,l),
(551,230,ls),
(551,91,o),
(458,-10,o),
(313,-10,cs),
(168,-10,o),
(75,91,o),
(75,230,cs),
(75,700,l)
);
},
{
closed = 1;
nodes = (
(263,770,l),
(218,800,l),
(368,960,l),
(443,920,l)
);
}
);
width = 626;
},
{
layerId = "7E94446B-7650-4140-BC3E-80C3FEB621EC";
shapes = (
{
closed = 1;
nodes = (
(285,700,l),
(285,250,ls),
(285,194,o),
(313,155,o),
(373,155,cs),
(433,155,o),
(461,194,o),
(461,250,cs),
(461,700,l),
(681,700,l),
(681,230,ls),
(681,31,o),
(538,-40,o),
(373,-40,cs),
(208,-40,o),
(65,31,o),
(65,230,cs),
(65,700,l)
);
},
{
closed = 1;
nodes = (
(373,780,l),
(263,830,l),
(413,990,l),
(553,930,l)
);
}
);
width = 746;
},
{
layerId = "F0B2A15B-B648-4C9E-81BA-2B413577DC71";
shapes = (
{
closed = 1;
nodes = (
(96,700,l),
(96,220,ls),
(96,84,o),
(168,1,o),
(288,1,cs),
(408,1,o),
(480,84,o),
(480,220,cs),
(480,700,l),
(491,700,l),
(491,220,ls),
(491,81,o),
(423,-10,o),
(288,-10,cs),
(153,-10,o),
(85,81,o),
(85,220,cs),
(85,700,l)
);
},
{
closed = 1;
nodes = (
(250,768,l),
(246,773,l),
(416,933,l),
(424,925,l)
);
}
);
width = 576;
}
);
unicode = 218;
},
{
glyphname = Ubreve;
lastChange = "2024-09-04 09:03:03 +0000";
layers = (
{
layerId = m001;
shapes = (
{
closed = 1;
nodes = (
(160,700,l),
(160,230,ls),
(160,134,o),
(213,70,o),
(313,70,cs),
(413,70,o),
(466,134,o),
(466,230,cs),
(466,700,l),
(551,700,l),
(551,230,ls),
(551,91,o),
(458,-10,o),
(313,-10,cs),
(168,-10,o),
(75,91,o),
(75,230,cs),
(75,700,l)
);
},
{
closed = 1;
nodes = (
(226,910,l),
(226,884,o),
(243,835,o),
(313,835,cs),
(383,835,o),
(400,884,o),
(400,910,c),
(471,910,l),
(471,841,o),
(418,770,o),
(313,770,cs),
(208,770,o),
(155,841,o),
(155,910,c)
);
}
);
width = 626;
},
{
layerId = "7E94446B-7650-4140-BC3E-80C3FEB621EC";
shapes = (
{
closed = 1;
nodes = (
(285,700,l),
(285,250,ls),
(285,194,o),
(313,155,o),
(373,155,cs),
(433,155,o),
(461,194,o),
(461,250,cs),
(461,700,l),
(681,700,l),
(681,230,ls),
(681,31,o),
(538,-40,o),
(373,-40,cs),
(208,-40,o),
(65,31,o),
(65,230,cs),
(65,700,l)
);
},
{
closed = 1;
nodes = (
(321,930,l),
(321,889,o),
(353,880,o),
(373,880,cs),
(393,880,o),
(425,889,o),
(425,930,c),
(541,930,l),
(541,841,o),
(478,780,o),
(373,780,cs),
(268,780,o),
(205,841,o),
(205,930,c)
);
}
);
width = 746;
},
{
layerId = "F0B2A15B-B648-4C9E-81BA-2B413577DC71";
shapes = (
{
closed = 1;
nodes = (
(96,700,l),
(96,220,ls),
(96,84,o),
(168,1,o),
(288,1,cs),
(408,1,o),
(480,84,o),
(480,220,cs),
(480,700,l),
(491,700,l),
(491,220,ls),
(491,81,o),
(423,-10,o),
(288,-10,cs),
(153,-10,o),
(85,81,o),
(85,220,cs),
(85,700,l)
);
},
{
closed = 1;
nodes = (
(140,908,l),
(140,842,o),
(196,778,o),
(288,778,cs),
(380,778,o),
(436,842,o),
(436,908,c),
(446,908,l),
(446,839,o),
(393,768,o),
(288,768,cs),
(183,768,o),
(130,839,o),
(130,908,c)
);
}
);
width = 576;
}
);
unicode = 364;
},
{
glyphname = Ucircumflex;
lastChange = "2024-09-04 09:03:03 +0000";
layers = (
{
layerId = m001;
shapes = (
{
closed = 1;
nodes = (
(160,700,l),
(160,230,ls),
(160,134,o),
(213,70,o),
(313,70,cs),
(413,70,o),
(466,134,o),
(466,230,cs),
(466,700,l),
(551,700,l),
(551,230,ls),
(551,91,o),
(458,-10,o),
(313,-10,cs),
(168,-10,o),
(75,91,o),
(75,230,cs),
(75,700,l)
);
},
{
closed = 1;
nodes = (
(203,770,l),
(153,810,l),
(313,950,l),
(473,810,l),
(423,770,l),
(313,865,l)
);
}
);
width = 626;
},
{
layerId = "7E94446B-7650-4140-BC3E-80C3FEB621EC";
shapes = (
{
closed = 1;
nodes = (
(285,700,l),
(285,250,ls),
(285,194,o),
(313,155,o),
(373,155,cs),
(433,155,o),
(461,194,o),
(461,250,cs),
(461,700,l),
(681,700,l),
(681,230,ls),
(681,31,o),
(538,-40,o),
(373,-40,cs),
(208,-40,o),
(65,31,o),
(65,230,cs),
(65,700,l)
);
},
{
closed = 1;
nodes = (
(293,780,l),
(153,870,l),
(373,1010,l),
(593,870,l),
(453,780,l),
(373,860,l)
);
}
);
width = 746;
},
{
layerId = "F0B2A15B-B648-4C9E-81BA-2B413577DC71";
shapes = (
{
closed = 1;
nodes = (
(96,700,l),
(96,220,ls),
(96,84,o),
(168,1,o),
(288,1,cs),
(408,1,o),
(480,84,o),
(480,220,cs),
(480,700,l),
(491,700,l),
(491,220,ls),
(491,81,o),
(423,-10,o),
(288,-10,cs),
(153,-10,o),
(85,81,o),
(85,220,cs),
(85,700,l)
);
},
{
closed = 1;
nodes = (
(135,768,l),
(128,775,l),
(288,915,l),
(448,775,l),
(441,768,l),
(288,903,l)
);
}
);
width = 576;
}
);
unicode = 219;
},
{
glyphname = Udieresis;
lastChange = "2024-09-04 09:03:03 +0000";
layers = (
{
layerId = m001;
shapes = (
{
closed = 1;
nodes = (
(160,700,l),
(160,230,ls),
(160,134,o),
(213,70,o),
(313,70,cs),
(413,70,o),
(466,134,o),
(466,230,cs),
(466,700,l),
(551,700,l),
(551,230,ls),
(551,91,o),
(458,-10,o),
(313,-10,cs),
(168,-10,o),
(75,91,o),
(75,230,cs),
(75,700,l)
);
},
{
closed = 1;
nodes = (
(358,855,o),
(383,880,o),
(413,880,cs),
(443,880,o),
(468,855,o),
(468,825,cs),
(468,795,o),
(443,770,o),
(413,770,cs),
(383,770,o),
(358,795,o),
(358,825,cs)
);
},
{
closed = 1;
nodes = (
(158,855,o),
(183,880,o),
(213,880,cs),
(243,880,o),
(268,855,o),
(268,825,cs),
(268,795,o),
(243,770,o),
(213,770,cs),
(183,770,o),
(158,795,o),
(158,825,cs)
);
}
);
width = 626;
},
{
layerId = "7E94446B-7650-4140-BC3E-80C3FEB621EC";
shapes = (
{
closed = 1;
nodes = (
(285,700,l),
(285,250,ls),
(285,194,o),
(313,155,o),
(373,155,cs),
(433,155,o),
(461,194,o),
(461,250,cs),
(461,700,l),
(681,700,l),
(681,230,ls),
(681,31,o),
(538,-40,o),
(373,-40,cs),
(208,-40,o),
(65,31,o),
(65,230,cs),
(65,700,l)
);
},
{
closed = 1;
nodes = (
(430,937,o),
(478,976,o),
(538,976,cs),
(598,976,o),
(646,937,o),
(646,878,cs),
(646,819,o),
(598,780,o),
(538,780,cs),
(478,780,o),
(430,819,o),
(430,878,cs)
);
},
{
closed = 1;
nodes = (
(100,937,o),
(148,976,o),
(208,976,cs),
(268,976,o),
(316,937,o),
(316,878,cs),
(316,819,o),
(268,780,o),
(208,780,cs),
(148,780,o),
(100,819,o),
(100,878,cs)
);
}
);
width = 746;
},
{
layerId = "F0B2A15B-B648-4C9E-81BA-2B413577DC71";
shapes = (
{
closed = 1;
nodes = (
(96,700,l),
(96,220,ls),
(96,84,o),
(168,1,o),
(288,1,cs),
(408,1,o),
(480,84,o),
(480,220,cs),
(480,700,l),
(491,700,l),
(491,220,ls),
(491,81,o),
(423,-10,o),
(288,-10,cs),
(153,-10,o),
(85,81,o),
(85,220,cs),
(85,700,l)
);
},
{
closed = 1;
nodes = (
(367,786,o),
(372,790,o),
(378,790,cs),
(384,790,o),
(389,786,o),
(389,779,cs),
(389,772,o),
(384,768,o),
(378,768,cs),
(372,768,o),
(367,772,o),
(367,779,cs)
);
},
{
closed = 1;
nodes = (
(187,786,o),
(192,790,o),
(198,790,cs),
(204,790,o),
(209,786,o),
(209,779,cs),
(209,772,o),
(204,768,o),
(198,768,cs),
(192,768,o),
(187,772,o),
(187,779,cs)
);
}
);
width = 576;
}
);
unicode = 220;
},
{
glyphname = Ugrave;
lastChange = "2024-09-04 09:03:03 +0000";
layers = (
{
layerId = m001;
shapes = (
{
closed = 1;
nodes = (
(160,700,l),
(160,230,ls),
(160,134,o),
(213,70,o),
(313,70,cs),
(413,70,o),
(466,134,o),
(466,230,cs),
(466,700,l),
(551,700,l),
(551,230,ls),
(551,91,o),
(458,-10,o),
(313,-10,cs),
(168,-10,o),
(75,91,o),
(75,230,cs),
(75,700,l)
);
},
{
closed = 1;
nodes = (
(258,960,l),
(408,800,l),
(363,770,l),
(183,920,l)
);
}
);
width = 626;
},
{
layerId = "7E94446B-7650-4140-BC3E-80C3FEB621EC";
shapes = (
{
closed = 1;
nodes = (
(285,700,l),
(285,250,ls),
(285,194,o),
(313,155,o),
(373,155,cs),
(433,155,o),
(461,194,o),
(461,250,cs),
(461,700,l),
(681,700,l),
(681,230,ls),
(681,31,o),
(538,-40,o),
(373,-40,cs),
(208,-40,o),
(65,31,o),
(65,230,cs),
(65,700,l)
);
},
{
closed = 1;
nodes = (
(333,990,l),
(483,830,l),
(373,780,l),
(193,930,l)
);
}
);
width = 746;
},
{
layerId = "F0B2A15B-B648-4C9E-81BA-2B413577DC71";
shapes = (
{
closed = 1;
nodes = (
(96,700,l),
(96,220,ls),
(96,84,o),
(168,1,o),
(288,1,cs),
(408,1,o),
(480,84,o),
(480,220,cs),
(480,700,l),
(491,700,l),
(491,220,ls),
(491,81,o),
(423,-10,o),
(288,-10,cs),
(153,-10,o),
(85,81,o),
(85,220,cs),
(85,700,l)
);
},
{
closed = 1;
nodes = (
(160,933,l),
(330,773,l),
(326,768,l),
(152,925,l)
);
}
);
width = 576;
}
);
unicode = 217;
},
{
glyphname = Uhungarumlaut;
lastChange = "2024-09-04 09:03:03 +0000";
layers = (
{
layerId = m001;
shapes = (
{
closed = 1;
nodes = (
(179,787,l),
(283,981,l),
(365,961,l),
(231,770,l)
);
},
{
closed = 1;
nodes = (
(344,787,l),
(447,981,l),
(531,961,l),
(395,770,l)
);
},
{
closed = 1;
nodes = (
(160,700,l),
(160,230,ls),
(160,134,o),
(213,70,o),
(313,70,cs),
(413,70,o),
(466,134,o),
(466,230,cs),
(466,700,l),
(551,700,l),
(551,230,ls),
(551,91,o),
(458,-10,o),
(313,-10,cs),
(168,-10,o),
(75,91,o),
(75,230,cs),
(75,700,l)
);
}
);
width = 626;
},
{
layerId = "7E94446B-7650-4140-BC3E-80C3FEB621EC";
shapes = (
{
closed = 1;
nodes = (
(156,810,l),
(276,994,l),
(424,958,l),
(273,780,l)
);
},
{
closed = 1;
nodes = (
(356,810,l),
(476,994,l),
(624,958,l),
(473,780,l)
);
},
{
closed = 1;
nodes = (
(285,700,l),
(285,250,ls),
(285,194,o),
(313,155,o),
(373,155,cs),
(433,155,o),
(461,194,o),
(461,250,cs),
(461,700,l),
(681,700,l),
(681,230,ls),
(681,31,o),
(538,-40,o),
(373,-40,cs),
(208,-40,o),
(65,31,o),
(65,230,cs),
(65,700,l)
);
}
);
width = 746;
},
{
layerId = "F0B2A15B-B648-4C9E-81BA-2B413577DC71";
shapes = (
{
closed = 1;
nodes = (
(235,771,l),
(340,979,l),
(350,974,l),
(241,768,l)
);
},
{
closed = 1;
nodes = (
(335,771,l),
(440,979,l),
(450,974,l),
(341,768,l)
);
},
{
closed = 1;
nodes = (
(96,700,l),
(96,220,ls),
(96,84,o),
(168,1,o),
(288,1,cs),
(408,1,o),
(480,84,o),
(480,220,cs),
(480,700,l),
(491,700,l),
(491,220,ls),
(491,81,o),
(423,-10,o),
(288,-10,cs),
(153,-10,o),
(85,81,o),
(85,220,cs),
(85,700,l)
);
}
);
width = 576;
}
);
unicode = 368;
},
{
glyphname = Umacron;
lastChange = "2024-09-04 09:03:03 +0000";
layers = (
{
layerId = m001;
shapes = (
{
closed = 1;
nodes = (
(160,700,l),
(160,230,ls),
(160,134,o),
(213,70,o),
(313,70,cs),
(413,70,o),
(466,134,o),
(466,230,cs),
(466,700,l),
(551,700,l),
(551,230,ls),
(551,91,o),
(458,-10,o),
(313,-10,cs),
(168,-10,o),
(75,91,o),
(75,230,cs),
(75,700,l)
);
},
{
closed = 1;
nodes = (
(138,845,l),
(488,845,l),
(488,770,l),
(138,770,l)
);
}
);
width = 626;
},
{
layerId = "7E94446B-7650-4140-BC3E-80C3FEB621EC";
shapes = (
{
closed = 1;
nodes = (
(285,700,l),
(285,250,ls),
(285,194,o),
(313,155,o),
(373,155,cs),
(433,155,o),
(461,194,o),
(461,250,cs),
(461,700,l),
(681,700,l),
(681,230,ls),
(681,31,o),
(538,-40,o),
(373,-40,cs),
(208,-40,o),
(65,31,o),
(65,230,cs),
(65,700,l)
);
},
{
closed = 1;
nodes = (
(181,945,l),
(566,945,l),
(566,780,l),
(181,780,l)
);
}
);
width = 746;
},
{
layerId = "F0B2A15B-B648-4C9E-81BA-2B413577DC71";
shapes = (
{
closed = 1;
nodes = (
(96,700,l),
(96,220,ls),
(96,84,o),
(168,1,o),
(288,1,cs),
(408,1,o),
(480,84,o),
(480,220,cs),
(480,700,l),
(491,700,l),
(491,220,ls),
(491,81,o),
(423,-10,o),
(288,-10,cs),
(153,-10,o),
(85,81,o),
(85,220,cs),
(85,700,l)
);
},
{
closed = 1;
nodes = (
(113,778,l),
(463,778,l),
(463,768,l),
(113,768,l)
);
}
);
width = 576;
}
);
unicode = 362;
},
{
glyphname = Uogonek;
lastChange = "2024-09-04 09:03:03 +0000";
layers = (
{
layerId = m001;
shapes = (
{
closed = 1;
nodes = (
(390,-184,l),
(375,-204,o),
(345,-224,o),
(302,-224,cs),
(218,-224,o),
(179,-183,o),
(179,-124,cs),
(179,-65,o),
(241,-15,o),
(311,21,c),
(352,-4,l),
(300,-26,o),
(259,-67,o),
(259,-104,cs),
(259,-140,o),
(277,-154,o),
(307,-154,cs),
(333,-154,o),
(343,-147,o),
(357,-134,c)
);
},
{
closed = 1;
nodes = (
(160,700,l),
(160,230,ls),
(160,134,o),
(213,70,o),
(313,70,cs),
(413,70,o),
(466,134,o),
(466,230,cs),
(466,700,l),
(551,700,l),
(551,230,ls),
(551,91,o),
(458,-10,o),
(313,-10,cs),
(168,-10,o),
(75,91,o),
(75,230,cs),
(75,700,l)
);
}
);
width = 626;
},
{
layerId = "7E94446B-7650-4140-BC3E-80C3FEB621EC";
shapes = (
{
closed = 1;
nodes = (
(452,-203,l),
(437,-223,o),
(407,-243,o),
(344,-243,cs),
(290,-243,o),
(231,-212,o),
(231,-143,cs),
(231,-74,o),
(303,-34,o),
(373,2,c),
(414,-23,l),
(362,-55,o),
(341,-86,o),
(341,-113,cs),
(341,-131,o),
(349,-143,o),
(369,-143,cs),
(385,-143,o),
(405,-136,o),
(419,-123,c)
);
},
{
closed = 1;
nodes = (
(285,700,l),
(285,250,ls),
(285,194,o),
(313,155,o),
(373,155,cs),
(433,155,o),
(461,194,o),
(461,250,cs),
(461,700,l),
(681,700,l),
(681,230,ls),
(681,31,o),
(538,-40,o),
(373,-40,cs),
(208,-40,o),
(65,31,o),
(65,230,cs),
(65,700,l)
);
}
);
width = 746;
},
{
layerId = "F0B2A15B-B648-4C9E-81BA-2B413577DC71";
shapes = (
{
closed = 1;
nodes = (
(345,-189,l),
(330,-209,o),
(290,-229,o),
(247,-229,cs),
(183,-229,o),
(144,-198,o),
(144,-149,cs),
(144,-80,o),
(227,-35,o),
(297,1,c),
(304,-9,l),
(236,-41,o),
(154,-92,o),
(154,-149,cs),
(154,-195,o),
(197,-219,o),
(247,-219,cs),
(287,-219,o),
(323,-200,o),
(338,-182,c)
);
},
{
closed = 1;
nodes = (
(96,700,l),
(96,220,ls),
(96,84,o),
(168,1,o),
(288,1,cs),
(408,1,o),
(480,84,o),
(480,220,cs),
(480,700,l),
(491,700,l),
(491,220,ls),
(491,81,o),
(423,-10,o),
(288,-10,cs),
(153,-10,o),
(85,81,o),
(85,220,cs),
(85,700,l)
);
}
);
width = 576;
}
);
unicode = 370;
},
{
glyphname = Uring;
lastChange = "2024-09-04 09:03:03 +0000";
layers = (
{
layerId = m001;
shapes = (
{
closed = 1;
nodes = (
(160,700,l),
(160,230,ls),
(160,134,o),
(213,70,o),
(313,70,cs),
(413,70,o),
(466,134,o),
(466,230,cs),
(466,700,l),
(551,700,l),
(551,230,ls),
(551,91,o),
(458,-10,o),
(313,-10,cs),
(168,-10,o),
(75,91,o),
(75,230,cs),
(75,700,l)
);
},
{
closed = 1;
nodes = (
(211,930,o),
(261,970,o),
(313,970,cs),
(365,970,o),
(415,930,o),
(415,870,cs),
(415,810,o),
(365,770,o),
(313,770,cs),
(261,770,o),
(211,810,o),
(211,870,cs)
);
},
{
closed = 1;
nodes = (
(262,837,o),
(288,817,o),
(313,817,cs),
(338,817,o),
(364,837,o),
(364,870,cs),
(364,903,o),
(338,923,o),
(313,923,cs),
(288,923,o),
(262,903,o),
(262,870,cs)
);
}
);
width = 626;
},
{
layerId = "7E94446B-7650-4140-BC3E-80C3FEB621EC";
shapes = (
{
closed = 1;
nodes = (
(285,700,l),
(285,250,ls),
(285,194,o),
(313,155,o),
(373,155,cs),
(433,155,o),
(461,194,o),
(461,250,cs),
(461,700,l),
(681,700,l),
(681,230,ls),
(681,31,o),
(538,-40,o),
(373,-40,cs),
(208,-40,o),
(65,31,o),
(65,230,cs),
(65,700,l)
);
},
{
closed = 1;
nodes = (
(234,979,o),
(292,1030,o),
(372,1030,cs),
(452,1030,o),
(512,979,o),
(512,905,cs),
(512,831,o),
(452,780,o),
(372,780,cs),
(292,780,o),
(234,831,o),
(234,905,cs)
);
},
{
closed = 1;
nodes = (
(329,877,o),
(347,861,o),
(372,861,cs),
(397,861,o),
(416,877,o),
(416,905,cs),
(416,933,o),
(397,950,o),
(372,950,cs),
(347,950,o),
(329,933,o),
(329,905,cs)
);
}
);
width = 746;
},
{
layerId = "F0B2A15B-B648-4C9E-81BA-2B413577DC71";
shapes = (
{
closed = 1;
nodes = (
(96,700,l),
(96,220,ls),
(96,84,o),
(168,1,o),
(288,1,cs),
(408,1,o),
(480,84,o),
(480,220,cs),
(480,700,l),
(491,700,l),
(491,220,ls),
(491,81,o),
(423,-10,o),
(288,-10,cs),
(153,-10,o),
(85,81,o),
(85,220,cs),
(85,700,l)
);
},
{
closed = 1;
nodes = (
(186,928,o),
(236,968,o),
(288,968,cs),
(340,968,o),
(390,928,o),
(390,868,cs),
(390,808,o),
(340,768,o),
(288,768,cs),
(236,768,o),
(186,808,o),
(186,868,cs)
);
},
{
closed = 1;
nodes = (
(196,815,o),
(240,778,o),
(288,778,cs),
(336,778,o),
(380,815,o),
(380,868,cs),
(380,921,o),
(336,958,o),
(288,958,cs),
(240,958,o),
(196,921,o),
(196,868,cs)
);
}
);
width = 576;
}
);
unicode = 366;
},
{
glyphname = Utilde;
lastChange = "2024-09-04 09:03:03 +0000";
layers = (
{
layerId = m001;
shapes = (
{
closed = 1;
nodes = (
(160,700,l),
(160,230,ls),
(160,134,o),
(213,70,o),
(313,70,cs),
(413,70,o),
(466,134,o),
(466,230,cs),
(466,700,l),
(551,700,l),
(551,230,ls),
(551,91,o),
(458,-10,o),
(313,-10,cs),
(168,-10,o),
(75,91,o),
(75,230,cs),
(75,700,l)
);
},
{
closed = 1;
nodes = (
(158,856,o),
(207,889,o),
(252,889,cs),
(317,889,o),
(322,842,o),
(376,842,cs),
(395,842,o),
(412,858,o),
(432,890,c),
(478,847,l),
(462,810,o),
(422,774,o),
(372,774,cs),
(317,774,o),
(296,821,o),
(251,821,cs),
(210,821,o),
(201,785,o),
(201,770,c),
(148,807,l)
);
}
);
width = 626;
},
{
layerId = "7E94446B-7650-4140-BC3E-80C3FEB621EC";
shapes = (
{
closed = 1;
nodes = (
(285,700,l),
(285,250,ls),
(285,194,o),
(313,155,o),
(373,155,cs),
(433,155,o),
(461,194,o),
(461,250,cs),
(461,700,l),
(681,700,l),
(681,230,ls),
(681,31,o),
(538,-40,o),
(373,-40,cs),
(208,-40,o),
(65,31,o),
(65,230,cs),
(65,700,l)
);
},
{
closed = 1;
nodes = (
(168,912,o),
(212,965,o),
(287,965,cs),
(354,965,o),
(373,910,o),
(431,910,cs),
(460,910,o),
(482,934,o),
(502,966,c),
(588,873,l),
(572,836,o),
(507,780,o),
(437,780,cs),
(382,780,o),
(338,837,o),
(286,837,cs),
(250,837,o),
(241,801,o),
(241,786,c),
(158,863,l)
);
}
);
width = 746;
},
{
layerId = "F0B2A15B-B648-4C9E-81BA-2B413577DC71";
shapes = (
{
closed = 1;
nodes = (
(96,700,l),
(96,220,ls),
(96,84,o),
(168,1,o),
(288,1,cs),
(408,1,o),
(480,84,o),
(480,220,cs),
(480,700,l),
(491,700,l),
(491,220,ls),
(491,81,o),
(423,-10,o),
(288,-10,cs),
(153,-10,o),
(85,81,o),
(85,220,cs),
(85,700,l)
);
},
{
closed = 1;
nodes = (
(163,798,o),
(180,827,o),
(225,827,cs),
(280,827,o),
(295,780,o),
(349,780,cs),
(378,780,o),
(390,796,o),
(405,828,c),
(414,825,l),
(398,788,o),
(378,772,o),
(348,772,cs),
(293,772,o),
(272,819,o),
(227,819,cs),
(186,819,o),
(172,793,o),
(172,768,c),
(163,769,l)
);
}
);
width = 576;
}
);
unicode = 360;
},
{
glyphname = V;
kernLeft = V;
kernRight = V;
lastChange = "2024-09-04 09:03:03 +0000";
layers = (
{
layerId = m001;
shapes = (
{
closed = 1;
nodes = (
(560,700,l),
(655,700,l),
(330,-35,l),
(5,700,l),
(100,700,l),
(330,158,l)
);
}
);
width = 660;
},
{
layerId = "7E94446B-7650-4140-BC3E-80C3FEB621EC";
shapes = (
{
closed = 1;
nodes = (
(525,700,l),
(785,700,l),
(390,-50,l),
(-5,700,l),
(255,700,l),
(390,358,l)
);
}
);
width = 780;
},
{
layerId = "F0B2A15B-B648-4C9E-81BA-2B413577DC71";
shapes = (
{
closed = 1;
nodes = (
(572,700,l),
(585,700,l),
(300,-15,l),
(15,700,l),
(28,700,l),
(300,15,l)
);
}
);
width = 600;
}
);
unicode = 86;
},
{
glyphname = W;
kernLeft = V;
kernRight = V;
lastChange = "2024-09-04 09:03:03 +0000";
layers = (
{
layerId = m001;
shapes = (
{
closed = 1;
nodes = (
(885,700,l),
(980,700,l),
(705,-35,l),
(495,509,l),
(285,-35,l),
(10,700,l),
(105,700,l),
(291,185,l),
(495,735,l),
(703,185,l)
);
}
);
width = 990;
},
{
layerId = "7E94446B-7650-4140-BC3E-80C3FEB621EC";
shapes = (
{
closed = 1;
nodes = (
(845,700,l),
(1110,700,l),
(790,-45,l),
(555,303,l),
(320,-45,l),
(0,700,l),
(265,700,l),
(373,371,l),
(555,735,l),
(737,371,l)
);
}
);
width = 1110;
},
{
layerId = "F0B2A15B-B648-4C9E-81BA-2B413577DC71";
shapes = (
{
closed = 1;
nodes = (
(919,700,l),
(930,700,l),
(695,-15,l),
(475,677,l),
(255,-15,l),
(20,700,l),
(31,700,l),
(255,26,l),
(475,715,l),
(695,26,l)
);
}
);
width = 950;
}
);
unicode = 87;
},
{
glyphname = Wcircumflex;
kernLeft = V;
kernRight = V;
lastChange = "2024-09-04 09:03:03 +0000";
layers = (
{
layerId = m001;
shapes = (
{
closed = 1;
nodes = (
(885,700,l),
(980,700,l),
(705,-35,l),
(495,509,l),
(285,-35,l),
(10,700,l),
(105,700,l),
(290,175,l),
(495,735,l),
(700,175,l)
);
},
{
closed = 1;
nodes = (
(385,795,l),
(335,835,l),
(495,975,l),
(655,835,l),
(605,795,l),
(495,890,l)
);
}
);
width = 990;
},
{
layerId = "7E94446B-7650-4140-BC3E-80C3FEB621EC";
shapes = (
{
closed = 1;
nodes = (
(845,700,l),
(1110,700,l),
(790,-45,l),
(555,303,l),
(320,-45,l),
(0,700,l),
(265,700,l),
(363,351,l),
(555,735,l),
(747,351,l)
);
},
{
closed = 1;
nodes = (
(475,795,l),
(335,885,l),
(555,1025,l),
(775,885,l),
(635,795,l),
(555,875,l)
);
}
);
width = 1110;
},
{
layerId = "F0B2A15B-B648-4C9E-81BA-2B413577DC71";
shapes = (
{
closed = 1;
nodes = (
(919,700,l),
(930,700,l),
(695,-15,l),
(475,677,l),
(255,-15,l),
(20,700,l),
(31,700,l),
(255,26,l),
(475,715,l),
(695,26,l)
);
},
{
closed = 1;
nodes = (
(322,775,l),
(315,782,l),
(475,922,l),
(635,782,l),
(628,775,l),
(475,910,l)
);
}
);
width = 950;
}
);
unicode = 372;
},
{
glyphname = Wdieresis;
kernLeft = V;
kernRight = V;
lastChange = "2024-09-04 09:03:03 +0000";
layers = (
{
layerId = m001;
shapes = (
{
closed = 1;
nodes = (
(540,880,o),
(565,905,o),
(595,905,cs),
(625,905,o),
(650,880,o),
(650,850,cs),
(650,820,o),
(625,795,o),
(595,795,cs),
(565,795,o),
(540,820,o),
(540,850,cs)
);
},
{
closed = 1;
nodes = (
(340,880,o),
(365,905,o),
(395,905,cs),
(425,905,o),
(450,880,o),
(450,850,cs),
(450,820,o),
(425,795,o),
(395,795,cs),
(365,795,o),
(340,820,o),
(340,850,cs)
);
},
{
closed = 1;
nodes = (
(885,700,l),
(980,700,l),
(705,-35,l),
(495,509,l),
(285,-35,l),
(10,700,l),
(105,700,l),
(291,185,l),
(495,735,l),
(703,185,l)
);
}
);
width = 990;
},
{
layerId = "7E94446B-7650-4140-BC3E-80C3FEB621EC";
shapes = (
{
closed = 1;
nodes = (
(582,952,o),
(630,991,o),
(690,991,cs),
(750,991,o),
(798,952,o),
(798,893,cs),
(798,834,o),
(750,795,o),
(690,795,cs),
(630,795,o),
(582,834,o),
(582,893,cs)
);
},
{
closed = 1;
nodes = (
(312,952,o),
(360,991,o),
(420,991,cs),
(480,991,o),
(528,952,o),
(528,893,cs),
(528,834,o),
(480,795,o),
(420,795,cs),
(360,795,o),
(312,834,o),
(312,893,cs)
);
},
{
closed = 1;
nodes = (
(845,700,l),
(1110,700,l),
(790,-45,l),
(555,303,l),
(320,-45,l),
(0,700,l),
(265,700,l),
(373,371,l),
(555,735,l),
(737,371,l)
);
}
);
width = 1110;
},
{
layerId = "F0B2A15B-B648-4C9E-81BA-2B413577DC71";
shapes = (
{
closed = 1;
nodes = (
(564,793,o),
(569,797,o),
(575,797,cs),
(581,797,o),
(586,793,o),
(586,786,cs),
(586,779,o),
(581,775,o),
(575,775,cs),
(569,775,o),
(564,779,o),
(564,786,cs)
);
},
{
closed = 1;
nodes = (
(364,793,o),
(369,797,o),
(375,797,cs),
(381,797,o),
(386,793,o),
(386,786,cs),
(386,779,o),
(381,775,o),
(375,775,cs),
(369,775,o),
(364,779,o),
(364,786,cs)
);
},
{
closed = 1;
nodes = (
(919,700,l),
(930,700,l),
(695,-15,l),
(475,677,l),
(255,-15,l),
(20,700,l),
(31,700,l),
(255,26,l),
(475,715,l),
(695,26,l)
);
}
);
width = 950;
}
);
unicode = 7812;
},
{
glyphname = Wdotaccent;
kernLeft = V;
kernRight = V;
lastChange = "2024-09-04 09:03:03 +0000";
layers = (
{
layerId = m001;
shapes = (
{
closed = 1;
nodes = (
(440,880,o),
(465,905,o),
(495,905,cs),
(525,905,o),
(550,880,o),
(550,850,cs),
(550,820,o),
(525,795,o),
(495,795,cs),
(465,795,o),
(440,820,o),
(440,850,cs)
);
},
{
closed = 1;
nodes = (
(885,700,l),
(980,700,l),
(705,-35,l),
(495,509,l),
(285,-35,l),
(10,700,l),
(105,700,l),
(291,185,l),
(495,735,l),
(703,185,l)
);
}
);
width = 990;
},
{
layerId = "7E94446B-7650-4140-BC3E-80C3FEB621EC";
shapes = (
{
closed = 1;
nodes = (
(447,952,o),
(495,991,o),
(555,991,cs),
(615,991,o),
(663,952,o),
(663,893,cs),
(663,834,o),
(615,795,o),
(555,795,cs),
(495,795,o),
(447,834,o),
(447,893,cs)
);
},
{
closed = 1;
nodes = (
(845,700,l),
(1110,700,l),
(790,-45,l),
(555,303,l),
(320,-45,l),
(0,700,l),
(265,700,l),
(373,371,l),
(555,735,l),
(737,371,l)
);
}
);
width = 1110;
},
{
layerId = "F0B2A15B-B648-4C9E-81BA-2B413577DC71";
shapes = (
{
closed = 1;
nodes = (
(464,793,o),
(469,797,o),
(475,797,cs),
(481,797,o),
(486,793,o),
(486,786,cs),
(486,779,o),
(481,775,o),
(475,775,cs),
(469,775,o),
(464,779,o),
(464,786,cs)
);
},
{
closed = 1;
nodes = (
(919,700,l),
(930,700,l),
(695,-15,l),
(475,677,l),
(255,-15,l),
(20,700,l),
(31,700,l),
(255,26,l),
(475,715,l),
(695,26,l)
);
}
);
width = 950;
}
);
unicode = 7814;
},
{
glyphname = Wdotbelow;
kernLeft = V;
kernRight = V;
lastChange = "2024-09-04 09:03:03 +0000";
layers = (
{
layerId = m001;
shapes = (
{
closed = 1;
nodes = (
(440,-120,o),
(465,-95,o),
(495,-95,cs),
(525,-95,o),
(550,-120,o),
(550,-150,cs),
(550,-180,o),
(525,-205,o),
(495,-205,cs),
(465,-205,o),
(440,-180,o),
(440,-150,cs)
);
},
{
closed = 1;
nodes = (
(885,700,l),
(980,700,l),
(705,-35,l),
(495,509,l),
(285,-35,l),
(10,700,l),
(105,700,l),
(291,185,l),
(495,735,l),
(703,185,l)
);
}
);
width = 990;
},
{
layerId = "7E94446B-7650-4140-BC3E-80C3FEB621EC";
shapes = (
{
closed = 1;
nodes = (
(447,-144,o),
(495,-105,o),
(555,-105,cs),
(615,-105,o),
(663,-144,o),
(663,-203,cs),
(663,-262,o),
(615,-301,o),
(555,-301,cs),
(495,-301,o),
(447,-262,o),
(447,-203,cs)
);
},
{
closed = 1;
nodes = (
(845,700,l),
(1110,700,l),
(790,-45,l),
(555,303,l),
(320,-45,l),
(0,700,l),
(265,700,l),
(373,371,l),
(555,735,l),
(737,371,l)
);
}
);
width = 1110;
},
{
layerId = "F0B2A15B-B648-4C9E-81BA-2B413577DC71";
shapes = (
{
closed = 1;
nodes = (
(464,-79,o),
(469,-75,o),
(475,-75,cs),
(481,-75,o),
(486,-79,o),
(486,-86,cs),
(486,-93,o),
(481,-97,o),
(475,-97,cs),
(469,-97,o),
(464,-93,o),
(464,-86,cs)
);
},
{
closed = 1;
nodes = (
(919,700,l),
(930,700,l),
(695,-15,l),
(475,677,l),
(255,-15,l),
(20,700,l),
(31,700,l),
(255,26,l),
(475,715,l),
(695,26,l)
);
}
);
width = 950;
}
);
unicode = 7816;
},
{
glyphname = X;
kernLeft = X;
kernRight = K;
lastChange = "2024-09-04 09:03:03 +0000";
layers = (
{
layerId = m001;
shapes = (
{
closed = 1;
nodes = (
(530,700,l),
(323,367,l),
(545,0,l),
(445,0,l),
(280,293,l),
(110,0,l),
(10,0,l),
(238,367,l),
(35,700,l),
(135,700,l),
(281,441,l),
(430,700,l)
);
}
);
width = 555;
},
{
layerId = "7E94446B-7650-4140-BC3E-80C3FEB621EC";
shapes = (
{
closed = 1;
nodes = (
(750,700,l),
(523,354,l),
(765,0,l),
(490,0,l),
(384,196,l),
(275,0,l),
(0,0,l),
(248,354,l),
(25,700,l),
(300,700,l),
(386,531,l),
(475,700,l)
);
}
);
width = 765;
},
{
layerId = "F0B2A15B-B648-4C9E-81BA-2B413577DC71";
shapes = (
{
closed = 1;
nodes = (
(465,700,l),
(259,367,l),
(480,0,l),
(466,0,l),
(252,356,l),
(34,0,l),
(20,0,l),
(246,367,l),
(45,700,l),
(59,700,l),
(253,377,l),
(451,700,l)
);
}
);
width = 500;
}
);
unicode = 88;
},
{
glyphname = Y;
kernLeft = T;
kernRight = T;
lastChange = "2024-09-04 09:03:03 +0000";
layers = (
{
layerId = m001;
shapes = (
{
closed = 1;
nodes = (
(556,700,l),
(323,302,l),
(323,0,l),
(238,0,l),
(238,301,l),
(5,700,l),
(100,700,l),
(280,376,l),
(461,700,l)
);
}
);
width = 561;
},
{
layerId = "7E94446B-7650-4140-BC3E-80C3FEB621EC";
shapes = (
{
closed = 1;
nodes = (
(725,700,l),
(473,275,l),
(473,0,l),
(248,0,l),
(248,273,l),
(-5,700,l),
(250,700,l),
(360,474,l),
(470,700,l)
);
}
);
width = 720;
},
{
layerId = "F0B2A15B-B648-4C9E-81BA-2B413577DC71";
shapes = (
{
closed = 1;
nodes = (
(492,700,l),
(254,267,l),
(254,0,l),
(243,0,l),
(243,266,l),
(15,700,l),
(28,700,l),
(248,281,l),
(479,700,l)
);
}
);
width = 507;
}
);
unicode = 89;
},
{
glyphname = Yacute;
kernLeft = T;
kernRight = T;
lastChange = "2024-09-04 09:03:03 +0000";
layers = (
{
layerId = m001;
shapes = (
{
closed = 1;
nodes = (
(230,770,l),
(186,800,l),
(336,960,l),
(410,920,l)
);
},
{
closed = 1;
nodes = (
(556,700,l),
(323,302,l),
(323,0,l),
(238,0,l),
(238,301,l),
(5,700,l),
(100,700,l),
(280,376,l),
(461,700,l)
);
}
);
width = 561;
},
{
layerId = "7E94446B-7650-4140-BC3E-80C3FEB621EC";
shapes = (
{
closed = 1;
nodes = (
(360,780,l),
(250,830,l),
(400,990,l),
(540,930,l)
);
},
{
closed = 1;
nodes = (
(725,700,l),
(473,275,l),
(473,0,l),
(248,0,l),
(248,273,l),
(-5,700,l),
(250,700,l),
(360,474,l),
(470,700,l)
);
}
);
width = 720;
},
{
layerId = "F0B2A15B-B648-4C9E-81BA-2B413577DC71";
shapes = (
{
closed = 1;
nodes = (
(236,768,l),
(231,773,l),
(401,933,l),
(409,925,l)
);
},
{
closed = 1;
nodes = (
(492,700,l),
(254,267,l),
(254,0,l),
(243,0,l),
(243,266,l),
(15,700,l),
(28,700,l),
(248,281,l),
(479,700,l)
);
}
);
width = 507;
}
);
unicode = 221;
},
{
glyphname = Ycircumflex;
kernLeft = T;
kernRight = T;
lastChange = "2024-09-04 09:03:03 +0000";
layers = (
{
layerId = m001;
shapes = (
{
closed = 1;
nodes = (
(556,700,l),
(323,302,l),
(323,0,l),
(238,0,l),
(238,301,l),
(5,700,l),
(100,700,l),
(280,376,l),
(461,700,l)
);
},
{
closed = 1;
nodes = (
(171,770,l),
(121,810,l),
(281,950,l),
(441,810,l),
(391,770,l),
(281,865,l)
);
}
);
width = 561;
},
{
layerId = "7E94446B-7650-4140-BC3E-80C3FEB621EC";
shapes = (
{
closed = 1;
nodes = (
(725,700,l),
(473,275,l),
(473,0,l),
(248,0,l),
(248,273,l),
(-5,700,l),
(250,700,l),
(360,474,l),
(470,700,l)
);
},
{
closed = 1;
nodes = (
(280,780,l),
(140,870,l),
(360,1010,l),
(580,870,l),
(440,780,l),
(360,860,l)
);
}
);
width = 720;
},
{
layerId = "F0B2A15B-B648-4C9E-81BA-2B413577DC71";
shapes = (
{
closed = 1;
nodes = (
(492,700,l),
(254,267,l),
(254,0,l),
(243,0,l),
(243,266,l),
(15,700,l),
(28,700,l),
(248,281,l),
(479,700,l)
);
},
{
closed = 1;
nodes = (
(101,768,l),
(94,775,l),
(254,915,l),
(414,775,l),
(407,768,l),
(254,903,l)
);
}
);
width = 507;
}
);
unicode = 374;
},
{
glyphname = Ydieresis;
kernLeft = T;
kernRight = T;
lastChange = "2024-09-04 09:03:03 +0000";
layers = (
{
layerId = m001;
shapes = (
{
closed = 1;
nodes = (
(126,855,o),
(150,880,o),
(180,880,cs),
(210,880,o),
(236,855,o),
(236,825,cs),
(236,795,o),
(210,770,o),
(180,770,cs),
(150,770,o),
(126,795,o),
(126,825,cs)
);
},
{
closed = 1;
nodes = (
(326,855,o),
(350,880,o),
(380,880,cs),
(410,880,o),
(436,855,o),
(436,825,cs),
(436,795,o),
(410,770,o),
(380,770,cs),
(350,770,o),
(326,795,o),
(326,825,cs)
);
},
{
closed = 1;
nodes = (
(556,700,l),
(323,302,l),
(323,0,l),
(238,0,l),
(238,301,l),
(5,700,l),
(100,700,l),
(280,376,l),
(461,700,l)
);
}
);
width = 561;
},
{
layerId = "7E94446B-7650-4140-BC3E-80C3FEB621EC";
shapes = (
{
closed = 1;
nodes = (
(87,954,o),
(135,993,o),
(195,993,cs),
(255,993,o),
(303,954,o),
(303,895,cs),
(303,836,o),
(255,797,o),
(195,797,cs),
(135,797,o),
(87,836,o),
(87,895,cs)
);
},
{
closed = 1;
nodes = (
(417,954,o),
(465,993,o),
(525,993,cs),
(585,993,o),
(633,954,o),
(633,895,cs),
(633,836,o),
(585,797,o),
(525,797,cs),
(465,797,o),
(417,836,o),
(417,895,cs)
);
},
{
closed = 1;
nodes = (
(725,700,l),
(473,275,l),
(473,0,l),
(248,0,l),
(248,273,l),
(-5,700,l),
(250,700,l),
(360,474,l),
(470,700,l)
);
}
);
width = 720;
},
{
layerId = "F0B2A15B-B648-4C9E-81BA-2B413577DC71";
shapes = (
{
closed = 1;
nodes = (
(152,786,o),
(158,790,o),
(164,790,cs),
(170,790,o),
(175,786,o),
(175,779,cs),
(175,772,o),
(170,768,o),
(164,768,cs),
(158,768,o),
(152,772,o),
(152,779,cs)
);
},
{
closed = 1;
nodes = (
(332,786,o),
(338,790,o),
(344,790,cs),
(350,790,o),
(355,786,o),
(355,779,cs),
(355,772,o),
(350,768,o),
(344,768,cs),
(338,768,o),
(332,772,o),
(332,779,cs)
);
},
{
closed = 1;
nodes = (
(492,700,l),
(254,267,l),
(254,0,l),
(243,0,l),
(243,266,l),
(15,700,l),
(28,700,l),
(248,281,l),
(479,700,l)
);
}
);
width = 507;
}
);
unicode = 376;
},
{
glyphname = Z;
kernLeft = X;
kernRight = K;
lastChange = "2024-09-04 09:03:03 +0000";
layers = (
{
layerId = m001;
shapes = (
{
closed = 1;
nodes = (
(35,700,l),
(525,700,l),
(157,80,l),
(505,80,l),
(505,0,l),
(15,0,l),
(383,620,l),
(35,620,l)
);
}
);
width = 545;
},
{
layerId = "7E94446B-7650-4140-BC3E-80C3FEB621EC";
shapes = (
{
closed = 1;
nodes = (
(70,700,l),
(655,700,l),
(347,185,l),
(610,185,l),
(610,0,l),
(5,0,l),
(306,505,l),
(70,505,l)
);
}
);
width = 665;
},
{
layerId = "F0B2A15B-B648-4C9E-81BA-2B413577DC71";
shapes = (
{
closed = 1;
nodes = (
(40,700,l),
(520,700,l),
(42,11,l),
(510,11,l),
(510,0,l),
(20,0,l),
(498,689,l),
(40,689,l)
);
}
);
width = 535;
}
);
unicode = 90;
},
{
glyphname = Zacute;
kernLeft = XK;
lastChange = "2024-09-04 09:03:03 +0000";
layers = (
{
layerId = m001;
shapes = (
{
closed = 1;
nodes = (
(35,700,l),
(525,700,l),
(157,80,l),
(505,80,l),
(505,0,l),
(15,0,l),
(383,620,l),
(35,620,l)
);
},
{
closed = 1;
nodes = (
(260,770,l),
(215,800,l),
(365,960,l),
(440,920,l)
);
}
);
width = 545;
},
{
layerId = "7E94446B-7650-4140-BC3E-80C3FEB621EC";
shapes = (
{
closed = 1;
nodes = (
(70,700,l),
(655,700,l),
(347,185,l),
(610,185,l),
(610,0,l),
(5,0,l),
(306,505,l),
(70,505,l)
);
},
{
closed = 1;
nodes = (
(362,780,l),
(252,830,l),
(402,990,l),
(542,930,l)
);
}
);
width = 665;
},
{
layerId = "F0B2A15B-B648-4C9E-81BA-2B413577DC71";
shapes = (
{
closed = 1;
nodes = (
(40,700,l),
(520,700,l),
(42,11,l),
(510,11,l),
(510,0,l),
(20,0,l),
(498,689,l),
(40,689,l)
);
},
{
closed = 1;
nodes = (
(252,768,l),
(248,773,l),
(418,933,l),
(426,925,l)
);
}
);
width = 535;
}
);
unicode = 377;
},
{
glyphname = Zcaron;
kernLeft = XK;
lastChange = "2024-09-04 09:03:03 +0000";
layers = (
{
layerId = m001;
shapes = (
{
closed = 1;
nodes = (
(35,700,l),
(525,700,l),
(157,80,l),
(505,80,l),
(505,0,l),
(15,0,l),
(383,620,l),
(35,620,l)
);
},
{
closed = 1;
nodes = (
(390,950,l),
(440,910,l),
(280,770,l),
(120,910,l),
(170,950,l),
(280,855,l)
);
}
);
width = 545;
},
{
layerId = "7E94446B-7650-4140-BC3E-80C3FEB621EC";
shapes = (
{
closed = 1;
nodes = (
(70,700,l),
(655,700,l),
(347,185,l),
(610,185,l),
(610,0,l),
(5,0,l),
(306,505,l),
(70,505,l)
);
},
{
closed = 1;
nodes = (
(442,1010,l),
(582,920,l),
(362,780,l),
(142,920,l),
(282,1010,l),
(362,930,l)
);
}
);
width = 665;
},
{
layerId = "F0B2A15B-B648-4C9E-81BA-2B413577DC71";
shapes = (
{
closed = 1;
nodes = (
(40,700,l),
(520,700,l),
(42,11,l),
(510,11,l),
(510,0,l),
(20,0,l),
(498,689,l),
(40,689,l)
);
},
{
closed = 1;
nodes = (
(432,916,l),
(440,908,l),
(280,768,l),
(120,908,l),
(128,916,l),
(280,780,l)
);
}
);
width = 535;
}
);
unicode = 381;
},
{
glyphname = Zdotaccent;
kernLeft = XK;
lastChange = "2024-09-04 09:03:03 +0000";
layers = (
{
layerId = m001;
shapes = (
{
closed = 1;
nodes = (
(35,700,l),
(525,700,l),
(157,80,l),
(505,80,l),
(505,0,l),
(15,0,l),
(383,620,l),
(35,620,l)
);
},
{
closed = 1;
nodes = (
(225,855,o),
(250,880,o),
(280,880,cs),
(310,880,o),
(335,855,o),
(335,825,cs),
(335,795,o),
(310,770,o),
(280,770,cs),
(250,770,o),
(225,795,o),
(225,825,cs)
);
}
);
width = 545;
},
{
layerId = "7E94446B-7650-4140-BC3E-80C3FEB621EC";
shapes = (
{
closed = 1;
nodes = (
(70,700,l),
(655,700,l),
(347,185,l),
(610,185,l),
(610,0,l),
(5,0,l),
(306,505,l),
(70,505,l)
);
},
{
closed = 1;
nodes = (
(254,937,o),
(302,976,o),
(362,976,cs),
(422,976,o),
(470,937,o),
(470,878,cs),
(470,819,o),
(422,780,o),
(362,780,cs),
(302,780,o),
(254,819,o),
(254,878,cs)
);
}
);
width = 665;
},
{
layerId = "F0B2A15B-B648-4C9E-81BA-2B413577DC71";
shapes = (
{
closed = 1;
nodes = (
(40,700,l),
(520,700,l),
(42,11,l),
(510,11,l),
(510,0,l),
(20,0,l),
(498,689,l),
(40,689,l)
);
},
{
closed = 1;
nodes = (
(269,786,o),
(274,790,o),
(280,790,cs),
(286,790,o),
(291,786,o),
(291,779,cs),
(291,772,o),
(286,768,o),
(280,768,cs),
(274,768,o),
(269,772,o),
(269,779,cs)
);
}
);
width = 535;
}
);
unicode = 379;
},
{
glyphname = a;
kernLeft = a;
lastChange = "2024-09-04 09:03:03 +0000";
layers = (
{
layerId = m001;
shapes = (
{
closed = 1;
nodes = (
(111,89,o),
(151,59,o),
(210,59,cs),
(283,59,o),
(341,107,o),
(341,180,c),
(357,120,l),
(357,32,o),
(264,-10,o),
(189,-10,cs),
(104,-10,o),
(30,44,o),
(30,138,cs),
(30,227,o),
(97,286,o),
(210,286,cs),
(309,286,o),
(359,242,o),
(374,225,c),
(374,178,l),
(327,210,o),
(279,223,o),
(223,223,cs),
(145,223,o),
(111,192,o),
(111,142,cs)
);
},
{
closed = 1;
nodes = (
(60,413,l),
(95,438,o),
(156,470,o),
(241,470,cs),
(348,470,o),
(421,419,o),
(421,330,cs),
(421,0,l),
(341,0,l),
(341,319,ls),
(341,382,o),
(294,400,o),
(237,400,cs),
(168,400,o),
(120,370,o),
(99,354,c)
);
}
);
width = 481;
},
{
layerId = "7E94446B-7650-4140-BC3E-80C3FEB621EC";
shapes = (
{
closed = 1;
nodes = (
(216,119,o),
(238,106,o),
(262,106,cs),
(300,106,o),
(339,130,o),
(339,190,c),
(355,130,l),
(355,41,o),
(282,-10,o),
(187,-10,cs),
(96,-10,o),
(20,39,o),
(20,134,cs),
(20,222,o),
(84,275,o),
(201,275,cs),
(272,275,o),
(342,257,o),
(372,226,c),
(372,147,l),
(349,167,o),
(308,180,o),
(268,180,cs),
(230,180,o),
(216,168,o),
(216,145,cs)
);
},
{
closed = 1;
nodes = (
(56,424,l),
(120,449,o),
(203,475,o),
(291,475,cs),
(421,475,o),
(524,419,o),
(524,320,cs),
(524,0,l),
(339,0,l),
(339,272,ls),
(339,307,o),
(319,333,o),
(262,333,cs),
(206,333,o),
(132,308,o),
(115,298,c)
);
}
);
width = 574;
},
{
layerId = "F0B2A15B-B648-4C9E-81BA-2B413577DC71";
shapes = (
{
closed = 1;
nodes = (
(50,37,o),
(122,0,o),
(192,0,cs),
(276,0,o),
(355,63,o),
(355,210,c),
(361,190,l),
(360,54,o),
(277,-10,o),
(189,-10,cs),
(118,-10,o),
(40,31,o),
(40,132,cs),
(40,223,o),
(104,273,o),
(202,273,cs),
(279,273,o),
(337,242,o),
(358,225,c),
(358,212,l),
(315,246,o),
(260,263,o),
(202,263,cs),
(126,263,o),
(50,229,o),
(50,133,cs)
);
},
{
closed = 1;
nodes = (
(68,417,l),
(101,441,o),
(147,470,o),
(220,470,cs),
(320,470,o),
(365,416,o),
(365,320,cs),
(365,0,l),
(355,0,l),
(355,320,ls),
(355,357,o),
(355,460,o),
(218,460,cs),
(149,460,o),
(106,433,o),
(74,409,c)
);
}
);
width = 435;
}
);
unicode = 97;
},
{
glyphname = aacute;
kernLeft = a;
lastChange = "2024-09-04 09:03:03 +0000";
layers = (
{
layerId = m001;
shapes = (
{
closed = 1;
nodes = (
(111,86,o),
(144,61,o),
(208,61,cs),
(288,61,o),
(345,94,o),
(345,180,c),
(361,130,l),
(361,41,o),
(283,-10,o),
(188,-10,cs),
(93,-10,o),
(30,41,o),
(30,125,cs),
(30,232,o),
(115,286,o),
(226,286,cs),
(314,286,o),
(364,242,o),
(378,225,c),
(378,178,l),
(333,210,o),
(288,225,o),
(230,225,cs),
(149,225,o),
(111,191,o),
(111,135,cs)
);
},
{
closed = 1;
nodes = (
(72,413,l),
(106,438,o),
(165,470,o),
(248,470,cs),
(353,470,o),
(425,419,o),
(425,330,cs),
(425,0,l),
(345,0,l),
(345,330,ls),
(345,376,o),
(298,400,o),
(248,400,cs),
(182,400,o),
(133,368,o),
(111,352,c)
);
},
{
closed = 1;
nodes = (
(228,530,l),
(183,560,l),
(333,720,l),
(408,680,l)
);
}
);
width = 485;
},
{
layerId = "7E94446B-7650-4140-BC3E-80C3FEB621EC";
shapes = (
{
closed = 1;
nodes = (
(216,115,o),
(238,106,o),
(263,106,cs),
(303,106,o),
(345,124,o),
(345,190,c),
(361,130,l),
(361,41,o),
(288,-10,o),
(193,-10,cs),
(88,-10,o),
(20,41,o),
(20,130,cs),
(20,217,o),
(100,275,o),
(221,275,cs),
(279,275,o),
(354,257,o),
(378,233,c),
(378,147,l),
(350,169,o),
(323,180,o),
(275,180,cs),
(241,180,o),
(216,163,o),
(216,139,cs)
);
},
{
closed = 1;
nodes = (
(62,424,l),
(126,449,o),
(210,475,o),
(293,475,cs),
(428,475,o),
(530,419,o),
(530,320,cs),
(530,0,l),
(345,0,l),
(345,272,ls),
(345,307,o),
(323,333,o),
(273,333,cs),
(207,333,o),
(143,309,o),
(121,298,c)
);
},
{
closed = 1;
nodes = (
(293,535,l),
(183,585,l),
(333,745,l),
(473,685,l)
);
}
);
width = 580;
},
{
layerId = "F0B2A15B-B648-4C9E-81BA-2B413577DC71";
shapes = (
{
closed = 1;
nodes = (
(50,37,o),
(123,0,o),
(193,0,cs),
(283,0,o),
(355,74,o),
(355,160,c),
(360,160,l),
(360,71,o),
(295,-10,o),
(193,-10,cs),
(118,-10,o),
(40,31,o),
(40,135,cs),
(40,232,o),
(130,281,o),
(221,281,cs),
(299,281,o),
(337,253,o),
(358,235,c),
(358,225,l),
(334,247,o),
(289,271,o),
(221,271,cs),
(138,271,o),
(50,227,o),
(50,135,cs)
);
},
{
closed = 1;
nodes = (
(77,403,l),
(110,434,o),
(160,470,o),
(233,470,cs),
(323,470,o),
(365,409,o),
(365,320,cs),
(365,0,l),
(355,0,l),
(355,320,ls),
(355,406,o),
(316,460,o),
(233,460,cs),
(167,460,o),
(121,430,o),
(84,395,c)
);
},
{
closed = 1;
nodes = (
(176,550,l),
(170,555,l),
(340,715,l),
(348,707,l)
);
}
);
width = 435;
}
);
unicode = 225;
},
{
glyphname = abreve;
kernLeft = a;
lastChange = "2024-09-04 09:03:03 +0000";
layers = (
{
layerId = m001;
shapes = (
{
closed = 1;
nodes = (
(111,86,o),
(144,61,o),
(208,61,cs),
(288,61,o),
(345,94,o),
(345,180,c),
(361,130,l),
(361,41,o),
(283,-10,o),
(188,-10,cs),
(93,-10,o),
(30,41,o),
(30,125,cs),
(30,232,o),
(115,286,o),
(226,286,cs),
(314,286,o),
(364,242,o),
(378,225,c),
(378,178,l),
(333,210,o),
(288,225,o),
(230,225,cs),
(149,225,o),
(111,191,o),
(111,135,cs)
);
},
{
closed = 1;
nodes = (
(72,413,l),
(106,438,o),
(165,470,o),
(248,470,cs),
(353,470,o),
(425,419,o),
(425,330,cs),
(425,0,l),
(345,0,l),
(345,330,ls),
(345,376,o),
(298,400,o),
(248,400,cs),
(182,400,o),
(133,368,o),
(111,352,c)
);
},
{
closed = 1;
nodes = (
(161,670,l),
(161,644,o),
(178,595,o),
(248,595,cs),
(318,595,o),
(335,644,o),
(335,670,c),
(406,670,l),
(406,601,o),
(353,530,o),
(248,530,cs),
(143,530,o),
(90,601,o),
(90,670,c)
);
}
);
width = 485;
},
{
layerId = "7E94446B-7650-4140-BC3E-80C3FEB621EC";
shapes = (
{
closed = 1;
nodes = (
(216,115,o),
(238,106,o),
(263,106,cs),
(303,106,o),
(345,124,o),
(345,190,c),
(361,130,l),
(361,41,o),
(288,-10,o),
(193,-10,cs),
(88,-10,o),
(20,41,o),
(20,130,cs),
(20,217,o),
(100,275,o),
(221,275,cs),
(279,275,o),
(354,257,o),
(378,233,c),
(378,147,l),
(350,169,o),
(323,180,o),
(275,180,cs),
(241,180,o),
(216,163,o),
(216,139,cs)
);
},
{
closed = 1;
nodes = (
(62,424,l),
(126,449,o),
(210,475,o),
(293,475,cs),
(428,475,o),
(530,419,o),
(530,320,cs),
(530,0,l),
(345,0,l),
(345,272,ls),
(345,307,o),
(323,333,o),
(273,333,cs),
(207,333,o),
(143,309,o),
(121,298,c)
);
},
{
closed = 1;
nodes = (
(241,685,l),
(241,644,o),
(273,635,o),
(293,635,cs),
(313,635,o),
(345,644,o),
(345,685,c),
(461,685,l),
(461,596,o),
(398,535,o),
(293,535,cs),
(188,535,o),
(125,596,o),
(125,685,c)
);
}
);
width = 580;
},
{
layerId = "F0B2A15B-B648-4C9E-81BA-2B413577DC71";
shapes = (
{
closed = 1;
nodes = (
(50,37,o),
(123,0,o),
(193,0,cs),
(283,0,o),
(355,74,o),
(355,160,c),
(360,160,l),
(360,71,o),
(295,-10,o),
(193,-10,cs),
(118,-10,o),
(40,31,o),
(40,135,cs),
(40,232,o),
(130,281,o),
(221,281,cs),
(299,281,o),
(337,253,o),
(358,235,c),
(358,225,l),
(334,247,o),
(289,271,o),
(221,271,cs),
(138,271,o),
(50,227,o),
(50,135,cs)
);
},
{
closed = 1;
nodes = (
(77,403,l),
(110,434,o),
(160,470,o),
(233,470,cs),
(323,470,o),
(365,409,o),
(365,320,cs),
(365,0,l),
(355,0,l),
(355,320,ls),
(355,406,o),
(316,460,o),
(233,460,cs),
(167,460,o),
(121,430,o),
(84,395,c)
);
},
{
closed = 1;
nodes = (
(75,680,l),
(75,614,o),
(131,550,o),
(223,550,cs),
(315,550,o),
(371,614,o),
(371,680,c),
(381,680,l),
(381,611,o),
(328,540,o),
(223,540,cs),
(118,540,o),
(65,611,o),
(65,680,c)
);
}
);
width = 435;
}
);
unicode = 259;
},
{
glyphname = acircumflex;
kernLeft = a;
lastChange = "2024-09-04 09:03:03 +0000";
layers = (
{
layerId = m001;
shapes = (
{
closed = 1;
nodes = (
(111,86,o),
(144,61,o),
(208,61,cs),
(288,61,o),
(345,94,o),
(345,180,c),
(361,130,l),
(361,41,o),
(283,-10,o),
(188,-10,cs),
(93,-10,o),
(30,41,o),
(30,125,cs),
(30,232,o),
(115,286,o),
(226,286,cs),
(314,286,o),
(364,242,o),
(378,225,c),
(378,178,l),
(333,210,o),
(288,225,o),
(230,225,cs),
(149,225,o),
(111,191,o),
(111,135,cs)
);
},
{
closed = 1;
nodes = (
(72,413,l),
(106,438,o),
(165,470,o),
(248,470,cs),
(353,470,o),
(425,419,o),
(425,330,cs),
(425,0,l),
(345,0,l),
(345,330,ls),
(345,376,o),
(298,400,o),
(248,400,cs),
(182,400,o),
(133,368,o),
(111,352,c)
);
},
{
closed = 1;
nodes = (
(138,530,l),
(88,570,l),
(248,710,l),
(408,570,l),
(358,530,l),
(248,625,l)
);
}
);
width = 485;
},
{
layerId = "7E94446B-7650-4140-BC3E-80C3FEB621EC";
shapes = (
{
closed = 1;
nodes = (
(216,115,o),
(238,106,o),
(263,106,cs),
(303,106,o),
(345,124,o),
(345,190,c),
(361,130,l),
(361,41,o),
(288,-10,o),
(193,-10,cs),
(88,-10,o),
(20,41,o),
(20,130,cs),
(20,217,o),
(100,275,o),
(221,275,cs),
(279,275,o),
(354,257,o),
(378,233,c),
(378,147,l),
(350,169,o),
(323,180,o),
(275,180,cs),
(241,180,o),
(216,163,o),
(216,139,cs)
);
},
{
closed = 1;
nodes = (
(62,424,l),
(126,449,o),
(210,475,o),
(293,475,cs),
(428,475,o),
(530,419,o),
(530,320,cs),
(530,0,l),
(345,0,l),
(345,272,ls),
(345,307,o),
(323,333,o),
(273,333,cs),
(207,333,o),
(143,309,o),
(121,298,c)
);
},
{
closed = 1;
nodes = (
(213,535,l),
(73,625,l),
(293,765,l),
(513,625,l),
(373,535,l),
(293,615,l)
);
}
);
width = 580;
},
{
layerId = "F0B2A15B-B648-4C9E-81BA-2B413577DC71";
shapes = (
{
closed = 1;
nodes = (
(50,37,o),
(123,0,o),
(193,0,cs),
(283,0,o),
(355,74,o),
(355,160,c),
(360,160,l),
(360,71,o),
(295,-10,o),
(193,-10,cs),
(118,-10,o),
(40,31,o),
(40,135,cs),
(40,232,o),
(130,281,o),
(221,281,cs),
(299,281,o),
(337,253,o),
(358,235,c),
(358,225,l),
(334,247,o),
(289,271,o),
(221,271,cs),
(138,271,o),
(50,227,o),
(50,135,cs)
);
},
{
closed = 1;
nodes = (
(77,403,l),
(110,434,o),
(160,470,o),
(233,470,cs),
(323,470,o),
(365,409,o),
(365,320,cs),
(365,0,l),
(355,0,l),
(355,320,ls),
(355,406,o),
(316,460,o),
(233,460,cs),
(167,460,o),
(121,430,o),
(84,395,c)
);
},
{
closed = 1;
nodes = (
(80,540,l),
(73,547,l),
(233,687,l),
(393,547,l),
(386,540,l),
(233,675,l)
);
}
);
width = 435;
}
);
unicode = 226;
},
